<svg id="user-profile" xmlns="http://www.w3.org/2000/svg" xmlns:xlink="http://www.w3.org/1999/xlink" width="67.503" height="80.163" viewBox="0 0 67.503 80.163">
  <defs>
    <linearGradient id="linear-gradient" x1="0.5" x2="0.5" y2="1" gradientUnits="objectBoundingBox">
      <stop offset="0" stop-color="#2e7fdf"/>
      <stop offset="1" stop-color="#2e9edf"/>
    </linearGradient>
  </defs>
  <g id="Path_101" data-name="Path 101" transform="translate(-1.559 35.573)" fill="url(#linear-gradient)">
    <path d="M 68.55860137939453 44.08994293212891 L 61.4348030090332 44.08994293212891 C 61.15896987915039 30.34345245361328 49.54508209228516 19.24267196655273 35.30871200561523 19.24267196655273 C 21.07455444335938 19.24267196655273 9.462470054626465 30.34345245361328 9.186678886413574 44.08994293212891 L 2.062884330749512 44.08994293212891 C 2.33790135383606 26.41587829589844 17.14781188964844 12.12000274658203 35.31277084350586 12.12000274658203 C 53.47551345825195 12.12000274658203 68.28361511230469 26.41587829589844 68.55860137939453 44.08994293212891 Z" stroke="none"/>
    <path d="M 68.04668426513672 43.58994293212891 C 67.50353240966797 26.42259407043457 53.02824020385742 12.62000274658203 35.31277084350586 12.62000274658203 C 17.5951042175293 12.62000274658203 3.118021726608276 26.42259407043457 2.57480001449585 43.58994293212891 L 8.70133113861084 43.58994293212891 C 9.244547843933105 29.79938507080078 20.97152137756348 18.74267196655273 35.30871200561523 18.74267196655273 C 49.64809036254883 18.74267196655273 61.37685012817383 29.79938507080078 61.92014694213867 43.58994293212891 L 68.04668426513672 43.58994293212891 M 69.06248474121094 44.58994293212891 L 60.93981170654297 44.58994293212891 C 60.93981170654297 30.88699340820313 49.44623184204102 19.74267196655273 35.30871200561523 19.74267196655273 C 21.17120170593262 19.74267196655273 9.681671142578125 30.89105224609375 9.681671142578125 44.58994293212891 L 1.559001445770264 44.58994293212891 C 1.559001445770264 26.40327262878418 16.70373153686523 11.62000274658203 35.31277084350586 11.62000274658203 C 53.91775131225586 11.62000274658203 69.06248474121094 26.40327262878418 69.06248474121094 44.58994293212891 Z" stroke="none" fill="#fff"/>
  </g>
  <g id="Path_102" data-name="Path 102" transform="translate(7.095)" fill="url(#linear-gradient)">
    <path d="M 26.65838050842285 44.05287933349609 C 14.65304946899414 44.05287933349609 4.886000156402588 34.28400802612305 4.886000156402588 22.27643775939941 C 4.885029792785645 19.34206771850586 5.460919857025146 16.49342727661133 6.597670078277588 13.80949783325195 C 7.695539951324463 11.21737766265869 9.26708984375 8.88804817199707 11.26869010925293 6.886197566986084 C 13.27023029327393 4.884397983551025 15.59943008422852 3.312437772750854 18.19158935546875 2.213977813720703 C 20.87542915344238 1.076667785644531 23.72406959533691 0.4999977648258209 26.65838050842285 0.4999977648258209 C 38.66819000244141 0.4999977648258209 48.43888092041016 10.26886749267578 48.43888092041016 22.27643775939941 C 48.43888092041016 34.28400802612305 38.66819000244141 44.05287933349609 26.65838050842285 44.05287933349609 Z M 26.65838050842285 7.622677803039551 C 18.57826995849609 7.622677803039551 12.00461959838867 14.19632816314697 12.00461959838867 22.27643775939941 C 12.00461959838867 30.35654830932617 18.57826995849609 36.93019866943359 26.65838050842285 36.93019866943359 C 34.74073028564453 36.93019866943359 41.31620025634766 30.35654830932617 41.31620025634766 22.27643775939941 C 41.31620025634766 14.19632816314697 34.74073028564453 7.622677803039551 26.65838050842285 7.622677803039551 Z" stroke="none"/>
    <path d="M 26.65838050842285 43.55287933349609 C 38.39249038696289 43.55287933349609 47.93888092041016 34.00830841064453 47.93888092041016 22.27643775939941 C 47.93888092041016 10.54456806182861 38.39249038696289 0.9999977350234985 26.65838050842285 0.9999977350234985 C 23.79146957397461 0.9999977350234985 21.00845909118652 1.563327789306641 18.38666915893555 2.674347877502441 C 15.85400009155273 3.747607707977295 13.57812023162842 5.283617973327637 11.62226009368896 7.239727973937988 C 9.666359901428223 9.195878028869629 8.130740165710449 11.47187805175781 7.058079719543457 14.00449752807617 C 5.947619915008545 16.6263484954834 5.385049819946289 19.40931701660156 5.386000156402588 22.27643775939941 C 5.386000156402588 34.00830841064453 14.92875003814697 43.55287933349609 26.65838050842285 43.55287933349609 M 26.65838050842285 7.122677803039551 C 35.01642990112305 7.122677803039551 41.81620025634766 13.92062759399414 41.81620025634766 22.27643775939941 C 41.81620025634766 30.63224792480469 35.01642990112305 37.43019866943359 26.65838050842285 37.43019866943359 C 18.30257034301758 37.43019866943359 11.50461959838867 30.63224792480469 11.50461959838867 22.27643775939941 C 11.50461959838867 13.92062759399414 18.30257034301758 7.122677803039551 26.65838050842285 7.122677803039551 M 26.65838050842285 44.55287933349609 C 14.38095951080322 44.55287933349609 4.386000156402588 34.55385589599609 4.386000156402588 22.27643775939941 C 4.381949901580811 9.99495792388916 14.37689018249512 -2.240600679215277e-06 26.65838050842285 -2.240600679215277e-06 C 38.94392013549805 -2.240600679215277e-06 48.93888092041016 9.990887641906738 48.93888092041016 22.27643775939941 C 48.93888092041016 34.56197738647461 38.94392013549805 44.55287933349609 26.65838050842285 44.55287933349609 Z M 26.65838050842285 8.122677803039551 C 18.85248947143555 8.122677803039551 12.50461959838867 14.47054767608643 12.50461959838867 22.27643775939941 C 12.50461959838867 30.08232688903809 18.85248947143555 36.43019866943359 26.65838050842285 36.43019866943359 C 34.46833038330078 36.43019866943359 40.81620025634766 30.08232688903809 40.81620025634766 22.27643775939941 C 40.81620025634766 14.47054767608643 34.46020889282227 8.122677803039551 26.65838050842285 8.122677803039551 Z" stroke="none" fill="#fff"/>
  </g>
</svg>