<svg xmlns="http://www.w3.org/2000/svg" width="20" height="16.667" viewBox="0 0 20 16.667">
  <path id="Icon_simple-basecamp" data-name="Icon simple-basecamp" d="M10,1.667C4.617,1.667.4,8.517,0,14.3c1.69,2.933,5.762,4.033,10,4.033s8.313-1.1,10-4.033C19.6,8.515,15.383,1.667,10,1.667ZM10.125,17c-7.95,0-8.713-3.362-8.713-3.362l.15-.813S3.75,8.1,5.125,8.1s1.95,1.95,3.075,1.95,3.562-4.325,4.437-4.325,2.35,1.625,3.558,3.125a24.291,24.291,0,0,1,2.4,4.073l-.007.028.125.738S18.073,17,10.123,17Z" transform="translate(0 -1.667)" fill="#4d5259"/>
</svg>