<svg xmlns="http://www.w3.org/2000/svg" width="16.246" height="16.249" viewBox="0 0 16.246 16.249">
  <g id="Icon_ionic-ios-chatboxes" data-name="Icon ionic-ios-chatboxes" transform="translate(-1.875 -1.875)">
    <path id="Path_112" data-name="Path 112" d="M16.637,6.656H7.98A1.49,1.49,0,0,0,6.492,8.145v6.027A1.487,1.487,0,0,0,7.98,15.656h4.953a.427.427,0,0,1,.3.125l2.461,2.27c.137.133.363.078.363-.113V15.961c0-.234.148-.309.383-.309h.039a1.626,1.626,0,0,0,1.645-1.484V8.145A1.482,1.482,0,0,0,16.637,6.656Z" fill="#4d5259"/>
    <path id="Path_113" data-name="Path 113" d="M6.813,5.7h6.93V3.148a1.274,1.274,0,0,0-1.273-1.273H3.148A1.274,1.274,0,0,0,1.875,3.148V9.6a1.274,1.274,0,0,0,1.273,1.273H5.535v-3.9A1.28,1.28,0,0,1,6.813,5.7Z" fill="#4d5259"/>
  </g>
</svg>