<?xml version="1.0" encoding="utf-8"?>
<!-- Generator: Adobe Illustrator 24.0.0, SVG Export Plug-In . SVG Version: 6.00 Build 0)  -->
<svg version="1.1" id="Layer_1" xmlns="http://www.w3.org/2000/svg" xmlns:xlink="http://www.w3.org/1999/xlink" x="0px" y="0px"
	 viewBox="0 0 80 80" style="enable-background:new 0 0 80 80;" xml:space="preserve">
<style type="text/css">
	.st0{opacity:0.2;}
	.st1{fill:#094B88;}
	.st2{opacity:0.2;fill:#093D63;enable-background:new    ;}
	.st3{opacity:0.2;fill:#F7E7A1;enable-background:new    ;}
	.st4{opacity:0.2;fill:#EAD786;enable-background:new    ;}
	.st5{opacity:0.2;fill:#07A8F6;enable-background:new    ;}
	.st6{opacity:0.2;fill:#1093C6;enable-background:new    ;}
	.st7{fill:url(#SVGID_1_);}
</style>
<g>
	<g class="st0">
		<path id="SVGCleanerId_0_4_" class="st1" d="M16.6,57.2c-0.3-0.1-0.6-0.1-0.9-0.2c-2.2-0.7-3.4-2.5-3.8-4.8c0-0.2-0.4-0.2-0.4,0
			c-0.5,2.6-2,4.5-4.7,5c-0.2,0-0.2,0.3,0,0.4c2.7,0.5,4.2,2.4,4.7,5c0,0.2,0.2,0.2,0.2,0.2c0.1,0,0.2-0.1,0.2-0.2
			c0.2-1.4,0.9-3.2,2.7-4.3c0.6-0.3,1.3-0.6,2-0.7c0.1,0,0.2-0.1,0.2-0.2C16.7,57.3,16.7,57.2,16.6,57.2z"/>
	</g>
	<path class="st2" d="M8.8,56.4c-0.6,0.4-1.3,0.6-2.1,0.8c-0.2,0-0.2,0.3,0,0.4c2.7,0.5,4.2,2.4,4.7,5c0,0.2,0.2,0.2,0.2,0.2
		c0.1,0,0.2-0.1,0.2-0.2c0.1-0.8,0.4-1.6,0.9-2.5C12.1,58.1,10.7,56.9,8.8,56.4z"/>
	<path class="st3" d="M7.9,62.3c-0.8-0.3-1.3-0.8-1.5-1.6c0-0.1-0.2-0.1-0.2-0.1c-0.1,0-0.2,0.1-0.2,0.1c-0.2,0.8-0.7,1.3-1.5,1.6
		c-0.2,0.1-0.2,0.3,0,0.4c0.8,0.3,1.3,0.8,1.5,1.6c0,0.1,0.2,0.1,0.2,0.1c0.1,0,0.2-0.1,0.2-0.1c0.2-0.6,0.5-1,0.9-1.3l0,0
		c0.5-0.3,0.7-0.2,0.7-0.5C8.1,62.4,8,62.3,7.9,62.3z"/>
	<path class="st4" d="M5.3,61.8C5.3,61.8,5.3,61.8,5.3,61.8c-0.2,0.2-0.5,0.3-0.8,0.4c-0.2,0.1-0.2,0.3,0,0.4
		c0.8,0.3,1.3,0.8,1.5,1.6c0,0.1,0.2,0.1,0.2,0.1c0.3,0,0.1-0.3,0.6-1C6.6,62.7,6.1,62.1,5.3,61.8z"/>
	<path class="st5" d="M5.3,53.3C4.5,53,4,52.5,3.8,51.7c0-0.1-0.2-0.1-0.2-0.1c-0.1,0-0.2,0.1-0.2,0.1c-0.2,0.8-0.7,1.3-1.5,1.6
		c-0.2,0.1-0.2,0.3,0,0.4c0.8,0.3,1.3,0.8,1.5,1.6c0,0.1,0.2,0.1,0.2,0.1c0.1,0,0.2-0.1,0.2-0.1c0.3-1,0.9-1.3,0.9-1.3
		c0.5-0.3,0.7-0.2,0.7-0.5C5.4,53.4,5.4,53.3,5.3,53.3z"/>
	<path class="st6" d="M2.6,52.9c-0.5,0.4-0.8,0.3-0.8,0.6c0,0.1,0.1,0.2,0.1,0.2c0.8,0.3,1.3,0.8,1.5,1.6c0,0.1,0.2,0.1,0.2,0.1
		c0.3,0,0.1-0.3,0.6-0.9C3.7,53.2,2.7,53,2.6,52.9z"/>
</g>
<g>
	<g class="st0">
		<path id="SVGCleanerId_0_3_" class="st1" d="M46.9,8.6c-0.3-0.1-0.6-0.1-0.8-0.2c-1.9-0.6-2.9-2.2-3.3-4.2c0-0.2-0.3-0.2-0.3,0
			c-0.4,2.3-1.8,3.9-4.1,4.4c-0.2,0-0.2,0.3,0,0.3c2.3,0.4,3.7,2.1,4.1,4.3c0,0.1,0.2,0.1,0.2,0.1c0.1,0,0.2-0.1,0.2-0.1
			c0.2-1.2,0.8-2.8,2.4-3.7c0.5-0.3,1.1-0.5,1.7-0.6C47,8.9,47,8.8,47,8.8S47,8.6,46.9,8.6z"/>
	</g>
	<path class="st2" d="M40.1,7.9c-0.5,0.3-1.2,0.5-1.8,0.7c-0.2,0-0.2,0.3,0,0.3c2.3,0.4,3.7,2.1,4.1,4.3c0,0.1,0.2,0.1,0.2,0.1
		c0.1,0,0.2-0.1,0.2-0.1c0.1-0.7,0.3-1.4,0.8-2.2C43,9.4,41.8,8.3,40.1,7.9z"/>
	<path class="st3" d="M39.4,13c-0.7-0.2-1.1-0.7-1.3-1.4c0-0.1-0.2-0.1-0.2-0.1c-0.1,0-0.1,0-0.2,0.1c-0.2,0.7-0.6,1.2-1.3,1.4
		c-0.2,0.1-0.2,0.3,0,0.3c0.7,0.2,1.1,0.7,1.3,1.4c0,0.1,0.2,0.1,0.2,0.1c0.1,0,0.1,0,0.2-0.1c0.2-0.5,0.4-0.9,0.8-1.2l0,0
		c0.4-0.3,0.6-0.2,0.6-0.4C39.5,13.1,39.4,13.1,39.4,13z"/>
	<path class="st4" d="M37.1,12.7C37.1,12.7,37.1,12.7,37.1,12.7c-0.2,0.2-0.4,0.3-0.7,0.4c-0.2,0.1-0.2,0.3,0,0.3
		c0.7,0.2,1.1,0.7,1.3,1.4c0,0.1,0.2,0.1,0.2,0.1c0.2,0,0.1-0.3,0.5-0.8C38.2,13.4,37.8,12.9,37.1,12.7z"/>
	<path class="st5" d="M37.1,5.2C36.4,5,36,4.5,35.8,3.8c0-0.1-0.2-0.1-0.2-0.1c-0.1,0-0.1,0-0.2,0.1c-0.2,0.7-0.6,1.2-1.3,1.4
		c-0.2,0.1-0.2,0.3,0,0.3c0.7,0.2,1.1,0.7,1.3,1.4c0,0.1,0.2,0.1,0.2,0.1c0.1,0,0.1,0,0.2-0.1c0.3-0.8,0.8-1.1,0.8-1.2
		c0.4-0.3,0.6-0.2,0.6-0.4C37.2,5.3,37.2,5.2,37.1,5.2z"/>
	<path class="st6" d="M34.7,4.9C34.3,5.3,34,5.2,34,5.4c0,0.1,0,0.1,0.1,0.2c0.7,0.2,1.1,0.7,1.3,1.4c0,0.1,0.2,0.1,0.2,0.1
		c0.2,0,0.1-0.3,0.5-0.8C35.7,5.1,34.8,4.9,34.7,4.9z"/>
</g>
<g>
	<g class="st0">
		<path id="SVGCleanerId_0_2_" class="st1" d="M73.2,68.8c-0.3-0.1-0.6-0.1-0.9-0.2c-2.1-0.7-3.2-2.4-3.6-4.6c0-0.2-0.3-0.2-0.4,0
			c-0.4,2.5-1.9,4.3-4.5,4.8c-0.2,0-0.2,0.3,0,0.4c2.6,0.5,4.1,2.3,4.5,4.8c0,0.2,0.2,0.2,0.2,0.2c0.1,0,0.2-0.1,0.2-0.2
			c0.2-1.3,0.9-3.1,2.6-4.1c0.6-0.3,1.2-0.6,1.9-0.7c0.1,0,0.2-0.1,0.2-0.2C73.4,68.9,73.3,68.8,73.2,68.8z"/>
	</g>
	<path class="st2" d="M65.8,68c-0.6,0.4-1.3,0.6-2,0.7c-0.2,0-0.2,0.3,0,0.4c2.6,0.5,4.1,2.3,4.5,4.8c0,0.2,0.2,0.2,0.2,0.2
		c0.1,0,0.2-0.1,0.2-0.2c0.1-0.7,0.4-1.6,0.9-2.4C68.9,69.7,67.6,68.5,65.8,68z"/>
	<path class="st3" d="M64.9,73.7c-0.7-0.2-1.2-0.8-1.5-1.5c0-0.1-0.2-0.1-0.2-0.1c-0.1,0-0.2,0.1-0.2,0.1c-0.2,0.7-0.7,1.3-1.5,1.5
		c-0.2,0.1-0.2,0.3,0,0.4c0.7,0.3,1.2,0.8,1.5,1.5c0,0.1,0.2,0.1,0.2,0.1c0.1,0,0.2-0.1,0.2-0.1c0.2-0.6,0.5-1,0.9-1.3l0,0
		c0.5-0.3,0.7-0.2,0.7-0.5C65.1,73.8,65,73.7,64.9,73.7z"/>
	<path class="st4" d="M62.4,73.3C62.4,73.3,62.4,73.3,62.4,73.3c-0.2,0.2-0.5,0.3-0.8,0.4c-0.2,0.1-0.2,0.3,0,0.4
		c0.7,0.3,1.2,0.8,1.5,1.5c0,0.1,0.2,0.1,0.2,0.1c0.3,0,0.1-0.3,0.6-0.9C63.6,74.1,63.1,73.5,62.4,73.3z"/>
	<path class="st5" d="M62.4,65.1c-0.7-0.2-1.2-0.8-1.5-1.5c0-0.1-0.2-0.1-0.2-0.1c-0.1,0-0.2,0.1-0.2,0.1c-0.2,0.7-0.7,1.3-1.5,1.5
		c-0.2,0.1-0.2,0.3,0,0.4c0.7,0.3,1.2,0.8,1.5,1.5c0,0.1,0.2,0.1,0.2,0.1c0.1,0,0.2-0.1,0.2-0.1c0.3-0.9,0.9-1.2,0.9-1.3
		c0.5-0.3,0.7-0.2,0.7-0.5C62.5,65.2,62.5,65.1,62.4,65.1z"/>
	<path class="st6" d="M59.8,64.7C59.3,65.1,59,65,59,65.2c0,0.1,0.1,0.2,0.1,0.2c0.7,0.3,1.2,0.8,1.5,1.5c0,0.1,0.2,0.1,0.2,0.1
		c0.3,0,0.1-0.3,0.5-0.9C60.9,65,59.9,64.8,59.8,64.7z"/>
</g>
<linearGradient id="SVGID_1_" gradientUnits="userSpaceOnUse" x1="41.678" y1="68.75" x2="41.678" y2="14.961" gradientTransform="matrix(1 0 0 -1 0 82)">
	<stop  offset="0" style="stop-color:#3A7AFE"/>
	<stop  offset="1" style="stop-color:#FF7B88"/>
</linearGradient>
<path class="st7" d="M51.6,38.7c-7.8,0-14.2,6.4-14.2,14.2S43.7,67,51.6,67s14.2-6.4,14.2-14.2S59.4,38.7,51.6,38.7z M51.6,62.8
	c-5.5,0-10-4.5-10-10s4.5-10,10-10c5.5,0,10,4.5,10,10C61.5,58.4,57.1,62.8,51.6,62.8z M56.1,51.3l-1.6,1.6l1.6,1.6
	c0.8,0.8,0.8,2.2,0,3c-0.4,0.4-0.9,0.6-1.5,0.6s-1.1-0.2-1.5-0.6l-1.6-1.6L50,57.4C49.6,57.8,49,58,48.5,58c-0.5,0-1.1-0.2-1.5-0.6
	c-0.8-0.8-0.8-2.2,0-3l1.6-1.6L47,51.3c-0.8-0.8-0.8-2.1,0-3c0.8-0.8,2.2-0.8,3,0l1.6,1.6l1.6-1.6c0.8-0.8,2.2-0.8,3,0
	C56.9,49.1,56.9,50.5,56.1,51.3z M36.5,64.9c0,1.2-0.9,2.1-2.1,2.1H26c-4.6,0-8.4-3.8-8.4-8.4V28.5c0-2.2,0.8-4.2,2.4-5.8l6.9-7
	c1.5-1.5,3.7-2.4,5.8-2.4h19.1c4.6,0,8.4,3.8,8.4,8.4v11.1c0,1.2-0.9,2.1-2.1,2.1s-2.1-0.9-2.1-2.1V21.7c0-2.3-1.9-4.2-4.2-4.2H32.8
	c-1.1,0-2.1,0.4-2.9,1.2l-6.9,7c-0.3,0.3-0.6,0.7-0.8,1.2H28c1.7,0,3.2-1.4,3.2-3.2c0-1.2,0.9-2.1,2.1-2.1s2.1,0.9,2.1,2.1
	c0,4.1-3.3,7.4-7.4,7.4h-6.2v27.6c0,2.3,1.9,4.2,4.2,4.2h8.4C35.6,62.8,36.5,63.8,36.5,64.9z"/>
</svg>
