<svg xmlns="http://www.w3.org/2000/svg" width="18.14" height="20.004" viewBox="0 0 18.14 20.004">
  <path id="Icon_simple-email" data-name="Icon simple-email" d="M19.055,9.233a10.316,10.316,0,0,1-.333,2.238,6.475,6.475,0,0,1-.87,1.965,4.591,4.591,0,0,1-1.475,1.4,4.163,4.163,0,0,1-2.154.531,3.122,3.122,0,0,1-1.557-.381A2.667,2.667,0,0,1,11.614,13.9,3.336,3.336,0,0,1,8.791,15.32a2.87,2.87,0,0,1-2.464-1.325,4.337,4.337,0,0,1-.613-1.535,6.62,6.62,0,0,1-.08-2,9.3,9.3,0,0,1,.61-2.453A6.666,6.666,0,0,1,7.372,6.126a4.77,4.77,0,0,1,1.55-1.2,4.325,4.325,0,0,1,1.885-.419,5.861,5.861,0,0,1,1.128.1,4.615,4.615,0,0,1,.875.262,4.732,4.732,0,0,1,.725.383c.221.142.444.29.665.44l-.547,6.3a2.094,2.094,0,0,0,.016.738,1.032,1.032,0,0,0,.225.455.81.81,0,0,0,.365.238,1.355,1.355,0,0,0,1.283-.253,2.733,2.733,0,0,0,.688-.875,5.635,5.635,0,0,0,.462-1.315,9.023,9.023,0,0,0,.2-1.637,10.465,10.465,0,0,0-.257-3.06A6.082,6.082,0,0,0,15.5,3.914a5.259,5.259,0,0,0-2.03-1.525,7.368,7.368,0,0,0-2.957-.541,6.53,6.53,0,0,0-2.925.638A6.711,6.711,0,0,0,5.369,4.253,8.482,8.482,0,0,0,3.914,6.911,11.982,11.982,0,0,0,3.3,10.224a11.015,11.015,0,0,0,.313,3.38,6.1,6.1,0,0,0,1.235,2.422,5.154,5.154,0,0,0,2.093,1.455,8.026,8.026,0,0,0,2.887.483,9.89,9.89,0,0,0,1.9-.2c.312-.062.609-.138.891-.22a6.708,6.708,0,0,0,.767-.275l.4,1.782a4.4,4.4,0,0,1-.859.425,8.267,8.267,0,0,1-1.015.294A9.9,9.9,0,0,1,9.785,20a11.118,11.118,0,0,1-3.865-.622A7.113,7.113,0,0,1,3.1,17.529,7.78,7.78,0,0,1,1.411,14.47a13.047,13.047,0,0,1-.472-4.246,12.95,12.95,0,0,1,.812-4.075A10.085,10.085,0,0,1,3.709,2.911,8.92,8.92,0,0,1,6.7.775,9.35,9.35,0,0,1,10.563,0,9.761,9.761,0,0,1,14.31.671a7.289,7.289,0,0,1,2.7,1.888,7.746,7.746,0,0,1,1.6,2.916,11.151,11.151,0,0,1,.435,3.757ZM8.32,10.458a4.252,4.252,0,0,0,.22,2.109,1.131,1.131,0,0,0,1.087.712A1.2,1.2,0,0,0,10,13.21a1.328,1.328,0,0,0,.429-.257,2.288,2.288,0,0,0,.435-.525,4.029,4.029,0,0,0,.4-.887l.427-4.895a2.554,2.554,0,0,0-.665-.088,2.3,2.3,0,0,0-1.106.254,2.19,2.19,0,0,0-.784.745,4.375,4.375,0,0,0-.52,1.225,10.392,10.392,0,0,0-.3,1.675Z" transform="translate(-0.928)" fill="#4d5259"/>
</svg>