<svg xmlns="http://www.w3.org/2000/svg" width="18" height="15.425" viewBox="0 0 18 15.425" fill="#7E7E7E">
  <path id="Icon_ionic-md-eye-off" data-name="Icon ionic-md-eye-off" d="M10,5.246A4.08,4.08,0,0,1,14.1,9.307a3.907,3.907,0,0,1-.293,1.486l2.39,2.37A9.6,9.6,0,0,0,19,9.307,9.694,9.694,0,0,0,6.736,3.784L8.5,5.539A4.047,4.047,0,0,1,10,5.246ZM1.819,3.032,3.687,4.884l.378.374A9.557,9.557,0,0,0,1,9.307a9.708,9.708,0,0,0,12.585,5.407l.345.341,2.4,2.37,1.04-1.032L2.856,2ZM6.343,7.519,7.612,8.777a2.3,2.3,0,0,0-.064.526A2.442,2.442,0,0,0,10,11.737a2.309,2.309,0,0,0,.53-.064L11.8,12.93A4.072,4.072,0,0,1,5.909,9.3,4.012,4.012,0,0,1,6.343,7.519Zm3.527-.631,2.579,2.559.016-.129A2.442,2.442,0,0,0,10.01,6.885Z" transform="translate(-1 -2)" fill="#7e7e7e"/>
</svg>