<svg xmlns="http://www.w3.org/2000/svg" width="119.459" height="119.523" viewBox="0 0 119.459 119.523">
  <g id="call-center-agent" transform="translate(0.5 0.5)">
    <path id="Path_37400" data-name="Path 37400" d="M.136,45.815A10.267,10.267,0,0,1,9.962,35.57l-.033-4.9a1.76,1.76,0,0,1,.071-.5,1.763,1.763,0,0,1-.071-.494,29.682,29.682,0,1,1,59.363,0,1.76,1.76,0,0,1-.069.484,1.769,1.769,0,0,1,.069.477l.034,4.928a10.256,10.256,0,0,1-.509,20.5c-.065,0-.13-.006-.2-.007a29.6,29.6,0,0,1-2.2,6.171h45.45a6.732,6.732,0,0,1,6.724,6.724V87.506a1.766,1.766,0,1,1-3.531,0V68.959a3.2,3.2,0,0,0-3.193-3.193H46.751a3.2,3.2,0,0,0-3.193,3.193V103.75a1.766,1.766,0,1,1-3.531,0V89.789H38.278a6.838,6.838,0,0,1-6.83-6.83V79.884a24.155,24.155,0,0,0-21.254,23.95v9.178a1.958,1.958,0,0,0,1.956,1.956h8.929v-5.845a1.766,1.766,0,1,1,3.531,0v5.845H40.822a6.681,6.681,0,0,1-.8-3.169v-.987a1.766,1.766,0,1,1,3.531,0v.987a3.2,3.2,0,0,0,2.819,3.169h.373a1.755,1.755,0,0,1,.276.024h64.844a3.2,3.2,0,0,0,3.193-3.193V94.569a1.766,1.766,0,1,1,3.531,0V111.8a6.732,6.732,0,0,1-6.724,6.724H46.751c-.182,0-.363-.009-.542-.024H12.15a5.493,5.493,0,0,1-5.487-5.487v-9.178a27.7,27.7,0,0,1,22-27.07,29.471,29.471,0,0,1-3.131-1.474A8.33,8.33,0,0,1,9.887,73.679L6.865,72.095A6.048,6.048,0,0,1,3.7,65.807L5.412,54.776A10.261,10.261,0,0,1,.136,45.815ZM39.61,3.531a26.183,26.183,0,0,0-26.1,24.521A35.324,35.324,0,0,0,26.288,18.66L26.6,18.3a1.766,1.766,0,0,1,2.13-.428l2.114,1.059a92.366,92.366,0,0,0,29.766,9.062l5.132.654A26.181,26.181,0,0,0,39.61,3.531ZM75.541,45.815a6.732,6.732,0,0,0-6.191-6.7l.069,10.112a29.749,29.749,0,0,1-.187,3.3A6.733,6.733,0,0,0,75.541,45.815ZM38.278,86.258h1.749V79.713H34.98v3.246a3.3,3.3,0,0,0,3.3,3.3Zm1.459-10.881c.1,0,.193,0,.29,0V68.959a6.732,6.732,0,0,1,6.724-6.724H62.427a26.128,26.128,0,0,0,3.461-13l-.116-17.026L60.16,31.5a95.9,95.9,0,0,1-30.9-9.407l-.892-.447a38.868,38.868,0,0,1-14.9,10.244l.118,17.339a26.028,26.028,0,0,0,4.186,14.192c.073,0,.145-.005.217-.005a8.341,8.341,0,0,1,8.331,8.272c.03.016.061.03.09.047a26.116,26.116,0,0,0,13.326,3.645Zm-21.747,1.17a4.8,4.8,0,1,0-4.8-4.8A4.807,4.807,0,0,0,17.991,76.546Zm-10.8-10.2A2.517,2.517,0,0,0,8.5,68.967l1.407.737a8.365,8.365,0,0,1,4.277-5.371,29.488,29.488,0,0,1-3.35-8.322,1.762,1.762,0,0,1-.447.059A10.293,10.293,0,0,1,8.8,55.947Zm3.052-13.815a29.879,29.879,0,0,1-.183-3.3L9.986,39.1a6.723,6.723,0,0,0,.252,13.432Z" transform="translate(-0.136 0)" fill="#2e9edf" stroke="#fff" stroke-width="1"/>
    <path id="Path_37401" data-name="Path 37401" d="M273.328,208.666a1.766,1.766,0,0,0-1.766,1.766v2a1.766,1.766,0,0,0,3.531,0v-2A1.766,1.766,0,0,0,273.328,208.666Z" transform="translate(-243.688 -160.911)" fill="#2e9edf" stroke="#fff" stroke-width="1"/>
    <path id="Path_37402" data-name="Path 37402" d="M382.285,210.432a1.766,1.766,0,1,0-3.531,0v2a1.766,1.766,0,1,0,3.531,0Z" transform="translate(-325.644 -160.911)" fill="#2e9edf" stroke="#fff" stroke-width="1"/>
    <path id="Path_37403" data-name="Path 37403" d="M328.933,245.841a1.766,1.766,0,0,0-2.4.689,1.826,1.826,0,0,1-3.194,0,1.766,1.766,0,0,0-3.085,1.719,5.358,5.358,0,0,0,9.368-.012A1.766,1.766,0,0,0,328.933,245.841Z" transform="translate(-283.271 -189.165)" fill="#2e9edf" stroke="#fff" stroke-width="1"/>
    <path id="Path_37404" data-name="Path 37404" d="M258.158,171.164a7.988,7.988,0,0,0-6.912,2.922,1.766,1.766,0,1,0,2.74,2.228,4.463,4.463,0,0,1,3.86-1.632,1.766,1.766,0,1,0,.313-3.517Z" transform="translate(-229.906 -130.845)" fill="#2e9edf" stroke="#fff" stroke-width="1"/>
    <path id="Path_37405" data-name="Path 37405" d="M384.21,174.682a4.46,4.46,0,0,1,3.86,1.632,1.766,1.766,0,1,0,2.74-2.228,7.987,7.987,0,0,0-6.912-2.922,1.766,1.766,0,0,0,.312,3.517Z" transform="translate(-330.401 -130.845)" fill="#2e9edf" stroke="#fff" stroke-width="1"/>
    <path id="Path_37406" data-name="Path 37406" d="M114.788,344.481a12.293,12.293,0,1,1,12.293,12.293A12.306,12.306,0,0,1,114.788,344.481Zm21.054,0a8.761,8.761,0,1,0-8.761,8.761A8.771,8.771,0,0,0,135.842,344.481Z" transform="translate(-47.906 -253.984)" fill="#2e9edf" stroke="#fff" stroke-width="1"/>
    <path id="Path_37407" data-name="Path 37407" d="M155.288,369.862a1.766,1.766,0,0,0-2.544-2.449l-4.272,4.436a.113.113,0,0,1-.174-.014l-.961-1.391a1.766,1.766,0,0,0-2.9,2.008l.961,1.391a3.632,3.632,0,0,0,2.7,1.56q.149.012.3.012a3.629,3.629,0,0,0,2.622-1.117Z" transform="translate(-71.219 -280.502)" fill="#2e9edf" stroke="#fff" stroke-width="1"/>
  </g>
</svg> 