<svg xmlns="http://www.w3.org/2000/svg" width="16.25" height="16.25" viewBox="0 0 16.25 16.25">
  <path id="Icon_ionic-ios-help-buoy" data-name="Icon ionic-ios-help-buoy" d="M10,1.875A8.125,8.125,0,1,0,18.125,10,8.124,8.124,0,0,0,10,1.875ZM12.133,3.3a7.049,7.049,0,0,1,4.57,4.57L13.234,8.1A3.751,3.751,0,0,0,11.91,6.773ZM5.027,5.027A6.981,6.981,0,0,1,7.867,3.3L8.09,6.773A3.837,3.837,0,0,0,6.766,8.1l-3.473-.23A7.059,7.059,0,0,1,5.027,5.027ZM7.867,16.7a7.049,7.049,0,0,1-4.57-4.57l3.477-.223a3.782,3.782,0,0,0,1.32,1.32ZM10,12.656A2.656,2.656,0,1,1,12.656,10,2.659,2.659,0,0,1,10,12.656Zm4.973,2.316a7.007,7.007,0,0,1-2.84,1.73L11.9,13.23a3.763,3.763,0,0,0,1.332-1.336l3.469.234A7,7,0,0,1,14.973,14.973Z" transform="translate(-1.875 -1.875)" fill="#fff"/>
</svg>