<svg xmlns="http://www.w3.org/2000/svg" width="20" height="16.25" viewBox="0 0 20 16.25">
  <path id="Icon_awesome-list" data-name="Icon awesome-list" d="M3.125,14.375H.625A.625.625,0,0,0,0,15v2.5a.625.625,0,0,0,.625.625h2.5A.625.625,0,0,0,3.75,17.5V15A.625.625,0,0,0,3.125,14.375Zm0-12.5H.625A.625.625,0,0,0,0,2.5V5a.625.625,0,0,0,.625.625h2.5A.625.625,0,0,0,3.75,5V2.5A.625.625,0,0,0,3.125,1.875Zm0,6.25H.625A.625.625,0,0,0,0,8.75v2.5a.625.625,0,0,0,.625.625h2.5a.625.625,0,0,0,.625-.625V8.75A.625.625,0,0,0,3.125,8.125ZM19.375,15H6.875a.625.625,0,0,0-.625.625v1.25a.625.625,0,0,0,.625.625h12.5A.625.625,0,0,0,20,16.875v-1.25A.625.625,0,0,0,19.375,15Zm0-12.5H6.875a.625.625,0,0,0-.625.625v1.25A.625.625,0,0,0,6.875,5h12.5A.625.625,0,0,0,20,4.375V3.125A.625.625,0,0,0,19.375,2.5Zm0,6.25H6.875a.625.625,0,0,0-.625.625v1.25a.625.625,0,0,0,.625.625h12.5A.625.625,0,0,0,20,10.625V9.375A.625.625,0,0,0,19.375,8.75Z" transform="translate(0 -1.875)" fill="#747474"/>
</svg>