<svg xmlns="http://www.w3.org/2000/svg" width="16.667" height="13.333" viewBox="0 0 16.667 13.333">
  <path id="Icon_material-fiber-new" data-name="Icon material-fiber-new" d="M16.667,3.333H3.333A1.654,1.654,0,0,0,1.675,5L1.667,15a1.661,1.661,0,0,0,1.667,1.667H16.667A1.661,1.661,0,0,0,18.333,15V5a1.661,1.661,0,0,0-1.667-1.667ZM7.083,12.5h-1L3.958,9.583V12.5H2.917v-5H3.958l2.083,2.917V7.5H7.083ZM11.25,8.55H9.167v.933H11.25v1.05H9.167v.925H11.25V12.5H7.917v-5H11.25Zm5.833,3.117a.836.836,0,0,1-.833.833H12.917a.836.836,0,0,1-.833-.833V7.5h1.042v3.758h.942V8.325h1.042V11.25h.933V7.5h1.042v4.167Z" transform="translate(-1.667 -3.333)" fill="#919191"/>
</svg>