<svg xmlns="http://www.w3.org/2000/svg" width="20" height="15" viewBox="0 0 20 15">
  <path id="Icon_awesome-chart-bar" data-name="Icon awesome-chart-bar" d="M13,12.5h1.5A.538.538,0,0,0,15,12V6.75a.538.538,0,0,0-.5-.5H13a.538.538,0,0,0-.5.5V12A.538.538,0,0,0,13,12.5Zm3.75,0h1.5a.538.538,0,0,0,.5-.5V3a.538.538,0,0,0-.5-.5h-1.5a.538.538,0,0,0-.5.5v9A.538.538,0,0,0,16.75,12.5ZM5.5,12.5H7a.538.538,0,0,0,.5-.5V9.25a.538.538,0,0,0-.5-.5H5.5a.538.538,0,0,0-.5.5V12A.538.538,0,0,0,5.5,12.5Zm3.75,0h1.5a.538.538,0,0,0,.5-.5V4.25a.538.538,0,0,0-.5-.5H9.25a.538.538,0,0,0-.5.5V12A.538.538,0,0,0,9.25,12.5ZM19.375,15H2.5V3.125A.625.625,0,0,0,1.875,2.5H.625A.625.625,0,0,0,0,3.125V16.25A1.25,1.25,0,0,0,1.25,17.5H19.375A.625.625,0,0,0,20,16.875v-1.25A.625.625,0,0,0,19.375,15Z" transform="translate(0 -2.5)" fill="#4d5259"/>
</svg>