<?xml version="1.0" encoding="utf-8"?>
<!-- Generator: Adobe Illustrator 24.0.0, SVG Export Plug-In . SVG Version: 6.00 Build 0)  -->
<svg version="1.1" id="Layer_1" xmlns="http://www.w3.org/2000/svg" xmlns:xlink="http://www.w3.org/1999/xlink" x="0px" y="0px"
	 viewBox="0 0 17.5 20" style="enable-background:new 0 0 17.5 20;" xml:space="preserve">
<style type="text/css">
	.st0{fill:none;stroke:#4D5259;stroke-linecap:round;stroke-linejoin:round;stroke-miterlimit:10;}
</style>
<path id="Icon_awesome-share-alt_1_" class="st0" d="M7.5,6.6L6.3,7.3C4.8,6.1,2.7,6.4,1.5,7.9s-0.9,3.6,0.5,4.8c1.2,1,3,1,4.3,0
	L10,15c-0.4,1.8,0.8,3.7,2.6,4.1s3.7-0.8,4.1-2.6c0.4-1.8-0.8-3.7-2.6-4.1c-0.2-0.1-0.5-0.1-0.7-0.1c-0.8,0-1.5,0.3-2.1,0.7
	l-3.7-2.3c0.1-0.5,0.1-1,0-1.5L11.2,7c1.5,1.2,3.6,0.9,4.8-0.6c1.2-1.5,0.9-3.6-0.6-4.8s-3.6-0.9-4.8,0.6C10,3,9.7,4,10,5L8.6,5.9"
	/>
</svg>
