<svg xmlns="http://www.w3.org/2000/svg" width="19.999" height="19.996" viewBox="0 0 19.999 19.996">
  <path id="Icon_awesome-skiing" data-name="Icon awesome-skiing" d="M16.875,3.75A1.875,1.875,0,1,0,15,1.875,1.875,1.875,0,0,0,16.875,3.75Zm2.852,13.91a.934.934,0,0,0-1.324,0,1.589,1.589,0,0,1-1.762.34l-5.3-2.742,1.922-2.883a1.875,1.875,0,0,0-.234-2.367L11.445,8.426,7.266,6.352a2.492,2.492,0,0,0,.691,2.125l2.934,2.938L9.1,14.1l-7.73-4A.936.936,0,0,0,.508,11.77l15.309,7.91A3.44,3.44,0,0,0,17.266,20a3.478,3.478,0,0,0,2.461-1.016A.936.936,0,0,0,19.727,17.66ZM4.688,3.578l-.449.879A1.529,1.529,0,0,0,5.91,4.27l1.844.914s0,.008-.008.012l4.473,2.219,1.266-.508.25.746a1.859,1.859,0,0,0,.938,1.082l2.27,1.133a1.249,1.249,0,0,0,1.117-2.234l-2.035-1.02-.668-2a2.51,2.51,0,0,0-3.3-1.531L8.883,4.352,6.441,3.141A1.514,1.514,0,0,0,5.625,1.75L5.191,2.6H5.184L3.84,2.324a.2.2,0,0,0-.2.066.2.2,0,0,0,.02.289Z" transform="translate(0)" fill="#4d5259"/>
</svg>