<svg xmlns="http://www.w3.org/2000/svg" width="16.246" height="16.25" viewBox="0 0 16.246 16.25">
  <g id="Icon_ionic-ios-cube" data-name="Icon ionic-ios-cube" transform="translate(-1.875 -1.875)">
    <path id="Path_109" data-name="Path 109" d="M17.219,5.059l-7-3.137a.543.543,0,0,0-.441,0l-7,3.137a.328.328,0,0,0-.016.578l6.98,3.676a.532.532,0,0,0,.508,0l6.98-3.676A.328.328,0,0,0,17.219,5.059Z" fill="#4d5259"/>
    <path id="Path_110" data-name="Path 110" d="M10.945,18.082l7.035-3.723a.315.315,0,0,0,.141-.266V6.871a.291.291,0,0,0-.418-.277l-7.035,3.625a.308.308,0,0,0-.164.277v7.316A.3.3,0,0,0,10.945,18.082Z" fill="#4d5259"/>
    <path id="Path_111" data-name="Path 111" d="M1.875,6.871V14.09a.315.315,0,0,0,.141.266l7.035,3.723a.288.288,0,0,0,.438-.266V10.5a.308.308,0,0,0-.164-.277L2.293,6.594A.292.292,0,0,0,1.875,6.871Z" fill="#4d5259"/>
  </g>
</svg>