<svg xmlns="http://www.w3.org/2000/svg" width="20" height="17.5" viewBox="0 0 20 17.5">
  <path id="Icon_awesome-toolbox" data-name="Icon awesome-toolbox" d="M19.634,8.384,17.866,6.616a1.25,1.25,0,0,0-.884-.366H15V3.125A1.875,1.875,0,0,0,13.125,1.25H6.875A1.875,1.875,0,0,0,5,3.125V6.25H3.018a1.251,1.251,0,0,0-.884.366L.366,8.384A1.25,1.25,0,0,0,0,9.268V12.5H5v-.625a.625.625,0,0,1,.625-.625h1.25a.625.625,0,0,1,.625.625V12.5h5v-.625a.625.625,0,0,1,.625-.625h1.25a.625.625,0,0,1,.625.625V12.5h5V9.268A1.25,1.25,0,0,0,19.634,8.384ZM12.5,6.25h-5V3.75h5ZM15,14.375a.625.625,0,0,1-.625.625h-1.25a.625.625,0,0,1-.625-.625V13.75h-5v.625A.625.625,0,0,1,6.875,15H5.625A.625.625,0,0,1,5,14.375V13.75H0V17.5a1.25,1.25,0,0,0,1.25,1.25h17.5A1.25,1.25,0,0,0,20,17.5V13.75H15Z" transform="translate(0 -1.25)" fill="#4d5259"/>
</svg>