<svg xmlns="http://www.w3.org/2000/svg" width="115.125" height="128.205" viewBox="0 0 115.125 128.205">
  <g id="Group_3131" data-name="Group 3131" transform="translate(-844 -618.333)">
    <g id="lounge" transform="translate(846 661.194)">
      <path id="Path_37394" data-name="Path 37394" d="M105.008,81.323a17.216,17.216,0,0,0-8.084-3.735,24.264,24.264,0,0,0-24-21.235H38.2a24.264,24.264,0,0,0-24,21.238,17.24,17.24,0,0,0-8.083,3.732A17.347,17.347,0,0,0,0,94.552a17.171,17.171,0,0,0,4.707,11.819,9.49,9.49,0,0,1,2.238,6.572v16.336a3.471,3.471,0,0,0,3.473,3.473H20.836V139.7h6.945v-6.945H83.344V139.7h6.945v-6.945h10.418a3.471,3.471,0,0,0,3.473-3.473V112.943a9.49,9.49,0,0,1,2.238-6.572,17.171,17.171,0,0,0,4.707-11.819A17.345,17.345,0,0,0,105.008,81.323ZM38.2,63.3H72.926A17.36,17.36,0,0,1,89.986,77.657C82.193,79.4,76.4,86.777,76.4,95.3v9.675H34.727V95.3c0-8.516-5.792-15.895-13.587-17.637A17.36,17.36,0,0,1,38.2,63.3Zm63.166,38.312a16.356,16.356,0,0,0-4.131,11.334v12.863H13.891V112.943A16.356,16.356,0,0,0,9.76,101.61a10.262,10.262,0,0,1-2.815-7.057A10.428,10.428,0,0,1,19.137,84.28c4.927.8,8.644,5.538,8.644,11.015v16.621H83.344V95.3c0-5.477,3.717-10.215,8.641-11.015a10.381,10.381,0,0,1,9.38,17.33Z" transform="translate(0 -56.353)" fill="#2e9edf" stroke="#fff" stroke-width="4"/>
      <path id="path-1_71_" d="M372.224,198.252a3.473,3.473,0,1,1-4.911,0,3.473,3.473,0,0,1,4.911,0" transform="translate(-272.813 -160.795)" fill="#2e9edf" stroke="#fff" stroke-width="4"/>
      <path id="path-1_70_" d="M62.282,198.252a3.473,3.473,0,1,1-4.911,0,3.473,3.473,0,0,1,4.911,0" transform="translate(-41.982 -160.795)" fill="#2e9edf" stroke="#fff" stroke-width="4"/>
    </g>
    <g id="waiting-room" transform="translate(914.208 618.833)">
      <g id="Group_3095" data-name="Group 3095" transform="translate(0)">
        <g id="Group_3094" data-name="Group 3094">
          <path id="Path_37395" data-name="Path 37395" d="M393.642,54.237h-5.785V44.6a1.928,1.928,0,1,0-3.857,0v11.57a1.929,1.929,0,0,0,1.928,1.928h7.713a1.928,1.928,0,0,0,0-3.857Z" transform="translate(-364.717 -34.954)" fill="#2e9edf" stroke="#fff" stroke-width="1"/>
          <path id="Path_37399" data-name="Path 37399" d="M298.546,0a21.212,21.212,0,1,0,21.211,21.212A21.234,21.234,0,0,0,298.546,0Zm0,38.566A17.355,17.355,0,1,1,315.9,21.212,17.376,17.376,0,0,1,298.546,38.566Z" transform="translate(-277.334)" fill="#2e9edf" stroke="#fff" stroke-width="1"/>
        </g>
      </g>
    </g>
  </g>
</svg>