<svg xmlns="http://www.w3.org/2000/svg" width="114.996" height="92.456" viewBox="0 0 114.996 92.456">
  <g id="coding" transform="translate(2.5 -49.97)">
    <g id="Group_3137" data-name="Group 3137" transform="translate(76.311 65.128)">
      <g id="Group_3136" data-name="Group 3136" transform="translate(0 0)">
        <path id="Path_37421" data-name="Path 37421" d="M387.76,139.605l-25.437-26.949a4.124,4.124,0,1,0-6,5.662l22.765,24.117-22.765,24.12a4.125,4.125,0,0,0,6,5.665l25.437-26.951A4.126,4.126,0,0,0,387.76,139.605Z" transform="translate(-355.199 -111.361)" fill="#2e9edf" stroke="#fff" stroke-width="5"/>
      </g>
    </g>
    <g id="Group_3139" data-name="Group 3139" transform="translate(0.001 65.128)">
      <g id="Group_3138" data-name="Group 3138" transform="translate(0 0)">
        <path id="Path_37422" data-name="Path 37422" d="M32.563,166.552,9.8,142.434l22.764-24.118a4.125,4.125,0,0,0-6-5.662L1.126,139.6a4.127,4.127,0,0,0,0,5.664l25.438,26.951a4.125,4.125,0,0,0,6-5.665Z" transform="translate(-0.001 -111.36)" fill="#2e9edf" stroke="#fff" stroke-width="5"/>
      </g>
    </g>
    <g id="Group_3141" data-name="Group 3141" transform="translate(44.823 52.478)">
      <g id="Group_3140" data-name="Group 3140" transform="translate(0 0)">
        <path id="Path_37423" data-name="Path 37423" d="M225.485,52.525a4.129,4.129,0,0,0-4.7,3.455l-12.1,79.2a4.126,4.126,0,0,0,3.455,4.7,4.249,4.249,0,0,0,.628.047,4.126,4.126,0,0,0,4.073-3.5l12.1-79.2A4.126,4.126,0,0,0,225.485,52.525Z" transform="translate(-208.636 -52.478)" fill="#2e9edf" stroke="#fff" stroke-width="5"/>
      </g>
    </g>
  </g>
</svg>