<svg width="1920" height="46" viewBox="0 0 1920 46" fill="none" xmlns="http://www.w3.org/2000/svg">
<mask id="mask0_187_186" style="mask-type:alpha" maskUnits="userSpaceOnUse" x="0" y="0" width="1920" height="46">
<rect width="1920" height="46" fill="#C4C4C4"/>
</mask>
<g mask="url(#mask0_187_186)">
<g clip-path="url(#clip0_187_186)">
<path d="M2399 0H959V180H2399V0Z" fill="#00793F"/>
<path d="M1049 0H959V90H1049V0Z" fill="#00793F"/>
<path d="M1004 0H959V45.0024H1004V0Z" fill="#008445"/>
<path d="M981.501 45.0024C993.928 45.0024 1004 34.9283 1004 22.5012C1004 10.0741 993.928 0 981.501 0C969.074 0 959 10.0741 959 22.5012C959 34.9283 969.074 45.0024 981.501 45.0024Z" fill="#007A40"/>
<path d="M1049 0H1004V45.0024H1049V0Z" fill="#007A40"/>
<path d="M1049 0H1004V45.0024H1049V0Z" fill="#00AF5A"/>
<path d="M1004 45.0024H959V90.0048H1004V45.0024Z" fill="#008344"/>
<path d="M981.501 90.0048C993.928 90.0048 1004 79.9306 1004 67.5036C1004 55.0765 993.928 45.0024 981.501 45.0024C969.074 45.0024 959 55.0765 959 67.5036C959 79.9306 969.074 90.0048 981.501 90.0048Z" fill="#00B35C"/>
<path d="M1049 45.0024H1004V90.0048H1049V45.0024Z" fill="#00743C"/>
<path d="M1049 45.0024H1004V90.0048H1049V45.0024Z" fill="#008846"/>
<path d="M1139.01 0H1049V90.0048H1139.01V0Z" fill="#008143"/>
<path d="M1139.01 0H1049V90.0048H1139.01V0Z" fill="#00A052"/>
<path d="M1229 0H1139V90H1229V0Z" fill="#00793F"/>
<path d="M1184 0H1139V45.0024H1184V0Z" fill="#00763D"/>
<path d="M1184 0V45.0024H1139L1184 0Z" fill="#007F42"/>
<path d="M1229 0H1184V45.0024H1229V0Z" fill="#00773E"/>
<path d="M1184 0L1229 45.0024H1184V0Z" fill="#00B25B"/>
<path d="M1184 45.0024H1139V90.0048H1184V45.0024Z" fill="#006635"/>
<path d="M1139 45.0024H1184V90.0048L1139 45.0024Z" fill="#006F3A"/>
<path d="M1229 45.0024H1184V90.0048H1229V45.0024Z" fill="#007A3F"/>
<path d="M1184 45.0024H1229L1184 90.0048V45.0024Z" fill="#00A856"/>
<path d="M1319 0H1229V90H1319V0Z" fill="#00793F"/>
<path d="M1274.01 0H1229V45.0024H1274.01V0Z" fill="#00A555"/>
<path d="M1229 0C1240.94 0 1252.39 4.74131 1260.83 13.1809C1269.27 21.6205 1274.01 33.067 1274.01 45.0024H1229" fill="#00773E"/>
<path d="M1319 0H1274V45.0024H1319V0Z" fill="#00733C"/>
<path d="M1274 45.0024C1274 33.067 1278.74 21.6205 1287.18 13.1809C1295.62 4.74131 1307.06 0 1319 0V45.0024" fill="#00783F"/>
<path d="M1274.01 45.0024H1229V90.0048H1274.01V45.0024Z" fill="#00753D"/>
<path d="M1229 90.0048C1240.94 90.0048 1252.39 85.2635 1260.83 76.8239C1269.27 68.3843 1274.01 56.9378 1274.01 45.0024H1229" fill="#007B40"/>
<path d="M1319 45.0024H1274V90.0048H1319V45.0024Z" fill="#006F3A"/>
<path d="M1274 45.0024C1274 56.9378 1278.74 68.3843 1287.18 76.8239C1295.62 85.2635 1307.06 90.0048 1319 90.0048V45.0024" fill="#008545"/>
<path d="M1409 0H1319V90H1409V0Z" fill="#00793F"/>
<path d="M1364 0H1319V45.0024H1364V0Z" fill="#00B25B"/>
<path d="M1364 0V45.0024H1319L1364 0Z" fill="#00713B"/>
<path d="M1409 0H1364V45.0024H1409V0Z" fill="#00954D"/>
<path d="M1364 0L1409 45.0024H1364V0Z" fill="#007F42"/>
<path d="M1364 45.0024H1319V90.0048H1364V45.0024Z" fill="#007E41"/>
<path d="M1319 45.0024H1364L1319 90.0048V45.0024Z" fill="#006A37"/>
<path d="M1409 45.0024H1364V90.0048H1409V45.0024Z" fill="#00763E"/>
<path d="M1364 45.0024H1409V90.0048L1364 45.0024Z" fill="#00763D"/>
<path d="M1499.01 0H1409V90.0048H1499.01V0Z" fill="#007B40"/>
<path d="M1409 0H1499.01L1409 90.0048V0Z" fill="#008042"/>
<path d="M1589 0H1499V90H1589V0Z" fill="#00793F"/>
<path d="M1544 0H1499V45.0024H1544V0Z" fill="#00914B"/>
<path d="M1499 45.0024C1499 33.067 1503.74 21.6205 1512.18 13.1809C1520.62 4.74131 1532.07 0 1544 0V11.2506C1535.05 11.2506 1526.47 14.8066 1520.14 21.1363C1513.81 27.466 1510.25 36.0509 1510.25 45.0024" fill="#00924C"/>
<path d="M1589 0H1544V45.0024H1589V0Z" fill="#00994F"/>
<path d="M1544 0C1555.94 0 1567.38 4.74131 1575.82 13.1809C1584.26 21.6205 1589 33.067 1589 45.0024H1577.75C1577.75 36.0509 1574.2 27.466 1567.87 21.1363C1561.54 14.8066 1552.95 11.2506 1544 11.2506" fill="#006C38"/>
<path d="M1544 45.0024H1499V90.0048H1544V45.0024Z" fill="#009A4F"/>
<path d="M1499 45.0024C1499 56.9378 1503.74 68.3843 1512.18 76.8239C1520.62 85.2635 1532.07 90.0048 1544 90.0048V78.7542C1535.05 78.7542 1526.47 75.1982 1520.14 68.8685C1513.81 62.5388 1510.25 53.9539 1510.25 45.0024" fill="#008A48"/>
<path d="M1589 45.0024H1544V90.0048H1589V45.0024Z" fill="#00984F"/>
<path d="M1544 90.0048C1555.94 90.0048 1567.38 85.2635 1575.82 76.8239C1584.26 68.3843 1589 56.9378 1589 45.0024H1577.75C1577.75 49.4347 1576.88 53.8237 1575.19 57.9186C1573.49 62.0136 1571 65.7344 1567.87 68.8685C1564.73 72.0026 1561.01 74.4888 1556.92 76.185C1552.82 77.8812 1548.43 78.7542 1544 78.7542" fill="#009F52"/>
<path d="M1679.01 0H1589V90.0048H1679.01V0Z" fill="#00B15B"/>
<path d="M1589 90.0048C1589 66.134 1598.49 43.241 1615.37 26.3618C1632.25 9.48262 1655.14 0 1679.01 0L1589 90.0048C1612.88 90.0048 1635.77 80.5222 1652.65 63.643C1669.53 46.7638 1679.01 23.8708 1679.01 0" fill="#006F3A"/>
<path d="M1769 0H1679V90.0048H1769V0Z" fill="#00743C"/>
<path d="M1679 0L1769 90.0048H1679V0Z" fill="#00793F"/>
<path d="M1859 0H1769V90H1859V0Z" fill="#00793F"/>
<path d="M1814.01 0H1769V45.0024H1814.01V0Z" fill="#00713B"/>
<path d="M1769 45.0024C1780.94 45.0024 1792.39 40.2611 1800.83 31.8215C1809.27 23.3819 1814.01 11.9354 1814.01 0H1769" fill="#006F3A"/>
<path d="M1859 0H1814V45.0024H1859V0Z" fill="#00924C"/>
<path d="M1814 0C1814 5.9098 1815.16 11.7617 1817.42 17.2217C1819.68 22.6816 1823 27.6426 1827.18 31.8215C1831.36 36.0004 1836.32 39.3152 1841.78 41.5768C1847.24 43.8384 1853.09 45.0024 1859 45.0024V0" fill="#006836"/>
<path d="M1814.01 45.0024H1769V90.0048H1814.01V45.0024Z" fill="#00AB58"/>
<path d="M1769 45.0024C1780.94 45.0024 1792.39 49.7437 1800.83 58.1833C1809.27 66.6229 1814.01 78.0694 1814.01 90.0048H1769" fill="#008F4A"/>
<path d="M1859 45.0024H1814V90.0048H1859V45.0024Z" fill="#00733C"/>
<path d="M1814 90.0048C1814 84.095 1815.16 78.243 1817.42 72.7831C1819.68 67.3232 1823 62.3621 1827.18 58.1833C1831.36 54.0044 1836.32 50.6896 1841.78 48.428C1847.24 46.1664 1853.09 45.0024 1859 45.0024V90.0048" fill="#00733C"/>
<path d="M1949 0H1859V90H1949V0Z" fill="#00793F"/>
<path d="M1904 0H1859V45.0024H1904V0Z" fill="#00743C"/>
<path d="M1859 45.0024C1870.94 45.0024 1882.38 40.2611 1890.82 31.8215C1899.26 23.3819 1904 11.9354 1904 0H1859" fill="#007B40"/>
<path d="M1949 0H1904V45.0024H1949V0Z" fill="#007C41"/>
<path d="M1904 0C1904 11.9354 1908.74 23.3819 1917.18 31.8215C1925.62 40.2611 1937.07 45.0024 1949 45.0024V0" fill="#008645"/>
<path d="M1904 45.0024H1859V90.0048H1904V45.0024Z" fill="#00984F"/>
<path d="M1859 45.0024C1870.94 45.0024 1882.38 49.7437 1890.82 58.1833C1899.26 66.6229 1904 78.0694 1904 90.0048H1859" fill="#00713B"/>
<path d="M1949 45.0024H1904V90.0048H1949V45.0024Z" fill="#006D38"/>
<path d="M1904 90.0048C1904 78.0694 1908.74 66.6229 1917.18 58.1833C1925.62 49.7437 1937.07 45.0024 1949 45.0024V90.0048" fill="#00753D"/>
</g>
<g clip-path="url(#clip1_187_186)">
<path d="M960 0H-480V180H960V0Z" fill="#00793F"/>
<path d="M60.0096 0H-29.9951V90.0048H60.0096V0Z" fill="#007B40"/>
<path d="M-29.9951 0H60.0096L-29.9951 90.0048V0Z" fill="#008042"/>
<path d="M150 0H60V90H150V0Z" fill="#00793F"/>
<path d="M105.002 0H60V45.0024H105.002V0Z" fill="#00914B"/>
<path d="M60 45.0024C60 33.067 64.7413 21.6205 73.1809 13.1809C81.6205 4.74131 93.067 0 105.002 0V11.2506C96.0508 11.2506 87.4659 14.8066 81.1362 21.1363C74.8066 27.466 71.2506 36.0509 71.2506 45.0024" fill="#00924C"/>
<path d="M150.005 0H105.002V45.0024H150.005V0Z" fill="#00994F"/>
<path d="M105.002 0C116.938 0 128.384 4.74131 136.824 13.1809C145.263 21.6205 150.005 33.067 150.005 45.0024H138.754C138.754 36.0509 135.198 27.466 128.869 21.1363C122.539 14.8066 113.954 11.2506 105.002 11.2506" fill="#006C38"/>
<path d="M105.002 45.0024H60V90.0048H105.002V45.0024Z" fill="#009A4F"/>
<path d="M60 45.0024C60 56.9378 64.7413 68.3843 73.1809 76.8239C81.6205 85.2635 93.067 90.0048 105.002 90.0048V78.7542C96.0508 78.7542 87.4659 75.1982 81.1362 68.8685C74.8066 62.5388 71.2506 53.9539 71.2506 45.0024" fill="#008A48"/>
<path d="M150.005 45.0024H105.002V90.0048H150.005V45.0024Z" fill="#00984F"/>
<path d="M105.002 90.0048C116.938 90.0048 128.384 85.2635 136.824 76.8239C145.263 68.3843 150.005 56.9378 150.005 45.0024H138.754C138.754 49.4347 137.881 53.8237 136.185 57.9186C134.489 62.0136 132.003 65.7344 128.869 68.8685C125.734 72.0026 122.014 74.4888 117.919 76.185C113.824 77.8812 109.435 78.7542 105.002 78.7542" fill="#009F52"/>
<path d="M240.01 0H150.005V90.0048H240.01V0Z" fill="#00B15B"/>
<path d="M150.005 90.0048C150.005 66.134 159.487 43.241 176.367 26.3618C193.246 9.48262 216.139 0 240.01 0L150.005 90.0048C173.876 90.0048 196.769 80.5222 213.648 63.643C230.527 46.7638 240.01 23.8708 240.01 0" fill="#006F3A"/>
<path d="M330.005 0H240V90.0048H330.005V0Z" fill="#00743C"/>
<path d="M240 0L330.005 90.0048H240V0Z" fill="#00793F"/>
<path d="M420 0H330V90H420V0Z" fill="#00793F"/>
<path d="M375.007 0H330.005V45.0024H375.007V0Z" fill="#00713B"/>
<path d="M330.005 45.0024C341.94 45.0024 353.387 40.2611 361.826 31.8215C370.266 23.3819 375.007 11.9354 375.007 0H330.005" fill="#006F3A"/>
<path d="M420 0H374.998V45.0024H420V0Z" fill="#00924C"/>
<path d="M374.998 0C374.998 5.9098 376.162 11.7617 378.423 17.2217C380.685 22.6816 384 27.6426 388.178 31.8215C392.357 36.0004 397.318 39.3152 402.778 41.5768C408.238 43.8384 414.09 45.0024 420 45.0024V0" fill="#006836"/>
<path d="M375.007 45.0024H330.005V90.0048H375.007V45.0024Z" fill="#00AB58"/>
<path d="M330.005 45.0024C341.94 45.0024 353.387 49.7437 361.826 58.1833C370.266 66.6229 375.007 78.0694 375.007 90.0048H330.005" fill="#008F4A"/>
<path d="M420 45.0024H374.998V90.0048H420V45.0024Z" fill="#00733C"/>
<path d="M374.998 90.0048C374.998 84.095 376.162 78.243 378.423 72.7831C380.685 67.3232 384 62.3621 388.178 58.1833C392.357 54.0044 397.318 50.6896 402.778 48.428C408.238 46.1664 414.09 45.0024 420 45.0024V90.0048" fill="#00733C"/>
<path d="M510 0H420V90H510V0Z" fill="#00793F"/>
<path d="M465.002 0H420V45.0024H465.002V0Z" fill="#00743C"/>
<path d="M420 45.0024C431.935 45.0024 443.382 40.2611 451.821 31.8215C460.261 23.3819 465.002 11.9354 465.002 0H420" fill="#007B40"/>
<path d="M510.005 0H465.002V45.0024H510.005V0Z" fill="#007C41"/>
<path d="M465.002 0C465.002 11.9354 469.744 23.3819 478.183 31.8215C486.623 40.2611 498.069 45.0024 510.005 45.0024V0" fill="#008645"/>
<path d="M465.002 45.0024H420V90.0048H465.002V45.0024Z" fill="#00984F"/>
<path d="M420 45.0024C431.935 45.0024 443.382 49.7437 451.821 58.1833C460.261 66.6229 465.002 78.0694 465.002 90.0048H420" fill="#00713B"/>
<path d="M510.005 45.0024H465.002V90.0048H510.005V45.0024Z" fill="#006D38"/>
<path d="M465.002 90.0048C465.002 78.0694 469.744 66.6229 478.183 58.1833C486.623 49.7437 498.069 45.0024 510.005 45.0024V90.0048" fill="#00753D"/>
<path d="M600.009 0H510.005V90.0048H600.009V0Z" fill="#006936"/>
<path d="M600.009 0H510.005V90.0048H600.009V0Z" fill="#00A957"/>
<path d="M690.005 0H600V90.0048H690.005V0Z" fill="#00763D"/>
<path d="M600 0C611.82 0 623.523 2.32804 634.443 6.85121C645.363 11.3744 655.285 18.0041 663.643 26.3618C672.001 34.7195 678.63 44.6416 683.154 55.5614C687.677 66.4813 690.005 78.1852 690.005 90.0048H600" fill="#006F3A"/>
<path d="M780 0H690V90H780V0Z" fill="#00793F"/>
<path d="M735.007 0H690.005V45.0024H735.007V0Z" fill="#00944D"/>
<path d="M735.007 0V45.0024H690.005L735.007 0Z" fill="#008D49"/>
<path d="M780 0H734.998V45.0024H780V0Z" fill="#00763D"/>
<path d="M734.998 0L780 45.0024H734.998V0Z" fill="#006937"/>
<path d="M735.007 45.0024H690.005V90.0048H735.007V45.0024Z" fill="#00AE59"/>
<path d="M690.005 45.0024H735.007L690.005 90.0048V45.0024Z" fill="#006D39"/>
<path d="M780 45.0024H734.998V90.0048H780V45.0024Z" fill="#00713B"/>
<path d="M734.998 45.0024H780V90.0048L734.998 45.0024Z" fill="#00A053"/>
<path d="M870 0H780V90H870V0Z" fill="#00793F"/>
<path d="M825.002 0H780V45.0024H825.002V0Z" fill="#008846"/>
<path d="M780 0C780 11.9354 784.741 23.3819 793.181 31.8215C801.62 40.2611 813.067 45.0024 825.002 45.0024V0" fill="#006F3A"/>
<path d="M870.005 0H825.002V45.0024H870.005V0Z" fill="#008D49"/>
<path d="M825.002 45.0024C836.938 45.0024 848.384 40.2611 856.824 31.8215C865.264 23.3819 870.005 11.9354 870.005 0H825.002" fill="#00713B"/>
<path d="M825.002 45.0024H780V90.0048H825.002V45.0024Z" fill="#00B35C"/>
<path d="M780 90.0048C780 78.0694 784.741 66.6229 793.181 58.1833C801.62 49.7437 813.067 45.0024 825.002 45.0024V90.0048" fill="#00954D"/>
<path d="M870.005 45.0024H825.002V90.0048H870.005V45.0024Z" fill="#008B48"/>
<path d="M825.002 45.0024C836.938 45.0024 848.384 49.7437 856.824 58.1833C865.264 66.6229 870.005 78.0694 870.005 90.0048H825.002" fill="#008F4A"/>
<path d="M960.01 0H870.005V90.0048H960.01V0Z" fill="#008344"/>
<path d="M870.005 0L960.01 90.0048H870.005V0Z" fill="#008C49"/>
</g>
</g>
<defs>
<clipPath id="clip0_187_186">
<rect width="1440" height="180" fill="white" transform="translate(959)"/>
</clipPath>
<clipPath id="clip1_187_186">
<rect width="1440" height="180" fill="white" transform="translate(-480)"/>
</clipPath>
</defs>
</svg>
