<svg width="2895" height="91" viewBox="0 0 2895 91" fill="none" xmlns="http://www.w3.org/2000/svg">
<mask id="mask0_121_339" style="mask-type:alpha" maskUnits="userSpaceOnUse" x="0" y="0" width="2895" height="91">
<path d="M0 0H2895V91H0V0Z" fill="#E9F2EE"/>
</mask>
<g mask="url(#mask0_121_339)">
<g clip-path="url(#clip0_121_339)">
<path d="M2879 1H1439V181H2879V1Z" fill="#00793F"/>
<path d="M1529 1H1439V91H1529V1Z" fill="#00793F"/>
<path d="M1484 1H1439V46.0024H1484V1Z" fill="#008445"/>
<path d="M1461.5 46.0024C1473.93 46.0024 1484 35.9283 1484 23.5012C1484 11.0741 1473.93 1 1461.5 1C1449.07 1 1439 11.0741 1439 23.5012C1439 35.9283 1449.07 46.0024 1461.5 46.0024Z" fill="#007A40"/>
<path d="M1529 1H1484V46.0024H1529V1Z" fill="#007A40"/>
<path d="M1529 1H1484V46.0024H1529V1Z" fill="#00AF5A"/>
<path d="M1484 46.0024H1439V91.0048H1484V46.0024Z" fill="#008344"/>
<path d="M1461.5 91.0048C1473.93 91.0048 1484 80.9307 1484 68.5036C1484 56.0766 1473.93 46.0024 1461.5 46.0024C1449.07 46.0024 1439 56.0766 1439 68.5036C1439 80.9307 1449.07 91.0048 1461.5 91.0048Z" fill="#00B35C"/>
<path d="M1529 46.0024H1484V91.0048H1529V46.0024Z" fill="#00743C"/>
<path d="M1529 46.0024H1484V91.0048H1529V46.0024Z" fill="#008846"/>
<path d="M1619.01 1H1529V91.0048H1619.01V1Z" fill="#008143"/>
<path d="M1619.01 1H1529V91.0048H1619.01V1Z" fill="#00A052"/>
<path d="M1709 1H1619V91H1709V1Z" fill="#00793F"/>
<path d="M1664 1H1619V46.0024H1664V1Z" fill="#00763D"/>
<path d="M1664 1V46.0024H1619L1664 1Z" fill="#007F42"/>
<path d="M1709 1H1664V46.0024H1709V1Z" fill="#00773E"/>
<path d="M1664 1L1709 46.0024H1664V1Z" fill="#00B25B"/>
<path d="M1664 46.0024H1619V91.0048H1664V46.0024Z" fill="#006635"/>
<path d="M1619 46.0024H1664V91.0048L1619 46.0024Z" fill="#006F3A"/>
<path d="M1709 46.0024H1664V91.0048H1709V46.0024Z" fill="#007A3F"/>
<path d="M1664 46.0024H1709L1664 91.0048V46.0024Z" fill="#00A856"/>
<path d="M1799 1H1709V91H1799V1Z" fill="#00793F"/>
<path d="M1754.01 1H1709V46.0024H1754.01V1Z" fill="#00A555"/>
<path d="M1709 1C1720.94 1 1732.39 5.74131 1740.83 14.1809C1749.27 22.6205 1754.01 34.067 1754.01 46.0024H1709" fill="#00773E"/>
<path d="M1799 1H1754V46.0024H1799V1Z" fill="#00733C"/>
<path d="M1754 46.0024C1754 34.067 1758.74 22.6205 1767.18 14.1809C1775.62 5.74131 1787.06 1 1799 1V46.0024" fill="#00783F"/>
<path d="M1754.01 46.0024H1709V91.0048H1754.01V46.0024Z" fill="#00753D"/>
<path d="M1709 91.0048C1720.94 91.0048 1732.39 86.2635 1740.83 77.8239C1749.27 69.3844 1754.01 57.9378 1754.01 46.0024H1709" fill="#007B40"/>
<path d="M1799 46.0024H1754V91.0048H1799V46.0024Z" fill="#006F3A"/>
<path d="M1754 46.0024C1754 57.9378 1758.74 69.3844 1767.18 77.8239C1775.62 86.2635 1787.06 91.0048 1799 91.0048V46.0024" fill="#008545"/>
<path d="M1889 1H1799V91H1889V1Z" fill="#00793F"/>
<path d="M1844 1H1799V46.0024H1844V1Z" fill="#00B25B"/>
<path d="M1844 1V46.0024H1799L1844 1Z" fill="#00713B"/>
<path d="M1889 1H1844V46.0024H1889V1Z" fill="#00954D"/>
<path d="M1844 1L1889 46.0024H1844V1Z" fill="#007F42"/>
<path d="M1844 46.0024H1799V91.0048H1844V46.0024Z" fill="#007E41"/>
<path d="M1799 46.0024H1844L1799 91.0048V46.0024Z" fill="#006A37"/>
<path d="M1889 46.0024H1844V91.0048H1889V46.0024Z" fill="#00763E"/>
<path d="M1844 46.0024H1889V91.0048L1844 46.0024Z" fill="#00763D"/>
<path d="M1979.01 1H1889V91.0048H1979.01V1Z" fill="#007B40"/>
<path d="M1889 1H1979.01L1889 91.0048V1Z" fill="#008042"/>
<path d="M2069 1H1979V91H2069V1Z" fill="#00793F"/>
<path d="M2024 1H1979V46.0024H2024V1Z" fill="#00914B"/>
<path d="M1979 46.0024C1979 34.067 1983.74 22.6205 1992.18 14.1809C2000.62 5.74131 2012.07 1 2024 1V12.2506C2015.05 12.2506 2006.47 15.8066 2000.14 22.1363C1993.81 28.466 1990.25 37.0509 1990.25 46.0024" fill="#00924C"/>
<path d="M2069 1H2024V46.0024H2069V1Z" fill="#00994F"/>
<path d="M2024 1C2035.94 1 2047.38 5.74131 2055.82 14.1809C2064.26 22.6205 2069 34.067 2069 46.0024H2057.75C2057.75 37.0509 2054.2 28.466 2047.87 22.1363C2041.54 15.8066 2032.95 12.2506 2024 12.2506" fill="#006C38"/>
<path d="M2024 46.0024H1979V91.0048H2024V46.0024Z" fill="#009A4F"/>
<path d="M1979 46.0024C1979 57.9378 1983.74 69.3844 1992.18 77.8239C2000.62 86.2635 2012.07 91.0048 2024 91.0048V79.7542C2015.05 79.7542 2006.47 76.1983 2000.14 69.8686C1993.81 63.5389 1990.25 54.954 1990.25 46.0024" fill="#008A48"/>
<path d="M2069 46.0024H2024V91.0048H2069V46.0024Z" fill="#00984F"/>
<path d="M2024 91.0048C2035.94 91.0048 2047.38 86.2635 2055.82 77.8239C2064.26 69.3844 2069 57.9378 2069 46.0024H2057.75C2057.75 50.4348 2056.88 54.8237 2055.18 58.9187C2053.49 63.0137 2051 66.7344 2047.87 69.8686C2044.73 73.0027 2041.01 75.4888 2036.92 77.185C2032.82 78.8812 2028.43 79.7542 2024 79.7542" fill="#009F52"/>
<path d="M2159.01 1H2069V91.0048H2159.01V1Z" fill="#00B15B"/>
<path d="M2069 91.0048C2069 67.134 2078.49 44.241 2095.37 27.3618C2112.25 10.4826 2135.14 1 2159.01 1L2069 91.0048C2092.88 91.0048 2115.77 81.5222 2132.65 64.643C2149.53 47.7638 2159.01 24.8708 2159.01 1" fill="#006F3A"/>
<path d="M2249 1H2159V91.0048H2249V1Z" fill="#00743C"/>
<path d="M2159 1L2249 91.0048H2159V1Z" fill="#00793F"/>
<path d="M2339 1H2249V91H2339V1Z" fill="#00793F"/>
<path d="M2294.01 1H2249V46.0024H2294.01V1Z" fill="#00713B"/>
<path d="M2249 46.0024C2260.94 46.0024 2272.39 41.2611 2280.83 32.8215C2289.27 24.3819 2294.01 12.9354 2294.01 1H2249" fill="#006F3A"/>
<path d="M2339 1H2294V46.0024H2339V1Z" fill="#00924C"/>
<path d="M2294 1C2294 6.9098 2295.16 12.7617 2297.42 18.2217C2299.68 23.6816 2303 28.6426 2307.18 32.8215C2311.36 37.0004 2316.32 40.3152 2321.78 42.5768C2327.24 44.8384 2333.09 46.0024 2339 46.0024V1" fill="#006836"/>
<path d="M2294.01 46.0024H2249V91.0048H2294.01V46.0024Z" fill="#00AB58"/>
<path d="M2249 46.0024C2260.94 46.0024 2272.39 50.7438 2280.83 59.1833C2289.27 67.6229 2294.01 79.0695 2294.01 91.0048H2249" fill="#008F4A"/>
<path d="M2339 46.0024H2294V91.0048H2339V46.0024Z" fill="#00733C"/>
<path d="M2294 91.0048C2294 85.095 2295.16 79.2431 2297.42 73.7832C2299.68 68.3232 2303 63.3622 2307.18 59.1833C2311.36 55.0045 2316.32 51.6896 2321.78 49.428C2327.24 47.1665 2333.09 46.0024 2339 46.0024V91.0048" fill="#00733C"/>
<path d="M2429 1H2339V91H2429V1Z" fill="#00793F"/>
<path d="M2384 1H2339V46.0024H2384V1Z" fill="#00743C"/>
<path d="M2339 46.0024C2350.94 46.0024 2362.38 41.2611 2370.82 32.8215C2379.26 24.3819 2384 12.9354 2384 1H2339" fill="#007B40"/>
<path d="M2429 1H2384V46.0024H2429V1Z" fill="#007C41"/>
<path d="M2384 1C2384 12.9354 2388.74 24.3819 2397.18 32.8215C2405.62 41.2611 2417.07 46.0024 2429 46.0024V1" fill="#008645"/>
<path d="M2384 46.0024H2339V91.0048H2384V46.0024Z" fill="#00984F"/>
<path d="M2339 46.0024C2350.94 46.0024 2362.38 50.7438 2370.82 59.1833C2379.26 67.6229 2384 79.0695 2384 91.0048H2339" fill="#00713B"/>
<path d="M2429 46.0024H2384V91.0048H2429V46.0024Z" fill="#006D38"/>
<path d="M2384 91.0048C2384 79.0695 2388.74 67.6229 2397.18 59.1833C2405.62 50.7438 2417.07 46.0024 2429 46.0024V91.0048" fill="#00753D"/>
<path d="M2519.01 1H2429V91.0048H2519.01V1Z" fill="#006936"/>
<path d="M2519.01 1H2429V91.0048H2519.01V1Z" fill="#00A957"/>
<path d="M2609 1H2519V91.0048H2609V1Z" fill="#00763D"/>
<path d="M2519 1C2530.82 1 2542.52 3.32804 2553.44 7.85121C2564.36 12.3744 2574.29 19.0041 2582.64 27.3618C2591 35.7195 2597.63 45.6416 2602.15 56.5614C2606.68 67.4813 2609 79.1852 2609 91.0048H2519" fill="#006F3A"/>
<path d="M2699 1H2609V91H2699V1Z" fill="#00793F"/>
<path d="M2654.01 1H2609V46.0024H2654.01V1Z" fill="#00944D"/>
<path d="M2654.01 1V46.0024H2609L2654.01 1Z" fill="#008D49"/>
<path d="M2699 1H2654V46.0024H2699V1Z" fill="#00763D"/>
<path d="M2654 1L2699 46.0024H2654V1Z" fill="#006937"/>
<path d="M2654.01 46.0024H2609V91.0048H2654.01V46.0024Z" fill="#00AE59"/>
<path d="M2609 46.0024H2654.01L2609 91.0048V46.0024Z" fill="#006D39"/>
<path d="M2699 46.0024H2654V91.0048H2699V46.0024Z" fill="#00713B"/>
<path d="M2654 46.0024H2699V91.0048L2654 46.0024Z" fill="#00A053"/>
<path d="M2789 1H2699V91H2789V1Z" fill="#00793F"/>
<path d="M2744 1H2699V46.0024H2744V1Z" fill="#008846"/>
<path d="M2699 1C2699 12.9354 2703.74 24.3819 2712.18 32.8215C2720.62 41.2611 2732.07 46.0024 2744 46.0024V1" fill="#006F3A"/>
<path d="M2789 1H2744V46.0024H2789V1Z" fill="#008D49"/>
<path d="M2744 46.0024C2755.94 46.0024 2767.38 41.2611 2775.82 32.8215C2784.26 24.3819 2789 12.9354 2789 1H2744" fill="#00713B"/>
<path d="M2744 46.0024H2699V91.0048H2744V46.0024Z" fill="#00B35C"/>
<path d="M2699 91.0048C2699 79.0695 2703.74 67.6229 2712.18 59.1833C2720.62 50.7438 2732.07 46.0024 2744 46.0024V91.0048" fill="#00954D"/>
<path d="M2789 46.0024H2744V91.0048H2789V46.0024Z" fill="#008B48"/>
<path d="M2744 46.0024C2755.94 46.0024 2767.38 50.7438 2775.82 59.1833C2784.26 67.6229 2789 79.0695 2789 91.0048H2744" fill="#008F4A"/>
<path d="M2879.01 1H2789V91.0048H2879.01V1Z" fill="#008344"/>
<path d="M2789 1L2879.01 91.0048H2789V1Z" fill="#008C49"/>
</g>
<g clip-path="url(#clip1_121_339)">
<path d="M1440 1H0V181H1440V1Z" fill="#00793F"/>
<path d="M90 1H0V91H90V1Z" fill="#00793F"/>
<path d="M45.0024 1H0V46.0024H45.0024V1Z" fill="#008445"/>
<path d="M22.5012 46.0024C34.9283 46.0024 45.0024 35.9283 45.0024 23.5012C45.0024 11.0741 34.9283 1 22.5012 1C10.0741 1 0 11.0741 0 23.5012C0 35.9283 10.0741 46.0024 22.5012 46.0024Z" fill="#007A40"/>
<path d="M90.0048 1H45.0024V46.0024H90.0048V1Z" fill="#007A40"/>
<path d="M90.0048 1H45.0024V46.0024H90.0048V1Z" fill="#00AF5A"/>
<path d="M45.0024 46.0024H0V91.0048H45.0024V46.0024Z" fill="#008344"/>
<path d="M22.5012 91.0048C34.9283 91.0048 45.0024 80.9307 45.0024 68.5036C45.0024 56.0766 34.9283 46.0024 22.5012 46.0024C10.0741 46.0024 0 56.0766 0 68.5036C0 80.9307 10.0741 91.0048 22.5012 91.0048Z" fill="#00B35C"/>
<path d="M90.0048 46.0024H45.0024V91.0048H90.0048V46.0024Z" fill="#00743C"/>
<path d="M90.0048 46.0024H45.0024V91.0048H90.0048V46.0024Z" fill="#008846"/>
<path d="M180.01 1H90.0048V91.0048H180.01V1Z" fill="#008143"/>
<path d="M180.01 1H90.0048V91.0048H180.01V1Z" fill="#00A052"/>
<path d="M270 1H180V91H270V1Z" fill="#00793F"/>
<path d="M225.002 1H180V46.0024H225.002V1Z" fill="#00763D"/>
<path d="M225.002 1V46.0024H180L225.002 1Z" fill="#007F42"/>
<path d="M270.005 1H225.002V46.0024H270.005V1Z" fill="#00773E"/>
<path d="M225.002 1L270.005 46.0024H225.002V1Z" fill="#00B25B"/>
<path d="M225.002 46.0024H180V91.0048H225.002V46.0024Z" fill="#006635"/>
<path d="M180 46.0024H225.002V91.0048L180 46.0024Z" fill="#006F3A"/>
<path d="M270.005 46.0024H225.002V91.0048H270.005V46.0024Z" fill="#007A3F"/>
<path d="M225.002 46.0024H270.005L225.002 91.0048V46.0024Z" fill="#00A856"/>
<path d="M360 1H270V91H360V1Z" fill="#00793F"/>
<path d="M315.007 1H270.005V46.0024H315.007V1Z" fill="#00A555"/>
<path d="M270.005 1C281.94 1 293.387 5.74131 301.826 14.1809C310.266 22.6205 315.007 34.067 315.007 46.0024H270.005" fill="#00773E"/>
<path d="M360 1H314.998V46.0024H360V1Z" fill="#00733C"/>
<path d="M314.998 46.0024C314.998 34.067 319.739 22.6205 328.178 14.1809C336.618 5.74131 348.065 1 360 1V46.0024" fill="#00783F"/>
<path d="M315.007 46.0024H270.005V91.0048H315.007V46.0024Z" fill="#00753D"/>
<path d="M270.005 91.0048C281.94 91.0048 293.387 86.2635 301.826 77.8239C310.266 69.3844 315.007 57.9378 315.007 46.0024H270.005" fill="#007B40"/>
<path d="M360 46.0024H314.998V91.0048H360V46.0024Z" fill="#006F3A"/>
<path d="M314.998 46.0024C314.998 57.9378 319.739 69.3844 328.178 77.8239C336.618 86.2635 348.065 91.0048 360 91.0048V46.0024" fill="#008545"/>
<path d="M450 1H360V91H450V1Z" fill="#00793F"/>
<path d="M405.002 1H360V46.0024H405.002V1Z" fill="#00B25B"/>
<path d="M405.002 1V46.0024H360L405.002 1Z" fill="#00713B"/>
<path d="M450.005 1H405.002V46.0024H450.005V1Z" fill="#00954D"/>
<path d="M405.002 1L450.005 46.0024H405.002V1Z" fill="#007F42"/>
<path d="M405.002 46.0024H360V91.0048H405.002V46.0024Z" fill="#007E41"/>
<path d="M360 46.0024H405.002L360 91.0048V46.0024Z" fill="#006A37"/>
<path d="M450.005 46.0024H405.002V91.0048H450.005V46.0024Z" fill="#00763E"/>
<path d="M405.002 46.0024H450.005V91.0048L405.002 46.0024Z" fill="#00763D"/>
<path d="M540.01 1H450.005V91.0048H540.01V1Z" fill="#007B40"/>
<path d="M450.005 1H540.01L450.005 91.0048V1Z" fill="#008042"/>
<path d="M630 1H540V91H630V1Z" fill="#00793F"/>
<path d="M585.002 1H540V46.0024H585.002V1Z" fill="#00914B"/>
<path d="M540 46.0024C540 34.067 544.741 22.6205 553.181 14.1809C561.62 5.74131 573.067 1 585.002 1V12.2506C576.051 12.2506 567.466 15.8066 561.136 22.1363C554.807 28.466 551.251 37.0509 551.251 46.0024" fill="#00924C"/>
<path d="M630.005 1H585.002V46.0024H630.005V1Z" fill="#00994F"/>
<path d="M585.002 1C596.938 1 608.384 5.74131 616.824 14.1809C625.263 22.6205 630.005 34.067 630.005 46.0024H618.754C618.754 37.0509 615.198 28.466 608.868 22.1363C602.539 15.8066 593.954 12.2506 585.002 12.2506" fill="#006C38"/>
<path d="M585.002 46.0024H540V91.0048H585.002V46.0024Z" fill="#009A4F"/>
<path d="M540 46.0024C540 57.9378 544.741 69.3844 553.181 77.8239C561.62 86.2635 573.067 91.0048 585.002 91.0048V79.7542C576.051 79.7542 567.466 76.1983 561.136 69.8686C554.807 63.5389 551.251 54.954 551.251 46.0024" fill="#008A48"/>
<path d="M630.005 46.0024H585.002V91.0048H630.005V46.0024Z" fill="#00984F"/>
<path d="M585.002 91.0048C596.938 91.0048 608.384 86.2635 616.824 77.8239C625.263 69.3844 630.005 57.9378 630.005 46.0024H618.754C618.754 50.4348 617.881 54.8237 616.185 58.9187C614.489 63.0137 612.003 66.7344 608.868 69.8686C605.734 73.0027 602.014 75.4888 597.919 77.185C593.824 78.8812 589.435 79.7542 585.002 79.7542" fill="#009F52"/>
<path d="M720.01 1H630.005V91.0048H720.01V1Z" fill="#00B15B"/>
<path d="M630.005 91.0048C630.005 67.134 639.487 44.241 656.367 27.3618C673.246 10.4826 696.139 1 720.01 1L630.005 91.0048C653.876 91.0048 676.769 81.5222 693.648 64.643C710.527 47.7638 720.01 24.8708 720.01 1" fill="#006F3A"/>
<path d="M810.005 1H720V91.0048H810.005V1Z" fill="#00743C"/>
<path d="M720 1L810.005 91.0048H720V1Z" fill="#00793F"/>
<path d="M900 1H810V91H900V1Z" fill="#00793F"/>
<path d="M855.007 1H810.005V46.0024H855.007V1Z" fill="#00713B"/>
<path d="M810.005 46.0024C821.94 46.0024 833.387 41.2611 841.826 32.8215C850.266 24.3819 855.007 12.9354 855.007 1H810.005" fill="#006F3A"/>
<path d="M900 1H854.998V46.0024H900V1Z" fill="#00924C"/>
<path d="M854.998 1C854.998 6.9098 856.162 12.7617 858.423 18.2217C860.685 23.6816 864 28.6426 868.179 32.8215C872.357 37.0004 877.318 40.3152 882.778 42.5768C888.238 44.8384 894.09 46.0024 900 46.0024V1" fill="#006836"/>
<path d="M855.007 46.0024H810.005V91.0048H855.007V46.0024Z" fill="#00AB58"/>
<path d="M810.005 46.0024C821.94 46.0024 833.387 50.7438 841.826 59.1833C850.266 67.6229 855.007 79.0695 855.007 91.0048H810.005" fill="#008F4A"/>
<path d="M900 46.0024H854.998V91.0048H900V46.0024Z" fill="#00733C"/>
<path d="M854.998 91.0048C854.998 85.095 856.162 79.2431 858.423 73.7832C860.685 68.3232 864 63.3622 868.179 59.1833C872.357 55.0045 877.318 51.6896 882.778 49.428C888.238 47.1665 894.09 46.0024 900 46.0024V91.0048" fill="#00733C"/>
<path d="M990 1H900V91H990V1Z" fill="#00793F"/>
<path d="M945.002 1H900V46.0024H945.002V1Z" fill="#00743C"/>
<path d="M900 46.0024C911.935 46.0024 923.382 41.2611 931.821 32.8215C940.261 24.3819 945.002 12.9354 945.002 1H900" fill="#007B40"/>
<path d="M990.005 1H945.002V46.0024H990.005V1Z" fill="#007C41"/>
<path d="M945.002 1C945.002 12.9354 949.744 24.3819 958.183 32.8215C966.623 41.2611 978.069 46.0024 990.005 46.0024V1" fill="#008645"/>
<path d="M945.002 46.0024H900V91.0048H945.002V46.0024Z" fill="#00984F"/>
<path d="M900 46.0024C911.935 46.0024 923.382 50.7438 931.821 59.1833C940.261 67.6229 945.002 79.0695 945.002 91.0048H900" fill="#00713B"/>
<path d="M990.005 46.0024H945.002V91.0048H990.005V46.0024Z" fill="#006D38"/>
<path d="M945.002 91.0048C945.002 79.0695 949.744 67.6229 958.183 59.1833C966.623 50.7438 978.069 46.0024 990.005 46.0024V91.0048" fill="#00753D"/>
<path d="M1080.01 1H990.005V91.0048H1080.01V1Z" fill="#006936"/>
<path d="M1080.01 1H990.005V91.0048H1080.01V1Z" fill="#00A957"/>
<path d="M1170 1H1080V91.0048H1170V1Z" fill="#00763D"/>
<path d="M1080 1C1091.82 1 1103.52 3.32804 1114.44 7.85121C1125.36 12.3744 1135.29 19.0041 1143.64 27.3618C1152 35.7195 1158.63 45.6416 1163.15 56.5614C1167.68 67.4813 1170 79.1852 1170 91.0048H1080" fill="#006F3A"/>
<path d="M1260 1H1170V91H1260V1Z" fill="#00793F"/>
<path d="M1215.01 1H1170V46.0024H1215.01V1Z" fill="#00944D"/>
<path d="M1215.01 1V46.0024H1170L1215.01 1Z" fill="#008D49"/>
<path d="M1260 1H1215V46.0024H1260V1Z" fill="#00763D"/>
<path d="M1215 1L1260 46.0024H1215V1Z" fill="#006937"/>
<path d="M1215.01 46.0024H1170V91.0048H1215.01V46.0024Z" fill="#00AE59"/>
<path d="M1170 46.0024H1215.01L1170 91.0048V46.0024Z" fill="#006D39"/>
<path d="M1260 46.0024H1215V91.0048H1260V46.0024Z" fill="#00713B"/>
<path d="M1215 46.0024H1260V91.0048L1215 46.0024Z" fill="#00A053"/>
<path d="M1350 1H1260V91H1350V1Z" fill="#00793F"/>
<path d="M1305 1H1260V46.0024H1305V1Z" fill="#008846"/>
<path d="M1260 1C1260 12.9354 1264.74 24.3819 1273.18 32.8215C1281.62 41.2611 1293.07 46.0024 1305 46.0024V1" fill="#006F3A"/>
<path d="M1350 1H1305V46.0024H1350V1Z" fill="#008D49"/>
<path d="M1305 46.0024C1316.94 46.0024 1328.38 41.2611 1336.82 32.8215C1345.26 24.3819 1350 12.9354 1350 1H1305" fill="#00713B"/>
<path d="M1305 46.0024H1260V91.0048H1305V46.0024Z" fill="#00B35C"/>
<path d="M1260 91.0048C1260 79.0695 1264.74 67.6229 1273.18 59.1833C1281.62 50.7438 1293.07 46.0024 1305 46.0024V91.0048" fill="#00954D"/>
<path d="M1350 46.0024H1305V91.0048H1350V46.0024Z" fill="#008B48"/>
<path d="M1305 46.0024C1316.94 46.0024 1328.38 50.7438 1336.82 59.1833C1345.26 67.6229 1350 79.0695 1350 91.0048H1305" fill="#008F4A"/>
<path d="M1440.01 1H1350V91.0048H1440.01V1Z" fill="#008344"/>
<path d="M1350 1L1440.01 91.0048H1350V1Z" fill="#008C49"/>
</g>
</g>
<defs>
<clipPath id="clip0_121_339">
<rect width="1440" height="180" fill="white" transform="translate(1439 1)"/>
</clipPath>
<clipPath id="clip1_121_339">
<rect width="1440" height="180" fill="white" transform="translate(0 1)"/>
</clipPath>
</defs>
</svg>
