<svg width="751" height="511" viewBox="0 0 751 511" fill="none" xmlns="http://www.w3.org/2000/svg">
<g clip-path="url(#clip0_31_1644)">
<path fill-rule="evenodd" clip-rule="evenodd" d="M105.853 318.075H303.674V506.341H84V339.883C83.9994 337.019 84.5643 334.183 85.6623 331.537C86.7603 328.891 88.3699 326.486 90.3992 324.461C92.4286 322.436 94.8378 320.83 97.4894 319.734C100.141 318.639 102.983 318.075 105.853 318.075Z" fill="#FEA7A8"/>
<path d="M303.674 318.073H193.407V506.339H303.674V318.073Z" fill="#DC678F"/>
<path fill-rule="evenodd" clip-rule="evenodd" d="M427.179 318.075H603.268C606.122 318.075 608.947 318.636 611.584 319.725C614.221 320.815 616.617 322.412 618.635 324.426C620.653 326.44 622.254 328.83 623.346 331.461C624.438 334.092 625 336.912 625 339.76V506.341H405.326V339.883C405.326 337.019 405.891 334.183 406.989 331.537C408.087 328.891 409.696 326.486 411.726 324.461C413.755 322.436 416.164 320.83 418.816 319.734C421.467 318.639 424.309 318.075 427.179 318.075Z" fill="#BCE6D3"/>
<path fill-rule="evenodd" clip-rule="evenodd" d="M527.655 318.075H603.145C608.94 318.075 614.497 320.373 618.594 324.461C622.691 328.55 624.993 334.096 624.993 339.878V506.337H527.655V318.075Z" fill="#98C3AF"/>
<path d="M220.449 149.857L228.817 152.228C229.92 152.54 230.907 153.169 231.655 154.037C232.411 154.915 232.978 155.939 233.32 157.045L238.635 174.209" stroke="#0F0B47" stroke-width="2" stroke-linecap="round"/>
<path fill-rule="evenodd" clip-rule="evenodd" d="M225.352 170.939H248.739V174.018L245.856 207.805C245.819 208.234 245.622 208.634 245.304 208.925C244.987 209.216 244.571 209.378 244.139 209.378H229.953C229.522 209.378 229.106 209.217 228.788 208.926C228.47 208.634 228.273 208.234 228.237 207.805L225.352 174.018V170.939Z" fill="#19D9EB"/>
<path fill-rule="evenodd" clip-rule="evenodd" d="M248.739 171.319V174.022L245.84 208.003C245.808 208.38 245.636 208.73 245.357 208.986C245.079 209.241 244.714 209.383 244.335 209.383H229.755C229.377 209.382 229.013 209.24 228.735 208.985C228.456 208.73 228.284 208.379 228.252 208.003L227.082 194.299C228.357 192.719 229.912 191.388 231.67 190.37L232.034 190.163C239.802 185.851 243.573 179.689 243.346 171.675V171.319H248.739Z" fill="#13C3D3"/>
<path fill-rule="evenodd" clip-rule="evenodd" d="M232.147 165.668H241.946C242.947 165.668 243.908 166.065 244.616 166.772C245.324 167.479 245.722 168.438 245.722 169.437H228.371C228.37 168.942 228.468 168.452 228.657 167.994C228.847 167.537 229.125 167.121 229.476 166.771C229.827 166.421 230.243 166.144 230.702 165.955C231.16 165.765 231.651 165.668 232.147 165.668Z" fill="#19D9EB"/>
<path d="M248.634 168.681H225.459C224.984 168.681 224.598 169.065 224.598 169.539V171.591C224.598 172.065 224.984 172.449 225.459 172.449H248.634C249.109 172.449 249.494 172.065 249.494 171.591V169.539C249.494 169.065 249.109 168.681 248.634 168.681Z" fill="#10A6B4"/>
<path fill-rule="evenodd" clip-rule="evenodd" d="M225.352 180.792H248.739L247.573 194.454H226.522L225.352 180.792Z" fill="#FEDD00"/>
<path fill-rule="evenodd" clip-rule="evenodd" d="M252.736 216.351L255.603 201.678C255.965 199.825 255.932 197.917 255.507 196.077C255.082 194.238 254.275 192.508 253.137 190.999C250.758 187.846 247.685 185.279 244.155 183.498L235.353 179.048C235.182 178.961 234.989 178.926 234.798 178.945C234.606 178.964 234.425 179.038 234.274 179.157C234.123 179.276 234.01 179.436 233.948 179.617C233.885 179.799 233.876 179.994 233.922 180.18C234.252 181.54 235.088 182.724 236.26 183.491L243.992 188.561L232.954 184.198C232.736 184.114 232.493 184.119 232.278 184.212C232.064 184.304 231.894 184.478 231.806 184.694C231.75 184.836 231.733 184.989 231.755 185.139C231.824 185.614 231.995 186.068 232.257 186.471C232.518 186.874 232.863 187.216 233.269 187.473L243.009 193.654L234.127 190.639C233.866 190.55 233.581 190.569 233.334 190.69C233.087 190.811 232.899 191.024 232.809 191.284C232.774 191.389 232.755 191.499 232.754 191.609C232.75 192.039 232.866 192.462 233.089 192.829C233.312 193.197 233.634 193.496 234.018 193.691L244.01 198.79L236.334 197.311C236.06 197.258 235.776 197.316 235.544 197.472C235.312 197.628 235.152 197.869 235.099 198.143C235.087 198.209 235.081 198.276 235.081 198.343C235.081 198.726 235.19 199.101 235.394 199.425C235.599 199.749 235.89 200.009 236.236 200.174L243.992 203.899L243.35 205.861C243.009 206.906 242.343 207.814 241.448 208.455C240.553 209.095 239.477 209.433 238.376 209.42L235.308 209.383L236.564 214.217L252.736 216.351Z" fill="#FEA7A8"/>
<path d="M239.31 185.64L244.674 189.093" stroke="#0F0B47" stroke-width="2"/>
<path d="M239.31 191.006L244.674 194.454" stroke="#0F0B47" stroke-width="2"/>
<path d="M240.064 196.626L244.674 199.278" stroke="#0F0B47" stroke-width="2"/>
<path d="M243.836 203.752C243.836 207.506 242.327 209.383 239.308 209.383" stroke="#0F0B47" stroke-width="2"/>
<path fill-rule="evenodd" clip-rule="evenodd" d="M187.501 188.559L218.044 253.193L233.737 213.323L255.77 216.052L241.754 269.224C240.813 272.794 238.986 276.069 236.442 278.748C233.898 281.427 230.719 283.423 227.198 284.553C223.721 285.667 220.007 285.826 216.447 285.015C212.887 284.203 209.611 282.451 206.964 279.941L168.312 243.288L187.501 188.559Z" fill="#358BD7"/>
<path fill-rule="evenodd" clip-rule="evenodd" d="M290.585 394.99L302.316 418.288L331.559 417.162L319.924 392.331L290.585 394.99Z" fill="#FEA7A8"/>
<path fill-rule="evenodd" clip-rule="evenodd" d="M300.488 417.12L328.846 406.837C329.219 406.702 329.627 406.699 330.002 406.83C330.376 406.96 330.694 407.216 330.902 407.553L334.761 413.811C336.212 416.165 338.13 418.198 340.396 419.787C342.663 421.376 345.23 422.486 347.941 423.051L381.371 430.012C382.806 430.311 384.096 431.088 385.03 432.215C385.964 433.342 386.487 434.752 386.512 436.215C386.524 436.881 386.404 437.544 386.159 438.164C385.913 438.785 385.548 439.351 385.084 439.83C384.619 440.31 384.065 440.693 383.452 440.959C382.839 441.225 382.18 441.367 381.512 441.378H381.44L312.516 441.59C309.839 441.595 307.248 440.644 305.213 438.908C303.179 437.171 301.834 434.765 301.424 432.126L299.378 419C299.317 418.606 299.394 418.204 299.596 417.862C299.799 417.519 300.114 417.257 300.488 417.12Z" fill="#0F0B47"/>
<path d="M311.372 413.039L315.739 421.006C316.603 422.584 317.97 423.827 319.624 424.539C321.277 425.251 323.122 425.391 324.864 424.935C325.611 424.74 326.306 424.383 326.9 423.891C327.494 423.399 327.973 422.783 328.303 422.086C328.633 421.39 328.806 420.63 328.811 419.86C328.815 419.089 328.651 418.327 328.329 417.627L324.149 408.565" stroke="white" stroke-width="2"/>
<path fill-rule="evenodd" clip-rule="evenodd" d="M207.024 460.329L199.983 483.635L229.227 482.51L236.363 457.67L207.024 460.329Z" fill="#FEA7A8"/>
<path fill-rule="evenodd" clip-rule="evenodd" d="M201.033 474.082L231.197 474.685C231.616 474.694 232.017 474.854 232.326 475.136C232.635 475.418 232.831 475.803 232.876 476.218L233.36 480.668C233.552 482.427 234.264 484.09 235.406 485.444C236.547 486.799 238.066 487.785 239.77 488.276L276.25 498.791C277.685 499.204 278.951 500.066 279.859 501.25C280.768 502.434 281.272 503.878 281.297 505.369C281.308 506.006 281.193 506.639 280.959 507.232C280.725 507.825 280.377 508.366 279.933 508.824C279.489 509.283 278.959 509.649 278.374 509.903C277.788 510.157 277.158 510.293 276.519 510.304C276.421 510.304 276.325 510.304 276.23 510.304L208.876 507.454C205.909 507.328 203.114 506.031 201.105 503.849C199.095 501.666 198.037 498.777 198.162 495.816C198.162 495.767 198.162 495.72 198.162 495.671L199.277 475.711C199.3 475.265 199.497 474.846 199.825 474.542C200.153 474.238 200.586 474.073 201.033 474.082Z" fill="#0F0B47"/>
<path d="M212.082 474.154V481.515C212.085 483.325 212.792 485.063 214.055 486.361C215.317 487.66 217.036 488.419 218.849 488.477C220.65 488.534 222.401 487.881 223.723 486.66C225.046 485.439 225.834 483.748 225.916 481.951L226.259 474.505" stroke="white" stroke-width="2"/>
<path fill-rule="evenodd" clip-rule="evenodd" d="M113.707 277.95L116.093 302.484C116.558 307.263 118.211 311.849 120.903 315.829C123.594 319.808 127.238 323.054 131.505 325.273C140.634 330.018 150.777 332.496 161.071 332.496H207.296L189.429 465.786L255.759 469.933L262.111 366.273L282.068 418.757L339.249 392.376L287.626 279.641C281.846 267.013 271.313 257.167 258.309 252.234C245.208 247.264 230.761 247.106 217.553 251.789L152.185 274.96L113.707 277.95Z" fill="#3F38A2"/>
<path fill-rule="evenodd" clip-rule="evenodd" d="M178.137 272.49L203.093 277.912C211.706 279.785 219.712 283.779 226.383 289.53C233.053 295.281 238.174 302.606 241.281 310.838L282.08 418.768L262.111 366.273L258.231 431.325L257.846 431.527C244.618 355.399 234.161 311.653 226.476 300.289C218.79 288.925 202.677 279.658 178.137 272.49Z" fill="#0F0B47"/>
<path d="M178.137 272.49L199.109 277.046C208.941 279.18 218.081 283.736 225.696 290.297C233.312 296.858 239.161 305.217 242.71 314.612L282.071 418.759" stroke="black" stroke-width="2"/>
<path d="M163.225 129.763C169.974 135.618 171.661 143.187 168.285 152.469" stroke="#261A5E" stroke-width="2"/>
<path d="M170.809 163.488C180.235 168.102 185.532 175.015 186.7 184.227C187.869 193.439 182.295 199.986 169.98 203.867" stroke="#261A5E" stroke-width="2"/>
<path fill-rule="evenodd" clip-rule="evenodd" d="M168.359 149.294C169.781 143.471 169.118 138.068 166.368 133.085C162.242 125.612 146.914 124.43 137.192 132.417C127.469 140.404 130.887 156.491 124.018 165.201C117.149 173.911 104.06 184.835 108.673 202.613C113.286 220.391 150.437 218.38 158.402 212.895C166.368 207.411 179.051 208.021 184.217 196.728C189.382 185.435 184.525 172.403 172.207 165.163C163.994 160.343 162.711 155.053 168.359 149.294Z" fill="#261A5E"/>
<path fill-rule="evenodd" clip-rule="evenodd" d="M117.134 193.818C111.55 199.725 108.09 207.316 107.3 215.398L102.511 264.261C101.693 272.635 104.223 280.993 109.549 287.516C111.925 290.425 115.208 292.457 118.875 293.287C122.542 294.118 126.382 293.7 129.783 292.099L203.131 257.571L194.57 236.881L183.767 241.368C190.4 234.495 193.716 228.573 193.714 223.601C193.714 216.141 188.5 211.044 188.5 201.442L189.436 195.972C189.763 194.056 189.559 192.088 188.846 190.28C188.132 188.472 186.936 186.894 185.387 185.716C182.072 183.195 177.967 181.934 173.806 182.156L138.273 184.047C130.231 184.476 122.662 187.975 117.134 193.818Z" fill="#3D9BEF"/>
<path fill-rule="evenodd" clip-rule="evenodd" d="M168.232 147.921L172.403 165.208C172.621 166.106 172.611 167.044 172.373 167.938C172.136 168.831 171.68 169.652 171.045 170.325C169.714 171.739 167.919 172.631 165.985 172.839L162.246 173.241L164.199 183.542C164.696 186.163 164.13 188.874 162.625 191.078C161.12 193.283 158.799 194.8 156.173 195.298C155.959 195.338 155.743 195.371 155.524 195.398C152.675 195.745 149.804 194.96 147.531 193.211C145.257 191.463 143.765 188.891 143.376 186.054L140.924 168.256C137.434 166.964 135.69 164.798 135.691 161.757C135.691 157.199 141.437 158.011 142.714 160.269C151.006 155.984 155.465 147.872 156.091 135.932C159.032 136.606 161.726 138.085 163.871 140.203C166.016 142.321 167.526 144.994 168.232 147.921Z" fill="#FEA7A8"/>
<path fill-rule="evenodd" clip-rule="evenodd" d="M147.911 170.209C152.428 172.198 157.309 173.23 162.246 173.239L164.219 183.678L147.911 170.209Z" fill="#E19394"/>
<path fill-rule="evenodd" clip-rule="evenodd" d="M160.226 163.746L168.158 160.58C168.405 163.311 167.77 165.127 166.254 166.029C164.738 166.931 162.729 166.17 160.226 163.746Z" fill="white"/>
<path d="M162.872 151.697C163.128 153.761 163.924 154.995 165.26 155.397C167.267 156 167.345 158.93 164.64 158.93" stroke="#0F0B47" stroke-width="2"/>
<path fill-rule="evenodd" clip-rule="evenodd" d="M157.415 148.093L154.577 149.539C154.465 149.596 154.38 149.696 154.341 149.815C154.302 149.935 154.312 150.065 154.369 150.177C154.399 150.235 154.441 150.286 154.491 150.328C154.541 150.369 154.598 150.401 154.661 150.42C154.723 150.439 154.788 150.446 154.853 150.44C154.918 150.434 154.981 150.415 155.038 150.384L157.876 148.938C157.988 148.881 158.073 148.781 158.112 148.662C158.151 148.542 158.141 148.412 158.084 148.3C158.054 148.242 158.012 148.191 157.962 148.149C157.912 148.108 157.855 148.076 157.792 148.057C157.73 148.038 157.665 148.031 157.6 148.037C157.535 148.043 157.472 148.062 157.415 148.093Z" fill="#261A5E"/>
<path fill-rule="evenodd" clip-rule="evenodd" d="M164.504 145.577L167.626 144.971C167.687 144.959 167.75 144.959 167.811 144.971C167.873 144.984 167.931 145.008 167.983 145.043C168.035 145.078 168.079 145.123 168.114 145.175C168.148 145.227 168.171 145.286 168.183 145.347C168.206 145.475 168.177 145.606 168.104 145.713C168.03 145.819 167.918 145.893 167.791 145.917L164.669 146.522C164.546 146.546 164.417 146.519 164.313 146.449C164.209 146.378 164.136 146.27 164.112 146.146C164.089 146.019 164.118 145.887 164.191 145.781C164.264 145.674 164.377 145.601 164.504 145.577Z" fill="#261A5E"/>
<path d="M159.464 153.873C159.939 153.873 160.324 153.488 160.324 153.014C160.324 152.54 159.939 152.155 159.464 152.155C158.988 152.155 158.603 152.54 158.603 153.014C158.603 153.488 158.988 153.873 159.464 153.873Z" fill="#0F0B47"/>
<path d="M167.191 150.94C167.666 150.94 168.051 150.556 168.051 150.082C168.051 149.607 167.666 149.223 167.191 149.223C166.716 149.223 166.33 149.607 166.33 150.082C166.33 150.556 166.716 150.94 167.191 150.94Z" fill="#0F0B47"/>
<path d="M158.819 156.887C160.755 156.887 162.324 155.32 162.324 153.388C162.324 151.455 160.755 149.888 158.819 149.888C156.884 149.888 155.315 151.455 155.315 153.388C155.315 155.32 156.884 156.887 158.819 156.887Z" stroke="white" stroke-width="2" stroke-linecap="round"/>
<path d="M166.995 153.97C168.93 153.97 170.499 152.404 170.499 150.471C170.499 148.538 168.93 146.971 166.995 146.971C165.059 146.971 163.49 148.538 163.49 150.471C163.49 152.404 165.059 153.97 166.995 153.97Z" stroke="white" stroke-width="2" stroke-linecap="round"/>
<path d="M127.576 139.049C131.285 139.049 134.291 136.047 134.291 132.344C134.291 128.64 131.285 125.638 127.576 125.638C123.868 125.638 120.861 128.64 120.861 132.344C120.861 136.047 123.868 139.049 127.576 139.049Z" fill="#261A5E"/>
<path d="M156.222 135.934C157.297 147.681 152.791 155.793 142.705 160.271" stroke="#261A5E" stroke-width="2"/>
<path d="M154.396 134.584C154.704 145.837 150.807 153.952 142.705 158.93" stroke="#F9F9F9" stroke-width="2"/>
<path d="M137.169 163.488C136.914 162.005 137.349 160.933 138.474 160.271C139.599 159.61 140.775 160.146 142.003 161.88" stroke="#0F0B47" stroke-width="2"/>
<path d="M139.831 162.353L141.829 163.486" stroke="#0F0B47" stroke-width="2"/>
<path d="M162.097 151.933L163.492 151.412" stroke="white" stroke-width="2" stroke-linecap="round"/>
<path d="M155.315 153.97L140.17 158.142" stroke="white" stroke-width="2" stroke-linecap="round"/>
<path fill-rule="evenodd" clip-rule="evenodd" d="M140.585 251.193C139.515 250.637 138.618 249.801 137.989 248.774C137.36 247.748 137.025 246.569 137.018 245.366L136.897 220.208L131.805 259.929L183.775 241.359L147.951 251.92C145.494 252.639 142.853 252.378 140.585 251.193Z" fill="#0F0B47"/>
<path fill-rule="evenodd" clip-rule="evenodd" d="M200.182 234.567C202.132 232.637 204.188 230.817 206.342 229.116L211.815 224.794C212.017 224.632 212.26 224.53 212.518 224.501C212.775 224.472 213.035 224.516 213.269 224.628C213.502 224.74 213.698 224.916 213.836 225.135C213.973 225.354 214.045 225.608 214.044 225.866C214.044 227.718 213.536 229.534 212.575 231.119L209.438 236.296L213.427 234.654C219.469 232.168 225.139 228.863 230.277 224.831L236.332 220.077C236.485 219.956 236.67 219.881 236.864 219.86C237.059 219.839 237.255 219.873 237.431 219.959C237.607 220.044 237.755 220.177 237.859 220.342C237.962 220.507 238.017 220.698 238.017 220.894C238.018 222.286 237.578 223.643 236.76 224.771L233.133 229.777C230.952 234.801 227.398 239.11 222.877 242.211L204.558 254.768L199.018 258.089L192.684 239.804L193.594 239.339C196.024 238.097 198.246 236.487 200.182 234.567Z" fill="#FEA7A8"/>
<path d="M207.791 236.856L218.028 232.545" stroke="#0F0B47" stroke-width="2"/>
<path d="M233.128 229.784L229.637 232.545" stroke="#0F0B47" stroke-width="2"/>
<path d="M188.881 199.278C188.346 204.765 189.032 209.289 190.939 212.849C193.799 218.188 196.775 229.061 183.775 241.361" stroke="#0F0B47" stroke-width="2"/>
<path d="M143.024 183.678C144.411 191.854 148.201 195.792 154.394 195.489C163.684 195.044 164.747 186.539 164.217 182.79" stroke="white" stroke-width="2"/>
<path d="M134.291 258.096L127.576 264.43" stroke="#0F0B47" stroke-width="2"/>
<path fill-rule="evenodd" clip-rule="evenodd" d="M441.815 467.408L410.864 458.749L403.632 483.342L434.583 492.003L441.815 467.408Z" fill="#FEA7A8"/>
<path d="M392.55 475.893C392.344 463.905 390.099 457.882 385.812 457.824C381.526 457.766 383.876 465.256 392.862 480.294C386.804 462.456 381.608 456.004 377.276 460.938C375.2 463.301 378.582 470.974 391.018 480.071" stroke="#09072B" stroke-width="2"/>
<path fill-rule="evenodd" clip-rule="evenodd" d="M437.486 486.35L402.352 468.029C398.353 472.253 393.41 474.989 387.525 476.236C378.694 478.103 365.424 478.432 355.929 492.719L405.868 504.733L414.179 500.882L413.486 505.801L434.015 510.962L437.486 486.35Z" fill="#261A5E"/>
<path d="M402.878 481.028L392.081 472.752" stroke="white" stroke-width="2"/>
<path d="M397.49 482.172L386.693 473.895" stroke="white" stroke-width="2"/>
<path d="M392.101 483.313L381.304 475.037" stroke="white" stroke-width="2"/>
<path fill-rule="evenodd" clip-rule="evenodd" d="M539.368 467.444L506.847 458.783L505.109 483.377L537.629 492.036L539.368 467.444Z" fill="#FEA7A8"/>
<path d="M494.026 475.927C493.821 463.937 491.575 457.914 487.289 457.857C483.002 457.801 485.352 465.291 494.338 480.327C488.28 462.489 483.084 456.037 478.75 460.972C476.675 463.335 480.057 471.008 492.494 480.105" stroke="#09072B" stroke-width="2"/>
<path fill-rule="evenodd" clip-rule="evenodd" d="M538.96 486.383L503.827 468.062C499.827 472.288 494.884 475.023 488.999 476.269C480.17 478.138 466.898 478.465 457.406 492.752L507.345 504.766L515.658 500.915L514.965 505.834L535.491 510.996L538.96 486.383Z" fill="#261A5E"/>
<path d="M504.353 481.061L493.556 472.788" stroke="white" stroke-width="2"/>
<path d="M498.964 482.205L488.167 473.929" stroke="white" stroke-width="2"/>
<path d="M493.576 483.348L482.781 475.072" stroke="white" stroke-width="2"/>
<path fill-rule="evenodd" clip-rule="evenodd" d="M543.706 261.175H482.799C471.445 261.175 460.231 263.667 449.95 268.475C445.103 270.743 440.849 274.103 437.522 278.289C434.195 282.476 431.886 287.375 430.777 292.602L394.487 463.559L454.804 474.728L479.14 322.89H524.333L543.706 261.175Z" fill="#017F5D"/>
<path opacity="0.2" d="M435.488 471.237L465.102 320.665C465.563 318.316 466.768 316.177 468.54 314.563C470.311 312.949 472.556 311.946 474.942 311.701L500.186 309.103" stroke="white" stroke-width="2"/>
<path fill-rule="evenodd" clip-rule="evenodd" d="M584.991 261.175L587.153 290.406C587.724 298.115 585.905 305.812 581.943 312.453C580.088 315.564 577.455 318.14 574.302 319.929C571.148 321.718 567.584 322.658 563.956 322.658H549.008C548.103 322.658 547.207 322.836 546.37 323.181C545.534 323.527 544.774 324.033 544.134 324.672C543.494 325.31 542.986 326.069 542.639 326.903C542.293 327.738 542.115 328.632 542.115 329.535C542.115 329.722 542.115 329.909 542.139 330.096L554.031 474.95L488.392 463.866L487.686 322.087C487.633 311.328 489.787 300.672 494.017 290.775C496.035 286.056 499.029 281.815 502.803 278.329C506.577 274.844 511.045 272.193 515.917 270.55L543.706 261.175H584.991Z" fill="#00976F"/>
<path opacity="0.2" d="M537.816 471.237L529.539 321.929C529.381 319.079 530.035 316.242 531.427 313.748C532.085 312.568 533.018 311.563 534.146 310.816C535.274 310.069 536.564 309.603 537.91 309.457L554.325 307.677C559.423 307.122 564.092 304.57 567.304 300.58C570.516 296.591 572.009 291.491 571.454 286.404C571.4 285.91 571.326 285.418 571.231 284.929L566.756 261.182" stroke="white" stroke-width="2"/>
<path fill-rule="evenodd" clip-rule="evenodd" d="M460.87 220.974L419.358 194.721C419.593 191.382 419.258 188.028 418.366 184.801L417.062 174.585C416.988 173.982 416.685 173.43 416.216 173.043C415.746 172.656 415.146 172.463 414.539 172.505C413.931 172.546 413.363 172.818 412.951 173.265C412.538 173.712 412.313 174.3 412.322 174.908L412.365 182.628L410.305 181.275C405.335 178.013 400.787 174.153 396.763 169.782L392.177 164.796C391.78 164.365 391.232 164.104 390.647 164.065C390.062 164.026 389.484 164.213 389.034 164.587C388.588 164.957 388.306 165.488 388.249 166.064C388.192 166.64 388.364 167.216 388.728 167.666L395.729 176.323C397.034 177.936 398.408 179.488 399.851 180.977L400.578 181.718C398.112 180.898 395.871 179.521 394.028 177.693L386.314 170.038C385.862 169.589 385.254 169.333 384.617 169.324C383.98 169.316 383.364 169.555 382.901 169.991C382.441 170.423 382.171 171.019 382.15 171.648C382.128 172.278 382.357 172.891 382.787 173.353L392.688 183.994L395.341 186.886C392.812 185.404 390.475 183.617 388.385 181.564L382.307 175.611C381.869 175.182 381.283 174.937 380.67 174.927C380.056 174.917 379.462 175.143 379.01 175.557C378.598 175.937 378.347 176.459 378.305 177.017C378.264 177.576 378.436 178.129 378.787 178.565L378.925 178.723L386.599 186.617C386.969 186.999 387.341 187.378 387.714 187.753L392.099 192.118L389.823 191.086C387.774 190.158 385.785 189.102 383.868 187.927L382.241 186.926C381.925 186.732 381.545 186.672 381.185 186.758C380.824 186.844 380.513 187.069 380.319 187.384L380.285 187.444C380.088 187.803 380.024 188.219 380.106 188.62C380.187 189.021 380.409 189.38 380.731 189.633L382.238 190.819C384.009 192.215 385.88 193.48 387.836 194.601L393.214 197.683L405.846 206.757L451.27 247.637C454.075 250.403 463.253 255.689 468.528 256.837C473.803 257.985 480.458 253.42 483.276 249.693C485.156 247.21 490.335 236.772 498.812 218.38L471.656 197.614L460.87 220.974Z" fill="#FEA7A8"/>
<path d="M412.365 182.637C406.161 188.718 406.087 194.675 412.142 200.51" stroke="#0F0B47" stroke-width="2"/>
<path d="M403.211 180.543C398.923 183.891 395.354 188.066 392.717 192.819" stroke="#0F0B47" stroke-width="2"/>
<path d="M401.119 182.149C398.279 179.48 396.341 177.411 395.305 175.944" stroke="#0F0B47" stroke-width="2"/>
<path d="M396.15 187.284L390.931 182.252" stroke="#0F0B47" stroke-width="2"/>
<path d="M392.719 192.817L386.503 186.828" stroke="#0F0B47" stroke-width="2"/>
<path d="M460.87 220.974L466.582 231.288" stroke="#0F0B47" stroke-width="2"/>
<path fill-rule="evenodd" clip-rule="evenodd" d="M572.094 164.876C576.044 166.447 579.58 168.904 582.427 172.056C585.274 175.208 587.356 178.971 588.513 183.055L598.1 216.871H566.304L571.322 261.366H499.397L494.017 216.871L465.175 207.14L475.337 178.948C477.456 173.065 481.271 167.939 486.303 164.215C491.308 160.512 497.404 158.573 503.633 158.703L545.731 159.552C554.767 159.734 563.697 161.537 572.094 164.876Z" fill="#FF2200"/>
<path fill-rule="evenodd" clip-rule="evenodd" d="M511.928 124.479C504.087 117.186 502.151 110.049 506.121 103.068C511.36 93.8553 527.267 98.5784 539.54 106.332C542.705 106.849 544.683 107.329 545.472 107.771C553.351 112.192 548.611 120.036 545.802 128.239L534.124 132.882L511.928 124.479Z" fill="#261A5E"/>
<path fill-rule="evenodd" clip-rule="evenodd" d="M511.404 119.894L509.639 140.273C509.411 142.913 510.003 145.559 511.333 147.852C511.963 148.939 512.849 149.855 513.915 150.522C514.98 151.19 516.192 151.587 517.446 151.681L520.674 151.922L519.751 162.93C519.643 164.212 519.788 165.503 520.18 166.729C520.572 167.955 521.202 169.092 522.034 170.074C522.867 171.057 523.885 171.866 525.031 172.456C526.177 173.046 527.429 173.404 528.714 173.511C528.986 173.533 529.26 173.544 529.532 173.544C532.418 173.544 535.196 172.443 537.296 170.467C539.395 168.49 540.658 165.787 540.826 162.912L542.353 136.824C547.303 135.309 549.545 133.101 549.082 130.201C548.618 127.302 546.773 126.666 543.548 128.295C539.459 132.806 536.491 130.742 534.644 122.101C532.156 120.745 530.911 119.064 530.91 117.057C528.591 117.845 526.674 117.368 525.158 115.627C522.866 116.491 520.89 117.324 519.23 118.125C517.714 118.856 515.105 119.446 511.404 119.894Z" fill="#FEA7A8"/>
<path fill-rule="evenodd" clip-rule="evenodd" d="M538.412 124.441C539.027 126.949 540.439 128.247 542.648 128.335L542.349 130.53C541.822 134.401 540.646 138.155 538.871 141.636C537.102 145.097 534.601 148.133 531.541 150.535L530.259 151.539L520.659 152.914V151.924L517.433 151.683C516.178 151.59 514.966 151.192 513.9 150.525C512.834 149.858 511.948 148.941 511.318 147.855C510.032 145.643 509.435 143.1 509.603 140.548L509.623 140.277L509.873 137.385C511.002 136.724 512.303 136.415 513.609 136.495L522.349 137.04C524.069 137.149 525.714 137.781 527.064 138.851C527.671 139.332 528.411 139.615 529.185 139.66C529.959 139.706 530.728 139.512 531.387 139.105L531.797 138.851C533.532 137.779 534.906 136.214 535.743 134.357L538.744 127.707L538.412 124.441Z" fill="#261A5E"/>
<path fill-rule="evenodd" clip-rule="evenodd" d="M521.499 140.104L513.297 139.565C513.883 142.131 515.004 143.602 516.659 143.977C518.315 144.352 519.928 143.061 521.499 140.104Z" fill="white"/>
<path d="M518.654 128.822C518.686 130.82 518.091 132.099 516.871 132.66C515.043 133.503 515.357 136.299 517.937 135.937" stroke="#0F0B47" stroke-width="2"/>
<path fill-rule="evenodd" clip-rule="evenodd" d="M523.372 123.551L526.27 124.546C526.327 124.565 526.379 124.596 526.424 124.636C526.469 124.675 526.506 124.724 526.532 124.778C526.559 124.832 526.574 124.89 526.578 124.95C526.581 125.01 526.573 125.07 526.553 125.127C526.51 125.243 526.424 125.338 526.312 125.391C526.2 125.444 526.071 125.451 525.954 125.411L523.055 124.417C522.999 124.397 522.946 124.367 522.901 124.327C522.856 124.287 522.819 124.239 522.793 124.185C522.767 124.131 522.751 124.073 522.748 124.013C522.744 123.953 522.753 123.893 522.772 123.836C522.815 123.719 522.901 123.624 523.013 123.571C523.126 123.518 523.255 123.511 523.372 123.551Z" fill="#261A5E"/>
<path fill-rule="evenodd" clip-rule="evenodd" d="M516.278 123.213L513.217 123.055C513.157 123.05 513.096 123.058 513.038 123.077C512.981 123.097 512.928 123.127 512.883 123.168C512.838 123.208 512.802 123.257 512.776 123.312C512.751 123.367 512.737 123.426 512.735 123.487C512.731 123.61 512.775 123.73 512.859 123.821C512.942 123.912 513.058 123.967 513.181 123.974L516.244 124.132C516.305 124.137 516.365 124.129 516.422 124.109C516.479 124.09 516.532 124.059 516.577 124.019C516.622 123.978 516.658 123.929 516.683 123.875C516.708 123.82 516.722 123.761 516.724 123.7C516.729 123.577 516.685 123.457 516.601 123.366C516.518 123.274 516.402 123.22 516.278 123.213Z" fill="#261A5E"/>
<path d="M523.205 128.797C523.68 128.797 524.065 128.413 524.065 127.939C524.065 127.464 523.68 127.08 523.205 127.08C522.729 127.08 522.344 127.464 522.344 127.939C522.344 128.413 522.729 128.797 523.205 128.797Z" fill="#0F0B47"/>
<path d="M514.884 128.161C515.36 128.161 515.745 127.777 515.745 127.302C515.745 126.828 515.36 126.444 514.884 126.444C514.409 126.444 514.024 126.828 514.024 127.302C514.024 127.777 514.409 128.161 514.884 128.161Z" fill="#0F0B47"/>
<path fill-rule="evenodd" clip-rule="evenodd" d="M520.674 151.922C524.598 152.252 529.469 150.621 535.286 147.027L519.816 162.113L520.674 151.922Z" fill="#E19394"/>
<path d="M543.526 130.143C545.55 128.976 546.797 128.976 547.267 130.143C547.737 131.311 547.113 132.418 545.396 133.465" stroke="#0F0B47" stroke-width="2"/>
<path d="M539.542 106.329L537.018 108.993" stroke="#F9F9F9" stroke-width="2"/>
<path d="M539.542 118.512L544.895 124.163" stroke="#F9F9F9" stroke-width="2"/>
<path d="M537.854 121.313L543.207 126.962" stroke="#F9F9F9" stroke-width="2"/>
<path fill-rule="evenodd" clip-rule="evenodd" d="M564.942 194.163L566.299 216.878L571.318 261.373H499.397L496.695 240.988L505.389 240.609C532.347 239.435 553.436 219.352 564.603 194.906L564.942 194.163Z" fill="#EE2304"/>
<path fill-rule="evenodd" clip-rule="evenodd" d="M494.022 216.876L495.495 194.161L483.459 213.276L494.022 216.876Z" fill="black"/>
<path fill-rule="evenodd" clip-rule="evenodd" d="M568.901 233.437L532.593 211.921C532.828 208.583 532.493 205.229 531.601 202.003L530.297 191.787C530.218 191.188 529.914 190.641 529.445 190.258C528.977 189.875 528.38 189.685 527.776 189.726C527.172 189.767 526.606 190.037 526.194 190.48C525.782 190.922 525.555 191.505 525.559 192.11L525.601 199.829L523.539 198.477C518.57 195.215 514.022 191.354 510 186.982L505.412 181.998C505.015 181.566 504.467 181.304 503.882 181.265C503.297 181.226 502.719 181.414 502.268 181.789C501.822 182.159 501.541 182.69 501.483 183.266C501.426 183.842 501.598 184.418 501.963 184.868L508.961 193.516C510.267 195.126 511.642 196.678 513.083 198.17L513.81 198.911C511.345 198.09 509.104 196.712 507.262 194.884L499.546 187.229C499.095 186.781 498.486 186.526 497.85 186.517C497.213 186.509 496.598 186.748 496.135 187.184C495.676 187.616 495.406 188.211 495.384 188.84C495.363 189.469 495.591 190.081 496.019 190.543L505.922 201.187L508.575 204.079C506.046 202.598 503.709 200.811 501.62 198.757L495.542 192.795C495.105 192.366 494.519 192.121 493.905 192.111C493.292 192.101 492.698 192.327 492.247 192.741C491.835 193.122 491.583 193.643 491.542 194.202C491.501 194.76 491.673 195.313 492.024 195.749L492.165 195.907L499.836 203.801C500.209 204.183 500.581 204.562 500.951 204.938L505.338 209.303L503.06 208.27C501.011 207.341 499.023 206.286 497.107 205.109L495.477 204.11C495.162 203.917 494.782 203.856 494.422 203.942C494.061 204.028 493.75 204.253 493.556 204.568L493.522 204.626C493.325 204.985 493.261 205.401 493.343 205.802C493.424 206.203 493.646 206.562 493.968 206.815L495.477 208.003C497.247 209.399 499.118 210.663 501.073 211.785L506.451 214.867L519.082 223.944C548.683 249.06 564.67 262.571 567.044 264.477C570.611 267.338 576.804 271.596 582.632 271.596C588.46 271.596 594.921 270.744 599.007 262.668C601.734 257.284 600.897 242.027 596.495 216.898L566.299 216.887L568.901 233.437Z" fill="#FEA7A8"/>
<path d="M568.174 232.711L574.018 238.83" stroke="#0F0B47" stroke-width="2"/>
<path d="M510.64 195.634L514.951 199.794" stroke="#0F0B47" stroke-width="2"/>
<path d="M505.3 200.546L509.298 204.579" stroke="#0F0B47" stroke-width="2"/>
<path d="M502.687 206.597L505.851 209.752" stroke="#0F0B47" stroke-width="2"/>
<path d="M519.836 158.502C518.995 167.305 521.567 172.32 527.552 173.546C536.528 175.384 540.518 166.887 541.598 159.899" stroke="white" stroke-width="2"/>
<path d="M566.068 212.228H598.102" stroke="white" stroke-width="2"/>
<path d="M465.18 203.374L494.383 213.223" stroke="white" stroke-width="2"/>
<path d="M566.304 216.876L564.948 194.161" stroke="black" stroke-width="2"/>
</g>
<path d="M679 506C679 486.904 686.586 468.591 700.088 455.088C713.591 441.586 731.904 434 751 434L679 506C698.096 506 716.409 498.414 729.912 484.912C743.414 471.409 751 453.096 751 434" fill="#006F3A" fill-opacity="0.7"/>
<path d="M656.501 201.002C668.928 201.002 679.002 190.928 679.002 178.501C679.002 166.074 668.928 156 656.501 156C644.074 156 634 166.074 634 178.501C634 190.928 644.074 201.002 656.501 201.002Z" fill="#008C49"/>
<path d="M329 237C336.18 237 342 231.18 342 224C342 216.82 336.18 211 329 211C321.82 211 316 216.82 316 224C316 231.18 321.82 237 329 237Z" fill="#00B35C"/>
<path d="M625 336H670.002L625 381.002V336Z" fill="#00A856"/>
<path d="M2.00588 278.589L26.5012 254.094L50.9965 278.589L26.5012 303.085L2.00588 278.589Z" stroke="#00924B" stroke-width="2"/>
<path d="M236 0C244.142 0 252.204 1.60368 259.726 4.71947C267.249 7.83526 274.083 12.4022 279.841 18.1594C285.598 23.9166 290.165 30.7514 293.281 38.2736C296.396 45.7958 298 53.858 298 62L236 0C236 16.4434 242.532 32.2134 254.159 43.8406C265.787 55.4679 281.557 62 298 62" fill="#00713B"/>
<path d="M86 438C67.9653 438 50.6692 445.164 37.9168 457.917C25.1643 470.669 18 487.965 18 506L86 506" fill="#006635" fill-opacity="0.9"/>
<defs>
<clipPath id="clip0_31_1644">
<rect width="541" height="413" fill="white" transform="translate(84 98)"/>
</clipPath>
</defs>
</svg>
