<svg width="150" height="50" viewBox="0 0 171 58" fill="none" xmlns="http://www.w3.org/2000/svg">
<path d="M110.288 41.6601H105.927C104.921 41.6601 103.957 41.263 103.245 40.5564C102.534 39.8498 102.135 38.8915 102.135 37.8922V16.7419H106.496C107.502 16.7419 108.466 17.1388 109.177 17.8454C109.888 18.5521 110.288 19.5104 110.288 20.5097V41.6601Z" fill="#010101"/>
<path d="M145.416 41.6601H141.055C140.049 41.6601 139.085 41.263 138.373 40.5564C137.662 39.8498 137.263 38.8915 137.263 37.8922V16.7419H141.624C142.629 16.7419 143.594 17.1388 144.305 17.8454C145.016 18.5521 145.416 19.5104 145.416 20.5097V41.6601Z" fill="#010101"/>
<path d="M134.431 16.7419V19.6933C134.433 20.0441 134.365 20.3917 134.231 20.7162C134.097 21.0407 133.9 21.3357 133.651 21.5843C133.402 21.8328 133.106 22.0301 132.78 22.1647C132.454 22.2993 132.104 22.3685 131.751 22.3685H120.956V26.3876H132.219V29.3014C132.219 30.0121 131.936 30.6939 131.431 31.1976C130.927 31.7012 130.242 31.9859 129.527 31.9892H120.956V41.2832H116.469C115.684 41.2832 114.93 40.974 114.373 40.4232C113.816 39.8724 113.502 39.1249 113.499 38.3443V16.7419H134.431Z" fill="#010101"/>
<path d="M156.426 23.7501V34.2373C156.426 34.6037 156.572 34.9552 156.833 35.2142C157.094 35.4733 157.447 35.6189 157.816 35.6189H170.987V39.6003C170.987 40.1432 170.77 40.6639 170.384 41.0479C169.998 41.4318 169.473 41.6475 168.927 41.6475H152.204C151.246 41.6475 150.327 41.2711 149.647 40.6006C148.968 39.93 148.583 39.0196 148.576 38.068V19.932C148.58 19.6182 148.622 19.3061 148.702 19.0026C148.908 18.2359 149.363 17.5583 149.996 17.0746C150.629 16.5909 151.405 16.3282 152.204 16.3274H168.94C169.486 16.3274 170.01 16.5431 170.397 16.927C170.783 17.3109 171 17.8317 171 18.3746V22.356H157.829C157.459 22.3624 157.105 22.5114 156.844 22.7714C156.582 23.0315 156.432 23.3824 156.426 23.7501Z" fill="#010101"/>
<path d="M25.875 23.3858H0L30.3371 2.98914L42.8258 11.8562L25.875 23.3858Z" fill="url(#paint0_linear_30_1275)"/>
<path d="M0 34.7272L33.9017 58L46.5421 48.6934L27.0379 34.7272H0Z" fill="url(#paint1_linear_30_1275)"/>
<path d="M33.927 57.9999L75.9817 27.1537L88.3694 36.6864L61.0281 58.0377L33.927 57.9999Z" fill="url(#paint2_linear_30_1275)"/>
<path d="M87.611 19.2538L59.2205 0H33.3455L83.1742 35.5812C83.4369 35.7544 83.6678 35.971 83.8568 36.2218C84.3714 36.8776 84.6043 37.7089 84.5049 38.5346C84.4054 39.3603 83.9816 40.1135 83.3258 40.6302L86.7388 37.955L88.42 36.5734C89.5216 35.6656 90.4323 34.551 91.1003 33.2934C91.7683 32.0358 92.1804 30.6597 92.313 29.2438C92.4457 27.8279 92.2962 26.3999 91.8733 25.0414C91.4504 23.6828 90.7624 22.4204 89.8484 21.3262C89.2064 20.5324 88.4528 19.8345 87.611 19.2538Z" fill="url(#paint3_linear_30_1275)"/>
<defs>
<linearGradient id="paint0_linear_30_1275" x1="9.16736" y1="25.3918" x2="17.7014" y2="1.03385" gradientUnits="userSpaceOnUse">
<stop stop-color="#D52027"/>
<stop offset="1" stop-color="#700F10"/>
</linearGradient>
<linearGradient id="paint1_linear_30_1275" x1="39.6532" y1="54.1708" x2="32.0075" y2="30.7538" gradientUnits="userSpaceOnUse">
<stop stop-color="#18A64A"/>
<stop offset="1" stop-color="#03793E"/>
</linearGradient>
<linearGradient id="paint2_linear_30_1275" x1="79.0269" y1="33.3189" x2="66.048" y2="65.0677" gradientUnits="userSpaceOnUse">
<stop stop-color="#1DAB4B"/>
<stop offset="1" stop-color="#075F31"/>
</linearGradient>
<linearGradient id="paint3_linear_30_1275" x1="44.7442" y1="2.60862" x2="73.0207" y2="41.4234" gradientUnits="userSpaceOnUse">
<stop stop-color="#D52027"/>
<stop offset="1" stop-color="#700F10"/>
</linearGradient>
</defs>
</svg>
