<svg width="244" height="57" viewBox="0 0 244 57" fill="none" xmlns="http://www.w3.org/2000/svg">
    <g class="o-click-logo">
        <path fill-rule="evenodd" clip-rule="evenodd"
              d="M202.66 14.4C204.681 14.4 206.32 16.0565 206.32 18.1V33.9481C206.319 35.9639 206.711 37.9601 207.473 39.8227C208.236 41.6853 209.354 43.3778 210.764 44.8035C212.173 46.2291 213.847 47.36 215.689 48.1315C217.531 48.9031 219.506 49.3001 221.5 49.2999L221.5 53V49.2999C223.493 49.2999 225.467 48.903 227.309 48.1318C229.151 47.3606 230.824 46.2302 232.234 44.8052C233.644 43.3801 234.762 41.6884 235.525 39.8265C236.287 37.9646 236.68 35.9691 236.68 33.9538V21.1799C236.68 19.1364 238.319 17.4799 240.34 17.4799C242.361 17.4799 244 19.1364 244 21.1799V33.9538C244 36.9409 243.418 39.8987 242.287 42.6584C241.157 45.4181 239.499 47.9256 237.41 50.0378C235.321 52.15 232.84 53.8254 230.11 54.9685C227.381 56.1116 224.455 56.6999 221.5 56.7M221.5 56.7C218.545 56.7002 215.618 56.1117 212.888 54.9681C210.157 53.8245 207.676 52.1482 205.587 50.0351C203.497 47.9219 201.84 45.4132 200.71 42.6523C199.58 39.892 198.999 36.9337 199 33.9464C199 33.9462 199 33.9461 199 33.9459V18.1C199 16.0565 200.639 14.4 202.66 14.4"
              fill="#05A256"/>
        <path fill-rule="evenodd" clip-rule="evenodd"
              d="M212.451 0C214.413 0 216.003 1.65628 216.003 3.69939V34.5745C216.003 36.0933 216.582 37.5499 217.613 38.6239C218.644 39.6979 220.042 40.3012 221.5 40.3012C222.958 40.3012 224.356 39.6979 225.387 38.6239C226.418 37.5499 226.997 36.0933 226.997 34.5745V19.2043C226.997 17.1612 228.587 15.5049 230.549 15.5049C232.51 15.5049 234.1 17.1612 234.1 19.2043V34.5745C234.1 38.0556 232.773 41.3941 230.41 43.8556C228.047 46.3171 224.842 47.7 221.5 47.7C218.158 47.7 214.953 46.3171 212.591 43.8556C210.228 41.3941 208.9 38.0556 208.9 34.5745V3.69939C208.9 1.65628 210.49 0 212.451 0Z"
              fill="#039E9E"/>
        <path fill-rule="evenodd" clip-rule="evenodd"
              d="M221.5 9C223.488 9 225.1 10.6705 225.1 12.7312V34.9688C225.1 37.0295 223.488 38.7 221.5 38.7C219.512 38.7 217.9 37.0295 217.9 34.9688V12.7312C217.9 10.6705 219.512 9 221.5 9Z"
              fill="#05D1DE"/>
    </g>
    <g class="o-click-text">
        <path
            d="M71.1705 19.3636C71.1705 21.7879 70.7386 23.8977 69.875 25.6932C69.0114 27.4811 67.822 28.8674 66.3068 29.8523C64.7992 30.8295 63.0644 31.3182 61.1023 31.3182C59.1402 31.3182 57.4015 30.8295 55.8864 29.8523C54.3788 28.8674 53.1932 27.4811 52.3295 25.6932C51.4735 23.8977 51.0455 21.7879 51.0455 19.3636C51.0455 16.9394 51.4735 14.8333 52.3295 13.0455C53.1932 11.25 54.3826 9.86364 55.8977 8.88636C57.4129 7.90151 59.1477 7.40909 61.1023 7.40909C63.0644 7.40909 64.7992 7.90151 66.3068 8.88636C67.822 9.86364 69.0114 11.25 69.875 13.0455C70.7386 14.8333 71.1705 16.9394 71.1705 19.3636ZM69.1023 19.3636C69.1023 17.2803 68.7538 15.4962 68.0568 14.0114C67.3598 12.5189 66.4091 11.3788 65.2045 10.5909C64 9.80303 62.6326 9.40909 61.1023 9.40909C59.5795 9.40909 58.2159 9.80303 57.0114 10.5909C55.8068 11.3788 54.8523 12.5152 54.1477 14C53.4508 15.4848 53.1023 17.2727 53.1023 19.3636C53.1023 21.447 53.4508 23.2311 54.1477 24.7159C54.8447 26.2008 55.7955 27.3409 57 28.1364C58.2045 28.9242 59.572 29.3182 61.1023 29.3182C62.6326 29.3182 64 28.9242 65.2045 28.1364C66.4167 27.3485 67.3712 26.2121 68.0682 24.7273C68.7652 23.2348 69.1098 21.447 69.1023 19.3636ZM77.9119 20.0909V31H75.8892V13.5455H77.8551V16.2841H78.0369C78.446 15.3902 79.0824 14.6742 79.946 14.1364C80.8172 13.5909 81.893 13.3182 83.1733 13.3182C84.3475 13.3182 85.3778 13.5644 86.2642 14.0568C87.1581 14.5417 87.8513 15.2576 88.3438 16.2045C88.8438 17.1515 89.0938 18.3144 89.0938 19.6932V31H87.071V19.8182C87.071 18.3864 86.6695 17.2538 85.8665 16.4205C85.071 15.5871 84.0028 15.1705 82.6619 15.1705C81.7453 15.1705 80.9309 15.3674 80.2188 15.7614C79.5066 16.1553 78.9422 16.7235 78.5256 17.4659C78.1165 18.2008 77.9119 19.0758 77.9119 20.0909ZM101.477 31.3636C99.8485 31.3636 98.4394 30.9848 97.25 30.2273C96.0606 29.4621 95.1402 28.4053 94.4886 27.0568C93.8447 25.7008 93.5227 24.1402 93.5227 22.375C93.5227 20.6174 93.8447 19.0568 94.4886 17.6932C95.1402 16.322 96.0379 15.25 97.1818 14.4773C98.3333 13.697 99.6629 13.3068 101.17 13.3068C102.117 13.3068 103.03 13.4811 103.909 13.8295C104.788 14.1705 105.576 14.697 106.273 15.4091C106.977 16.1136 107.534 17.0038 107.943 18.0795C108.352 19.1477 108.557 20.4129 108.557 21.875V22.875H94.9205V21.0909H106.489C106.489 19.9697 106.261 18.9621 105.807 18.0682C105.36 17.1667 104.735 16.4545 103.932 15.9318C103.136 15.4091 102.216 15.1477 101.17 15.1477C100.064 15.1477 99.0909 15.4432 98.25 16.0341C97.4091 16.625 96.75 17.4053 96.2727 18.375C95.803 19.3447 95.5644 20.4053 95.5568 21.5568V22.625C95.5568 24.0114 95.7955 25.2235 96.2727 26.2614C96.7576 27.2917 97.4432 28.0909 98.3295 28.6591C99.2159 29.2273 100.265 29.5114 101.477 29.5114C102.303 29.5114 103.027 29.3826 103.648 29.125C104.277 28.8674 104.803 28.5227 105.227 28.0909C105.659 27.6515 105.985 27.1705 106.205 26.6477L108.125 27.2727C107.86 28.0076 107.424 28.6856 106.818 29.3068C106.22 29.928 105.47 30.428 104.568 30.8068C103.674 31.178 102.644 31.3636 101.477 31.3636Z"
            fill="#C51E24"/>
        <path
            d="M132.901 15.875H127.923C127.832 15.2311 127.647 14.6591 127.366 14.1591C127.086 13.6515 126.726 13.2197 126.287 12.8636C125.848 12.5076 125.34 12.2348 124.764 12.0455C124.196 11.8561 123.579 11.7614 122.912 11.7614C121.707 11.7614 120.658 12.0606 119.764 12.6591C118.87 13.25 118.177 14.1136 117.685 15.25C117.192 16.3788 116.946 17.75 116.946 19.3636C116.946 21.0227 117.192 22.4167 117.685 23.5455C118.185 24.6742 118.882 25.5265 119.776 26.1023C120.67 26.678 121.704 26.9659 122.878 26.9659C123.537 26.9659 124.147 26.8788 124.707 26.7045C125.276 26.5303 125.779 26.2765 126.219 25.9432C126.658 25.6023 127.022 25.1894 127.31 24.7045C127.605 24.2197 127.81 23.6667 127.923 23.0455L132.901 23.0682C132.772 24.1364 132.45 25.1667 131.935 26.1591C131.427 27.1439 130.741 28.0265 129.878 28.8068C129.022 29.5795 127.999 30.1932 126.81 30.6477C125.628 31.0947 124.291 31.3182 122.798 31.3182C120.723 31.3182 118.866 30.8485 117.23 29.9091C115.601 28.9697 114.313 27.6098 113.366 25.8295C112.427 24.0492 111.957 21.8939 111.957 19.3636C111.957 16.8258 112.435 14.6667 113.389 12.8864C114.344 11.1061 115.639 9.75 117.276 8.81818C118.912 7.87879 120.753 7.40909 122.798 7.40909C124.147 7.40909 125.397 7.59848 126.548 7.97727C127.707 8.35606 128.734 8.90909 129.628 9.63636C130.522 10.3561 131.249 11.2386 131.81 12.2841C132.378 13.3295 132.741 14.5265 132.901 15.875ZM141.179 7.72727V31H136.338V7.72727H141.179ZM145.057 31V13.5455H149.898V31H145.057ZM147.489 11.2955C146.769 11.2955 146.152 11.0568 145.636 10.5795C145.129 10.0947 144.875 9.51515 144.875 8.84091C144.875 8.17424 145.129 7.60227 145.636 7.125C146.152 6.64015 146.769 6.39773 147.489 6.39773C148.208 6.39773 148.822 6.64015 149.33 7.125C149.845 7.60227 150.102 8.17424 150.102 8.84091C150.102 9.51515 149.845 10.0947 149.33 10.5795C148.822 11.0568 148.208 11.2955 147.489 11.2955ZM161.662 31.3409C159.874 31.3409 158.336 30.9621 157.048 30.2045C155.768 29.4394 154.783 28.3788 154.094 27.0227C153.412 25.6667 153.071 24.1061 153.071 22.3409C153.071 20.553 153.416 18.9848 154.105 17.6364C154.802 16.2803 155.791 15.2235 157.071 14.4659C158.351 13.7008 159.874 13.3182 161.639 13.3182C163.162 13.3182 164.495 13.5947 165.639 14.1477C166.783 14.7008 167.688 15.4773 168.355 16.4773C169.022 17.4773 169.389 18.6515 169.457 20H164.889C164.76 19.1288 164.42 18.428 163.866 17.8977C163.321 17.3598 162.605 17.0909 161.719 17.0909C160.969 17.0909 160.313 17.2955 159.753 17.7045C159.2 18.1061 158.768 18.6932 158.457 19.4659C158.147 20.2386 157.991 21.1742 157.991 22.2727C157.991 23.3864 158.143 24.3333 158.446 25.1136C158.757 25.8939 159.192 26.4886 159.753 26.8977C160.313 27.3068 160.969 27.5114 161.719 27.5114C162.272 27.5114 162.768 27.3977 163.207 27.1705C163.654 26.9432 164.022 26.6136 164.31 26.1818C164.605 25.7424 164.798 25.2159 164.889 24.6023H169.457C169.382 25.9356 169.018 27.1098 168.366 28.125C167.723 29.1326 166.832 29.9205 165.696 30.4886C164.56 31.0568 163.215 31.3409 161.662 31.3409ZM176.943 25.9773L176.955 20.1705H177.659L183.25 13.5455H188.807L181.295 22.3182H180.148L176.943 25.9773ZM172.557 31V7.72727H177.398V31H172.557ZM183.466 31L178.33 23.3977L181.557 19.9773L189.136 31H183.466Z"
            fill="#00793F"/>
        <path
            d="M2.46591 43.8182V54H1.23295V43.8182H2.46591ZM4.93803 54V43.8182H11.0431V44.9119H6.17099V48.3523H10.5858V49.446H6.17099V54H4.93803ZM14.3878 43.8182V54H13.1548V43.8182H14.3878ZM25.0531 47H23.8201C23.7472 46.6454 23.6196 46.3338 23.4373 46.0653C23.2583 45.7969 23.0396 45.5715 22.7811 45.3892C22.5259 45.2036 22.2425 45.0644 21.9309 44.9716C21.6194 44.8788 21.2946 44.8324 20.9565 44.8324C20.34 44.8324 19.7815 44.9882 19.2811 45.2997C18.7839 45.6113 18.3878 46.0703 18.0929 46.6768C17.8012 47.2834 17.6554 48.0275 17.6554 48.9091C17.6554 49.7907 17.8012 50.5348 18.0929 51.1413C18.3878 51.7479 18.7839 52.2069 19.2811 52.5185C19.7815 52.83 20.34 52.9858 20.9565 52.9858C21.2946 52.9858 21.6194 52.9394 21.9309 52.8466C22.2425 52.7538 22.5259 52.6162 22.7811 52.4339C23.0396 52.2483 23.2583 52.0213 23.4373 51.7528C23.6196 51.4811 23.7472 51.1695 23.8201 50.8182H25.0531C24.9603 51.3385 24.7913 51.8042 24.546 52.2152C24.3007 52.6262 23.9958 52.9759 23.6312 53.2642C23.2666 53.5492 22.8573 53.7663 22.4032 53.9155C21.9525 54.0646 21.4702 54.1392 20.9565 54.1392C20.0881 54.1392 19.3159 53.9271 18.6397 53.5028C17.9636 53.0786 17.4316 52.4754 17.0439 51.6932C16.6561 50.911 16.4622 49.983 16.4622 48.9091C16.4622 47.8352 16.6561 46.9072 17.0439 46.125C17.4316 45.3428 17.9636 44.7396 18.6397 44.3153C19.3159 43.8911 20.0881 43.679 20.9565 43.679C21.4702 43.679 21.9525 43.7536 22.4032 43.9027C22.8573 44.0518 23.2666 44.2706 23.6312 44.5589C23.9958 44.844 24.3007 45.192 24.546 45.603C24.7913 46.0107 24.9603 46.4763 25.0531 47ZM39.1761 47H37.9432C37.8703 46.6454 37.7427 46.3338 37.5604 46.0653C37.3814 45.7969 37.1626 45.5715 36.9041 45.3892C36.6489 45.2036 36.3655 45.0644 36.054 44.9716C35.7424 44.8788 35.4176 44.8324 35.0795 44.8324C34.4631 44.8324 33.9046 44.9882 33.4041 45.2997C32.907 45.6113 32.5109 46.0703 32.2159 46.6768C31.9242 47.2834 31.7784 48.0275 31.7784 48.9091C31.7784 49.7907 31.9242 50.5348 32.2159 51.1413C32.5109 51.7479 32.907 52.2069 33.4041 52.5185C33.9046 52.83 34.4631 52.9858 35.0795 52.9858C35.4176 52.9858 35.7424 52.9394 36.054 52.8466C36.3655 52.7538 36.6489 52.6162 36.9041 52.4339C37.1626 52.2483 37.3814 52.0213 37.5604 51.7528C37.7427 51.4811 37.8703 51.1695 37.9432 50.8182H39.1761C39.0833 51.3385 38.9143 51.8042 38.669 52.2152C38.4238 52.6262 38.1188 52.9759 37.7543 53.2642C37.3897 53.5492 36.9804 53.7663 36.5263 53.9155C36.0755 54.0646 35.5933 54.1392 35.0795 54.1392C34.2112 54.1392 33.4389 53.9271 32.7628 53.5028C32.0866 53.0786 31.5547 52.4754 31.1669 51.6932C30.7791 50.911 30.5852 49.983 30.5852 48.9091C30.5852 47.8352 30.7791 46.9072 31.1669 46.125C31.5547 45.3428 32.0866 44.7396 32.7628 44.3153C33.4389 43.8911 34.2112 43.679 35.0795 43.679C35.5933 43.679 36.0755 43.7536 36.5263 43.9027C36.9804 44.0518 37.3897 44.2706 37.7543 44.5589C38.1188 44.844 38.4238 45.192 38.669 45.603C38.9143 46.0107 39.0833 46.4763 39.1761 47ZM45.8219 50.8778V46.3636H46.9952V54H45.8219V52.7074H45.7424C45.5634 53.0952 45.285 53.425 44.9071 53.6967C44.5293 53.9652 44.052 54.0994 43.4753 54.0994C42.998 54.0994 42.5738 53.995 42.2026 53.7862C41.8314 53.5741 41.5397 53.2559 41.3276 52.8317C41.1155 52.4041 41.0094 51.8655 41.0094 51.2159V46.3636H42.1827V51.1364C42.1827 51.6932 42.3385 52.1373 42.65 52.4688C42.9649 52.8002 43.3659 52.9659 43.8532 52.9659C44.1448 52.9659 44.4415 52.8913 44.7431 52.7422C45.048 52.593 45.3032 52.3643 45.5087 52.0561C45.7175 51.7479 45.8219 51.3551 45.8219 50.8778ZM54.5533 48.0739L53.4993 48.3722C53.433 48.1965 53.3352 48.0258 53.206 47.8601C53.08 47.6911 52.9077 47.5518 52.6889 47.4425C52.4702 47.3331 52.1901 47.2784 51.8487 47.2784C51.3814 47.2784 50.992 47.3861 50.6804 47.6016C50.3722 47.8137 50.218 48.0838 50.218 48.4119C50.218 48.7036 50.3241 48.9339 50.5362 49.103C50.7483 49.272 51.0798 49.4129 51.5305 49.5256L52.6641 49.804C53.3468 49.9697 53.8556 50.2232 54.1903 50.5646C54.5251 50.9027 54.6925 51.3385 54.6925 51.8722C54.6925 52.3097 54.5665 52.7008 54.3146 53.0455C54.0661 53.3902 53.718 53.6619 53.2706 53.8608C52.8232 54.0597 52.3028 54.1591 51.7095 54.1591C50.9306 54.1591 50.286 53.9901 49.7756 53.652C49.2652 53.3139 48.942 52.8201 48.8061 52.1705L49.9197 51.892C50.0258 52.303 50.2263 52.6113 50.5213 52.8168C50.8196 53.0223 51.209 53.125 51.6896 53.125C52.2365 53.125 52.6707 53.009 52.9922 52.777C53.317 52.5417 53.4794 52.2599 53.4794 51.9318C53.4794 51.6667 53.3866 51.4446 53.201 51.2656C53.0154 51.0833 52.7304 50.9474 52.3459 50.858L51.0732 50.5597C50.3738 50.3939 49.8601 50.1371 49.532 49.7891C49.2071 49.4377 49.0447 48.9986 49.0447 48.4716C49.0447 48.0407 49.1657 47.6596 49.4077 47.3281C49.6529 46.9967 49.986 46.7365 50.407 46.5476C50.8312 46.3587 51.3118 46.2642 51.8487 46.2642C52.6044 46.2642 53.1977 46.4299 53.6286 46.7614C54.0627 47.0928 54.371 47.5303 54.5533 48.0739ZM59.7797 46.3636V47.358H55.8223V46.3636H59.7797ZM56.9757 44.5341H58.149V51.8125C58.149 52.1439 58.197 52.3925 58.2931 52.5582C58.3926 52.7206 58.5185 52.83 58.671 52.8864C58.8268 52.9394 58.9908 52.9659 59.1632 52.9659C59.2924 52.9659 59.3985 52.9593 59.4814 52.946C59.5642 52.9295 59.6305 52.9162 59.6802 52.9062L59.9189 53.9602C59.8393 53.9901 59.7283 54.0199 59.5858 54.0497C59.4432 54.0829 59.2626 54.0994 59.0439 54.0994C58.7124 54.0994 58.3876 54.0282 58.0694 53.8857C57.7546 53.7431 57.4927 53.526 57.2839 53.2344C57.0784 52.9427 56.9757 52.5748 56.9757 52.1307V44.5341ZM64.5648 54.1591C63.8754 54.1591 63.2705 53.995 62.7502 53.6669C62.2331 53.3388 61.8288 52.8797 61.5371 52.2898C61.2488 51.6998 61.1046 51.0104 61.1046 50.2216C61.1046 49.4261 61.2488 48.7318 61.5371 48.1385C61.8288 47.5452 62.2331 47.0845 62.7502 46.7564C63.2705 46.4283 63.8754 46.2642 64.5648 46.2642C65.2542 46.2642 65.8574 46.4283 66.3745 46.7564C66.8948 47.0845 67.2992 47.5452 67.5875 48.1385C67.8792 48.7318 68.025 49.4261 68.025 50.2216C68.025 51.0104 67.8792 51.6998 67.5875 52.2898C67.2992 52.8797 66.8948 53.3388 66.3745 53.6669C65.8574 53.995 65.2542 54.1591 64.5648 54.1591ZM64.5648 53.1051C65.0885 53.1051 65.5194 52.9709 65.8574 52.7024C66.1955 52.4339 66.4457 52.081 66.6081 51.6435C66.7705 51.206 66.8517 50.732 66.8517 50.2216C66.8517 49.7112 66.7705 49.2356 66.6081 48.7947C66.4457 48.3539 66.1955 47.9976 65.8574 47.7259C65.5194 47.4541 65.0885 47.3182 64.5648 47.3182C64.0411 47.3182 63.6103 47.4541 63.2722 47.7259C62.9341 47.9976 62.6839 48.3539 62.5215 48.7947C62.3591 49.2356 62.2779 49.7112 62.2779 50.2216C62.2779 50.732 62.3591 51.206 62.5215 51.6435C62.6839 52.081 62.9341 52.4339 63.2722 52.7024C63.6103 52.9709 64.0411 53.1051 64.5648 53.1051ZM69.8161 54V46.3636H70.9496V47.5568H71.049C71.2081 47.1491 71.465 46.8326 71.8196 46.6072C72.1742 46.3786 72.6001 46.2642 73.0973 46.2642C73.6011 46.2642 74.0204 46.3786 74.3551 46.6072C74.6932 46.8326 74.9567 47.1491 75.1456 47.5568H75.2251C75.4207 47.1624 75.714 46.8492 76.1051 46.6172C76.4962 46.3819 76.9652 46.2642 77.5121 46.2642C78.1948 46.2642 78.7533 46.478 79.1875 46.9055C79.6217 47.3298 79.8388 47.991 79.8388 48.8892V54H78.6655V48.8892C78.6655 48.3258 78.5114 47.9231 78.2031 47.6811C77.8949 47.4392 77.532 47.3182 77.1143 47.3182C76.5774 47.3182 76.1615 47.4806 75.8665 47.8054C75.5715 48.1269 75.424 48.5346 75.424 49.0284V54H74.2308V48.7699C74.2308 48.3357 74.09 47.986 73.8082 47.7209C73.5265 47.4524 73.1636 47.3182 72.7195 47.3182C72.4145 47.3182 72.1295 47.3994 71.8643 47.5618C71.6025 47.7242 71.3904 47.9496 71.228 48.2379C71.0689 48.523 70.9893 48.8527 70.9893 49.2273V54H69.8161ZM85.1857 54.1591C84.4499 54.1591 83.8152 53.9967 83.2816 53.6719C82.7513 53.3438 82.342 52.8864 82.0536 52.2997C81.7686 51.7098 81.6261 51.0237 81.6261 50.2415C81.6261 49.4593 81.7686 48.7699 82.0536 48.1733C82.342 47.5734 82.743 47.1061 83.2567 46.7713C83.7738 46.4332 84.377 46.2642 85.0664 46.2642C85.4641 46.2642 85.8569 46.3305 86.2447 46.4631C86.6325 46.5956 86.9854 46.8111 87.3036 47.1094C87.6218 47.4044 87.8754 47.7955 88.0643 48.2827C88.2532 48.7699 88.3477 49.3698 88.3477 50.0824V50.5795H82.4613V49.5653H87.1545C87.1545 49.1345 87.0683 48.75 86.896 48.4119C86.7269 48.0739 86.485 47.8071 86.1701 47.6115C85.8585 47.416 85.4906 47.3182 85.0664 47.3182C84.5991 47.3182 84.1947 47.4342 83.8533 47.6662C83.5153 47.8949 83.2551 48.1932 83.0728 48.5611C82.8905 48.929 82.7994 49.3234 82.7994 49.7443V50.4205C82.7994 50.9972 82.8988 51.486 83.0977 51.8871C83.2998 52.2848 83.5799 52.5881 83.9379 52.7969C84.2958 53.0024 84.7118 53.1051 85.1857 53.1051C85.494 53.1051 85.7724 53.062 86.021 52.9759C86.2728 52.8864 86.4899 52.7538 86.6722 52.5781C86.8545 52.3991 86.9954 52.1771 87.0948 51.9119L88.2283 52.2301C88.109 52.6146 87.9085 52.9527 87.6268 53.2443C87.3451 53.5327 86.997 53.758 86.5827 53.9205C86.1684 54.0795 85.7028 54.1591 85.1857 54.1591ZM90.1325 54V46.3636H91.266V47.517H91.3455C91.4847 47.1392 91.7366 46.8326 92.1012 46.5973C92.4658 46.362 92.8768 46.2443 93.3342 46.2443C93.4203 46.2443 93.5281 46.246 93.6573 46.2493C93.7866 46.2526 93.8844 46.2576 93.9506 46.2642V47.4574C93.9109 47.4474 93.8197 47.4325 93.6772 47.4126C93.538 47.3894 93.3905 47.3778 93.2347 47.3778C92.8635 47.3778 92.5321 47.4557 92.2404 47.6115C91.9521 47.764 91.7234 47.9761 91.5543 48.2479C91.3886 48.5163 91.3058 48.8229 91.3058 49.1676V54H90.1325ZM107.631 47H106.398C106.325 46.6454 106.198 46.3338 106.015 46.0653C105.836 45.7969 105.618 45.5715 105.359 45.3892C105.104 45.2036 104.821 45.0644 104.509 44.9716C104.198 44.8788 103.873 44.8324 103.535 44.8324C102.918 44.8324 102.36 44.9882 101.859 45.2997C101.362 45.6113 100.966 46.0703 100.671 46.6768C100.379 47.2834 100.233 48.0275 100.233 48.9091C100.233 49.7907 100.379 50.5348 100.671 51.1413C100.966 51.7479 101.362 52.2069 101.859 52.5185C102.36 52.83 102.918 52.9858 103.535 52.9858C103.873 52.9858 104.198 52.9394 104.509 52.8466C104.821 52.7538 105.104 52.6162 105.359 52.4339C105.618 52.2483 105.836 52.0213 106.015 51.7528C106.198 51.4811 106.325 51.1695 106.398 50.8182H107.631C107.538 51.3385 107.369 51.8042 107.124 52.2152C106.879 52.6262 106.574 52.9759 106.209 53.2642C105.845 53.5492 105.435 53.7663 104.981 53.9155C104.531 54.0646 104.048 54.1392 103.535 54.1392C102.666 54.1392 101.894 53.9271 101.218 53.5028C100.542 53.0786 100.01 52.4754 99.622 51.6932C99.2342 50.911 99.0403 49.983 99.0403 48.9091C99.0403 47.8352 99.2342 46.9072 99.622 46.125C100.01 45.3428 100.542 44.7396 101.218 44.3153C101.894 43.8911 102.666 43.679 103.535 43.679C104.048 43.679 104.531 43.7536 104.981 43.9027C105.435 44.0518 105.845 44.2706 106.209 44.5589C106.574 44.844 106.879 45.192 107.124 45.603C107.369 46.0107 107.538 46.4763 107.631 47ZM111.712 54.179C111.228 54.179 110.789 54.0878 110.394 53.9055C110 53.7199 109.687 53.4531 109.455 53.1051C109.223 52.7538 109.107 52.3295 109.107 51.8324C109.107 51.3949 109.193 51.0402 109.365 50.7685C109.537 50.4934 109.768 50.2779 110.056 50.1222C110.344 49.9664 110.663 49.8504 111.011 49.7741C111.362 49.6946 111.715 49.6316 112.07 49.5852C112.534 49.5256 112.91 49.4808 113.198 49.451C113.49 49.4179 113.702 49.3632 113.835 49.2869C113.97 49.2107 114.038 49.0781 114.038 48.8892V48.8494C114.038 48.3589 113.904 47.9777 113.636 47.706C113.371 47.4342 112.968 47.2983 112.428 47.2983C111.867 47.2983 111.428 47.4209 111.11 47.6662C110.792 47.9115 110.568 48.1733 110.439 48.4517L109.325 48.054C109.524 47.59 109.789 47.2287 110.121 46.9702C110.455 46.7083 110.82 46.526 111.214 46.4233C111.612 46.3172 112.003 46.2642 112.388 46.2642C112.633 46.2642 112.915 46.294 113.233 46.3537C113.554 46.41 113.864 46.5277 114.163 46.7067C114.464 46.8857 114.714 47.1558 114.913 47.517C115.112 47.8783 115.212 48.3622 115.212 48.9688V54H114.038V52.9659H113.979C113.899 53.1316 113.767 53.3089 113.581 53.4979C113.395 53.6868 113.148 53.8475 112.84 53.9801C112.532 54.1127 112.156 54.179 111.712 54.179ZM111.891 53.125C112.355 53.125 112.746 53.0339 113.064 52.8516C113.385 52.6693 113.627 52.4339 113.79 52.1456C113.955 51.8572 114.038 51.554 114.038 51.2358V50.1619C113.989 50.2216 113.879 50.2763 113.71 50.326C113.545 50.3724 113.352 50.4138 113.134 50.4503C112.918 50.4834 112.708 50.5133 112.502 50.5398C112.3 50.563 112.136 50.5829 112.01 50.5994C111.705 50.6392 111.42 50.7038 111.155 50.7933C110.893 50.8795 110.681 51.0104 110.518 51.1861C110.359 51.3584 110.28 51.5937 110.28 51.892C110.28 52.2997 110.431 52.608 110.732 52.8168C111.037 53.0223 111.423 53.125 111.891 53.125ZM117.353 54V46.3636H118.487V47.517H118.566C118.705 47.1392 118.957 46.8326 119.322 46.5973C119.686 46.362 120.097 46.2443 120.555 46.2443C120.641 46.2443 120.749 46.246 120.878 46.2493C121.007 46.2526 121.105 46.2576 121.171 46.2642V47.4574C121.132 47.4474 121.04 47.4325 120.898 47.4126C120.759 47.3894 120.611 47.3778 120.455 47.3778C120.084 47.3778 119.753 47.4557 119.461 47.6115C119.173 47.764 118.944 47.9761 118.775 48.2479C118.609 48.5163 118.526 48.8229 118.526 49.1676V54H117.353ZM125.531 54.1591C124.796 54.1591 124.161 53.9967 123.627 53.6719C123.097 53.3438 122.688 52.8864 122.399 52.2997C122.114 51.7098 121.972 51.0237 121.972 50.2415C121.972 49.4593 122.114 48.7699 122.399 48.1733C122.688 47.5734 123.089 47.1061 123.602 46.7713C124.119 46.4332 124.723 46.2642 125.412 46.2642C125.81 46.2642 126.203 46.3305 126.59 46.4631C126.978 46.5956 127.331 46.8111 127.649 47.1094C127.968 47.4044 128.221 47.7955 128.41 48.2827C128.599 48.7699 128.693 49.3698 128.693 50.0824V50.5795H122.807V49.5653H127.5C127.5 49.1345 127.414 48.75 127.242 48.4119C127.073 48.0739 126.831 47.8071 126.516 47.6115C126.204 47.416 125.836 47.3182 125.412 47.3182C124.945 47.3182 124.54 47.4342 124.199 47.6662C123.861 47.8949 123.601 48.1932 123.419 48.5611C123.236 48.929 123.145 49.3234 123.145 49.7443V50.4205C123.145 50.9972 123.244 51.486 123.443 51.8871C123.646 52.2848 123.926 52.5881 124.284 52.7969C124.642 53.0024 125.057 53.1051 125.531 53.1051C125.84 53.1051 126.118 53.062 126.367 52.9759C126.619 52.8864 126.836 52.7538 127.018 52.5781C127.2 52.3991 127.341 52.1771 127.441 51.9119L128.574 52.2301C128.455 52.6146 128.254 52.9527 127.972 53.2443C127.691 53.5327 127.343 53.758 126.928 53.9205C126.514 54.0795 126.048 54.1591 125.531 54.1591ZM135.808 43.8182V54H134.575V43.8182H135.808ZM139.294 49.4062V54H138.121V46.3636H139.254V47.5568H139.354C139.533 47.169 139.804 46.8575 140.169 46.6222C140.534 46.3835 141.004 46.2642 141.581 46.2642C142.098 46.2642 142.55 46.3703 142.938 46.5824C143.326 46.7912 143.628 47.1094 143.843 47.5369C144.058 47.9612 144.166 48.4981 144.166 49.1477V54H142.993V49.2273C142.993 48.6274 142.837 48.16 142.526 47.8253C142.214 47.4872 141.786 47.3182 141.243 47.3182C140.868 47.3182 140.534 47.3994 140.239 47.5618C139.947 47.7242 139.717 47.9612 139.548 48.2727C139.379 48.5843 139.294 48.9621 139.294 49.4062ZM149.711 46.3636V47.358H145.594V46.3636H149.711ZM146.827 54V45.3097C146.827 44.8722 146.93 44.5076 147.135 44.2159C147.341 43.9242 147.608 43.7055 147.936 43.5597C148.264 43.4138 148.61 43.3409 148.975 43.3409C149.263 43.3409 149.499 43.3641 149.681 43.4105C149.863 43.4569 149.999 43.5 150.089 43.5398L149.751 44.554C149.691 44.5341 149.608 44.5092 149.502 44.4794C149.399 44.4496 149.263 44.4347 149.094 44.4347C148.706 44.4347 148.426 44.5324 148.254 44.728C148.085 44.9235 148.001 45.2102 148.001 45.5881V54H146.827ZM154.143 54.1591C153.454 54.1591 152.849 53.995 152.328 53.6669C151.811 53.3388 151.407 52.8797 151.115 52.2898C150.827 51.6998 150.683 51.0104 150.683 50.2216C150.683 49.4261 150.827 48.7318 151.115 48.1385C151.407 47.5452 151.811 47.0845 152.328 46.7564C152.849 46.4283 153.454 46.2642 154.143 46.2642C154.832 46.2642 155.436 46.4283 155.953 46.7564C156.473 47.0845 156.877 47.5452 157.166 48.1385C157.457 48.7318 157.603 49.4261 157.603 50.2216C157.603 51.0104 157.457 51.6998 157.166 52.2898C156.877 52.8797 156.473 53.3388 155.953 53.6669C155.436 53.995 154.832 54.1591 154.143 54.1591ZM154.143 53.1051C154.667 53.1051 155.097 52.9709 155.436 52.7024C155.774 52.4339 156.024 52.081 156.186 51.6435C156.349 51.206 156.43 50.732 156.43 50.2216C156.43 49.7112 156.349 49.2356 156.186 48.7947C156.024 48.3539 155.774 47.9976 155.436 47.7259C155.097 47.4541 154.667 47.3182 154.143 47.3182C153.619 47.3182 153.188 47.4541 152.85 47.7259C152.512 47.9976 152.262 48.3539 152.1 48.7947C151.937 49.2356 151.856 49.7112 151.856 50.2216C151.856 50.732 151.937 51.206 152.1 51.6435C152.262 52.081 152.512 52.4339 152.85 52.7024C153.188 52.9709 153.619 53.1051 154.143 53.1051ZM163.491 54V43.8182H164.724V48.3523H170.153V43.8182H171.386V54H170.153V49.446H164.724V54H163.491ZM178.507 50.8778V46.3636H179.681V54H178.507V52.7074H178.428C178.249 53.0952 177.971 53.425 177.593 53.6967C177.215 53.9652 176.738 54.0994 176.161 54.0994C175.684 54.0994 175.259 53.995 174.888 53.7862C174.517 53.5741 174.225 53.2559 174.013 52.8317C173.801 52.4041 173.695 51.8655 173.695 51.2159V46.3636H174.868V51.1364C174.868 51.6932 175.024 52.1373 175.336 52.4688C175.65 52.8002 176.051 52.9659 176.539 52.9659C176.83 52.9659 177.127 52.8913 177.429 52.7422C177.734 52.593 177.989 52.3643 178.194 52.0561C178.403 51.7479 178.507 51.3551 178.507 50.8778ZM181.989 54V43.8182H183.162V47.5767H183.262C183.348 47.4441 183.467 47.2751 183.619 47.0696C183.775 46.8608 183.997 46.6752 184.286 46.5128C184.577 46.3471 184.972 46.2642 185.469 46.2642C186.112 46.2642 186.679 46.425 187.169 46.7464C187.66 47.0679 188.043 47.5237 188.318 48.1136C188.593 48.7036 188.73 49.3996 188.73 50.2017C188.73 51.0104 188.593 51.7114 188.318 52.3047C188.043 52.8946 187.661 53.352 187.174 53.6768C186.687 53.9983 186.125 54.1591 185.489 54.1591C184.998 54.1591 184.606 54.0779 184.311 53.9155C184.016 53.7498 183.789 53.5625 183.629 53.3537C183.47 53.1416 183.348 52.9659 183.262 52.8267H183.122V54H181.989ZM183.142 50.1818C183.142 50.7585 183.227 51.2673 183.396 51.7081C183.565 52.1456 183.812 52.4886 184.137 52.7372C184.461 52.9825 184.859 53.1051 185.33 53.1051C185.82 53.1051 186.23 52.9759 186.558 52.7173C186.889 52.4555 187.138 52.1042 187.303 51.6634C187.472 51.2192 187.557 50.7254 187.557 50.1818C187.557 49.6449 187.474 49.161 187.308 48.7301C187.146 48.2959 186.899 47.9529 186.568 47.701C186.24 47.4458 185.827 47.3182 185.33 47.3182C184.852 47.3182 184.451 47.4392 184.127 47.6811C183.802 47.9197 183.557 48.2545 183.391 48.6854C183.225 49.1129 183.142 49.6117 183.142 50.1818Z"
            fill="black"/>
    </g>
</svg>
