<svg width="190" height="54" viewBox="0 0 190 54" fill="none" xmlns="http://www.w3.org/2000/svg">
<path d="M70.4091 19.3636C70.4091 21.9015 69.928 24.0606 68.9659 25.8409C68.0114 27.6212 66.7083 28.9811 65.0568 29.9205C63.4129 30.8523 61.5644 31.3182 59.5114 31.3182C57.4432 31.3182 55.5871 30.8485 53.9432 29.9091C52.2992 28.9697 51 27.6098 50.0455 25.8295C49.0909 24.0492 48.6136 21.8939 48.6136 19.3636C48.6136 16.8258 49.0909 14.6667 50.0455 12.8864C51 11.1061 52.2992 9.75 53.9432 8.81818C55.5871 7.87879 57.4432 7.40909 59.5114 7.40909C61.5644 7.40909 63.4129 7.87879 65.0568 8.81818C66.7083 9.75 68.0114 11.1061 68.9659 12.8864C69.928 14.6667 70.4091 16.8258 70.4091 19.3636ZM65.4205 19.3636C65.4205 17.7197 65.1742 16.3333 64.6818 15.2045C64.197 14.0758 63.5114 13.2197 62.625 12.6364C61.7386 12.053 60.7008 11.7614 59.5114 11.7614C58.322 11.7614 57.2841 12.053 56.3977 12.6364C55.5114 13.2197 54.822 14.0758 54.3295 15.2045C53.8447 16.3333 53.6023 17.7197 53.6023 19.3636C53.6023 21.0076 53.8447 22.3939 54.3295 23.5227C54.822 24.6515 55.5114 25.5076 56.3977 26.0909C57.2841 26.6742 58.322 26.9659 59.5114 26.9659C60.7008 26.9659 61.7386 26.6742 62.625 26.0909C63.5114 25.5076 64.197 24.6515 64.6818 23.5227C65.1742 22.3939 65.4205 21.0076 65.4205 19.3636ZM78.804 20.9091V31H73.9631V13.5455H78.5767V16.625H78.7812C79.1676 15.6098 79.8153 14.8068 80.7244 14.2159C81.6335 13.6174 82.7358 13.3182 84.0312 13.3182C85.2434 13.3182 86.3002 13.5833 87.2017 14.1136C88.1032 14.6439 88.804 15.4015 89.304 16.3864C89.804 17.3636 90.054 18.5303 90.054 19.8864V31H85.2131V20.75C85.2206 19.6818 84.9479 18.8485 84.3949 18.25C83.8419 17.6439 83.0805 17.3409 82.1108 17.3409C81.4593 17.3409 80.8835 17.4811 80.3835 17.7614C79.8911 18.0417 79.5047 18.4508 79.2244 18.9886C78.9517 19.5189 78.8116 20.1591 78.804 20.9091ZM101.824 31.3409C100.028 31.3409 98.483 30.9773 97.1875 30.25C95.8996 29.5152 94.9072 28.4773 94.2102 27.1364C93.5133 25.7879 93.1648 24.1932 93.1648 22.3523C93.1648 20.5568 93.5133 18.9811 94.2102 17.625C94.9072 16.2689 95.8883 15.2121 97.1534 14.4545C98.4261 13.697 99.9186 13.3182 101.631 13.3182C102.782 13.3182 103.854 13.5038 104.847 13.875C105.847 14.2386 106.718 14.7879 107.46 15.5227C108.21 16.2576 108.794 17.1818 109.21 18.2955C109.627 19.4015 109.835 20.697 109.835 22.1818V23.5114H95.0966V20.5114H105.278C105.278 19.8144 105.127 19.197 104.824 18.6591C104.521 18.1212 104.1 17.7008 103.562 17.3977C103.032 17.0871 102.415 16.9318 101.71 16.9318C100.975 16.9318 100.324 17.1023 99.7557 17.4432C99.1951 17.7765 98.7557 18.2273 98.4375 18.7955C98.1193 19.3561 97.9564 19.9811 97.9489 20.6705V23.5227C97.9489 24.3864 98.108 25.1326 98.4261 25.7614C98.7519 26.3902 99.2102 26.875 99.8011 27.2159C100.392 27.5568 101.093 27.7273 101.903 27.7273C102.441 27.7273 102.934 27.6515 103.381 27.5C103.828 27.3485 104.21 27.1212 104.528 26.8182C104.847 26.5152 105.089 26.1439 105.256 25.7045L109.733 26C109.506 27.0758 109.04 28.0152 108.335 28.8182C107.638 29.6136 106.737 30.2348 105.631 30.6818C104.532 31.1212 103.263 31.3409 101.824 31.3409Z" fill="#C51E24"/>
<path d="M133.619 15.875H128.642C128.551 15.2311 128.366 14.6591 128.085 14.1591C127.805 13.6515 127.445 13.2197 127.006 12.8636C126.566 12.5076 126.059 12.2348 125.483 12.0455C124.915 11.8561 124.297 11.7614 123.631 11.7614C122.426 11.7614 121.377 12.0606 120.483 12.6591C119.589 13.25 118.896 14.1136 118.403 15.25C117.911 16.3788 117.665 17.75 117.665 19.3636C117.665 21.0227 117.911 22.4167 118.403 23.5455C118.903 24.6742 119.6 25.5265 120.494 26.1023C121.388 26.678 122.422 26.9659 123.597 26.9659C124.256 26.9659 124.866 26.8788 125.426 26.7045C125.994 26.5303 126.498 26.2765 126.938 25.9432C127.377 25.6023 127.741 25.1894 128.028 24.7045C128.324 24.2197 128.528 23.6667 128.642 23.0455L133.619 23.0682C133.491 24.1364 133.169 25.1667 132.653 26.1591C132.146 27.1439 131.46 28.0265 130.597 28.8068C129.741 29.5795 128.718 30.1932 127.528 30.6477C126.347 31.0947 125.009 31.3182 123.517 31.3182C121.441 31.3182 119.585 30.8485 117.949 29.9091C116.32 28.9697 115.032 27.6098 114.085 25.8295C113.146 24.0492 112.676 21.8939 112.676 19.3636C112.676 16.8258 113.153 14.6667 114.108 12.8864C115.063 11.1061 116.358 9.75 117.994 8.81818C119.631 7.87879 121.472 7.40909 123.517 7.40909C124.866 7.40909 126.116 7.59848 127.267 7.97727C128.426 8.35606 129.453 8.90909 130.347 9.63636C131.241 10.3561 131.968 11.2386 132.528 12.2841C133.097 13.3295 133.46 14.5265 133.619 15.875ZM141.898 7.72727V31H137.057V7.72727H141.898ZM145.776 31V13.5455H150.616V31H145.776ZM148.207 11.2955C147.488 11.2955 146.87 11.0568 146.355 10.5795C145.848 10.0947 145.594 9.51515 145.594 8.84091C145.594 8.17424 145.848 7.60227 146.355 7.125C146.87 6.64015 147.488 6.39773 148.207 6.39773C148.927 6.39773 149.541 6.64015 150.048 7.125C150.563 7.60227 150.821 8.17424 150.821 8.84091C150.821 9.51515 150.563 10.0947 150.048 10.5795C149.541 11.0568 148.927 11.2955 148.207 11.2955ZM162.381 31.3409C160.593 31.3409 159.055 30.9621 157.767 30.2045C156.487 29.4394 155.502 28.3788 154.812 27.0227C154.131 25.6667 153.79 24.1061 153.79 22.3409C153.79 20.553 154.134 18.9848 154.824 17.6364C155.521 16.2803 156.509 15.2235 157.79 14.4659C159.07 13.7008 160.593 13.3182 162.358 13.3182C163.881 13.3182 165.214 13.5947 166.358 14.1477C167.502 14.7008 168.407 15.4773 169.074 16.4773C169.741 17.4773 170.108 18.6515 170.176 20H165.608C165.479 19.1288 165.138 18.428 164.585 17.8977C164.04 17.3598 163.324 17.0909 162.438 17.0909C161.688 17.0909 161.032 17.2955 160.472 17.7045C159.919 18.1061 159.487 18.6932 159.176 19.4659C158.866 20.2386 158.71 21.1742 158.71 22.2727C158.71 23.3864 158.862 24.3333 159.165 25.1136C159.475 25.8939 159.911 26.4886 160.472 26.8977C161.032 27.3068 161.688 27.5114 162.438 27.5114C162.991 27.5114 163.487 27.3977 163.926 27.1705C164.373 26.9432 164.741 26.6136 165.028 26.1818C165.324 25.7424 165.517 25.2159 165.608 24.6023H170.176C170.1 25.9356 169.737 27.1098 169.085 28.125C168.441 29.1326 167.551 29.9205 166.415 30.4886C165.278 31.0568 163.934 31.3409 162.381 31.3409ZM177.662 25.9773L177.673 20.1705H178.378L183.969 13.5455H189.526L182.014 22.3182H180.866L177.662 25.9773ZM173.276 31V7.72727H178.116V31H173.276ZM184.185 31L179.048 23.3977L182.276 19.9773L189.855 31H184.185Z" fill="#00793F"/>
<path d="M2.46591 40.8182V51H1.23295V40.8182H2.46591ZM4.93803 51V40.8182H11.0431V41.9119H6.17099V45.3523H10.5858V46.446H6.17099V51H4.93803ZM14.3878 40.8182V51H13.1548V40.8182H14.3878ZM25.0531 44H23.8201C23.7472 43.6454 23.6196 43.3338 23.4373 43.0653C23.2583 42.7969 23.0396 42.5715 22.7811 42.3892C22.5259 42.2036 22.2425 42.0644 21.9309 41.9716C21.6194 41.8788 21.2946 41.8324 20.9565 41.8324C20.34 41.8324 19.7815 41.9882 19.2811 42.2997C18.7839 42.6113 18.3878 43.0703 18.0929 43.6768C17.8012 44.2834 17.6554 45.0275 17.6554 45.9091C17.6554 46.7907 17.8012 47.5348 18.0929 48.1413C18.3878 48.7479 18.7839 49.2069 19.2811 49.5185C19.7815 49.83 20.34 49.9858 20.9565 49.9858C21.2946 49.9858 21.6194 49.9394 21.9309 49.8466C22.2425 49.7538 22.5259 49.6162 22.7811 49.4339C23.0396 49.2483 23.2583 49.0213 23.4373 48.7528C23.6196 48.4811 23.7472 48.1695 23.8201 47.8182H25.0531C24.9603 48.3385 24.7913 48.8042 24.546 49.2152C24.3007 49.6262 23.9958 49.9759 23.6312 50.2642C23.2666 50.5492 22.8573 50.7663 22.4032 50.9155C21.9525 51.0646 21.4702 51.1392 20.9565 51.1392C20.0881 51.1392 19.3159 50.9271 18.6397 50.5028C17.9636 50.0786 17.4316 49.4754 17.0439 48.6932C16.6561 47.911 16.4622 46.983 16.4622 45.9091C16.4622 44.8352 16.6561 43.9072 17.0439 43.125C17.4316 42.3428 17.9636 41.7396 18.6397 41.3153C19.3159 40.8911 20.0881 40.679 20.9565 40.679C21.4702 40.679 21.9525 40.7536 22.4032 40.9027C22.8573 41.0518 23.2666 41.2706 23.6312 41.5589C23.9958 41.844 24.3007 42.192 24.546 42.603C24.7913 43.0107 24.9603 43.4763 25.0531 44ZM39.1761 44H37.9432C37.8703 43.6454 37.7427 43.3338 37.5604 43.0653C37.3814 42.7969 37.1626 42.5715 36.9041 42.3892C36.6489 42.2036 36.3655 42.0644 36.054 41.9716C35.7424 41.8788 35.4176 41.8324 35.0795 41.8324C34.4631 41.8324 33.9046 41.9882 33.4041 42.2997C32.907 42.6113 32.5109 43.0703 32.2159 43.6768C31.9242 44.2834 31.7784 45.0275 31.7784 45.9091C31.7784 46.7907 31.9242 47.5348 32.2159 48.1413C32.5109 48.7479 32.907 49.2069 33.4041 49.5185C33.9046 49.83 34.4631 49.9858 35.0795 49.9858C35.4176 49.9858 35.7424 49.9394 36.054 49.8466C36.3655 49.7538 36.6489 49.6162 36.9041 49.4339C37.1626 49.2483 37.3814 49.0213 37.5604 48.7528C37.7427 48.4811 37.8703 48.1695 37.9432 47.8182H39.1761C39.0833 48.3385 38.9143 48.8042 38.669 49.2152C38.4238 49.6262 38.1188 49.9759 37.7543 50.2642C37.3897 50.5492 36.9804 50.7663 36.5263 50.9155C36.0755 51.0646 35.5933 51.1392 35.0795 51.1392C34.2112 51.1392 33.4389 50.9271 32.7628 50.5028C32.0866 50.0786 31.5547 49.4754 31.1669 48.6932C30.7791 47.911 30.5852 46.983 30.5852 45.9091C30.5852 44.8352 30.7791 43.9072 31.1669 43.125C31.5547 42.3428 32.0866 41.7396 32.7628 41.3153C33.4389 40.8911 34.2112 40.679 35.0795 40.679C35.5933 40.679 36.0755 40.7536 36.5263 40.9027C36.9804 41.0518 37.3897 41.2706 37.7543 41.5589C38.1188 41.844 38.4238 42.192 38.669 42.603C38.9143 43.0107 39.0833 43.4763 39.1761 44ZM45.8219 47.8778V43.3636H46.9952V51H45.8219V49.7074H45.7424C45.5634 50.0952 45.285 50.425 44.9071 50.6967C44.5293 50.9652 44.052 51.0994 43.4753 51.0994C42.998 51.0994 42.5738 50.995 42.2026 50.7862C41.8314 50.5741 41.5397 50.2559 41.3276 49.8317C41.1155 49.4041 41.0094 48.8655 41.0094 48.2159V43.3636H42.1827V48.1364C42.1827 48.6932 42.3385 49.1373 42.65 49.4688C42.9649 49.8002 43.3659 49.9659 43.8532 49.9659C44.1448 49.9659 44.4415 49.8913 44.7431 49.7422C45.048 49.593 45.3032 49.3643 45.5087 49.0561C45.7175 48.7479 45.8219 48.3551 45.8219 47.8778ZM54.5533 45.0739L53.4993 45.3722C53.433 45.1965 53.3352 45.0258 53.206 44.8601C53.08 44.6911 52.9077 44.5518 52.6889 44.4425C52.4702 44.3331 52.1901 44.2784 51.8487 44.2784C51.3814 44.2784 50.992 44.3861 50.6804 44.6016C50.3722 44.8137 50.218 45.0838 50.218 45.4119C50.218 45.7036 50.3241 45.9339 50.5362 46.103C50.7483 46.272 51.0798 46.4129 51.5305 46.5256L52.6641 46.804C53.3468 46.9697 53.8556 47.2232 54.1903 47.5646C54.5251 47.9027 54.6925 48.3385 54.6925 48.8722C54.6925 49.3097 54.5665 49.7008 54.3146 50.0455C54.0661 50.3902 53.718 50.6619 53.2706 50.8608C52.8232 51.0597 52.3028 51.1591 51.7095 51.1591C50.9306 51.1591 50.286 50.9901 49.7756 50.652C49.2652 50.3139 48.942 49.8201 48.8061 49.1705L49.9197 48.892C50.0258 49.303 50.2263 49.6113 50.5213 49.8168C50.8196 50.0223 51.209 50.125 51.6896 50.125C52.2365 50.125 52.6707 50.009 52.9922 49.777C53.317 49.5417 53.4794 49.2599 53.4794 48.9318C53.4794 48.6667 53.3866 48.4446 53.201 48.2656C53.0154 48.0833 52.7304 47.9474 52.3459 47.858L51.0732 47.5597C50.3738 47.3939 49.8601 47.1371 49.532 46.7891C49.2071 46.4377 49.0447 45.9986 49.0447 45.4716C49.0447 45.0407 49.1657 44.6596 49.4077 44.3281C49.6529 43.9967 49.986 43.7365 50.407 43.5476C50.8312 43.3587 51.3118 43.2642 51.8487 43.2642C52.6044 43.2642 53.1977 43.4299 53.6286 43.7614C54.0627 44.0928 54.371 44.5303 54.5533 45.0739ZM59.7797 43.3636V44.358H55.8223V43.3636H59.7797ZM56.9757 41.5341H58.149V48.8125C58.149 49.1439 58.197 49.3925 58.2931 49.5582C58.3926 49.7206 58.5185 49.83 58.671 49.8864C58.8268 49.9394 58.9908 49.9659 59.1632 49.9659C59.2924 49.9659 59.3985 49.9593 59.4814 49.946C59.5642 49.9295 59.6305 49.9162 59.6802 49.9062L59.9189 50.9602C59.8393 50.9901 59.7283 51.0199 59.5858 51.0497C59.4432 51.0829 59.2626 51.0994 59.0439 51.0994C58.7124 51.0994 58.3876 51.0282 58.0694 50.8857C57.7546 50.7431 57.4927 50.526 57.2839 50.2344C57.0784 49.9427 56.9757 49.5748 56.9757 49.1307V41.5341ZM64.5648 51.1591C63.8754 51.1591 63.2705 50.995 62.7502 50.6669C62.2331 50.3388 61.8288 49.8797 61.5371 49.2898C61.2488 48.6998 61.1046 48.0104 61.1046 47.2216C61.1046 46.4261 61.2488 45.7318 61.5371 45.1385C61.8288 44.5452 62.2331 44.0845 62.7502 43.7564C63.2705 43.4283 63.8754 43.2642 64.5648 43.2642C65.2542 43.2642 65.8574 43.4283 66.3745 43.7564C66.8948 44.0845 67.2992 44.5452 67.5875 45.1385C67.8792 45.7318 68.025 46.4261 68.025 47.2216C68.025 48.0104 67.8792 48.6998 67.5875 49.2898C67.2992 49.8797 66.8948 50.3388 66.3745 50.6669C65.8574 50.995 65.2542 51.1591 64.5648 51.1591ZM64.5648 50.1051C65.0885 50.1051 65.5194 49.9709 65.8574 49.7024C66.1955 49.4339 66.4457 49.081 66.6081 48.6435C66.7705 48.206 66.8517 47.732 66.8517 47.2216C66.8517 46.7112 66.7705 46.2356 66.6081 45.7947C66.4457 45.3539 66.1955 44.9976 65.8574 44.7259C65.5194 44.4541 65.0885 44.3182 64.5648 44.3182C64.0411 44.3182 63.6103 44.4541 63.2722 44.7259C62.9341 44.9976 62.6839 45.3539 62.5215 45.7947C62.3591 46.2356 62.2779 46.7112 62.2779 47.2216C62.2779 47.732 62.3591 48.206 62.5215 48.6435C62.6839 49.081 62.9341 49.4339 63.2722 49.7024C63.6103 49.9709 64.0411 50.1051 64.5648 50.1051ZM69.8161 51V43.3636H70.9496V44.5568H71.049C71.2081 44.1491 71.465 43.8326 71.8196 43.6072C72.1742 43.3786 72.6001 43.2642 73.0973 43.2642C73.6011 43.2642 74.0204 43.3786 74.3551 43.6072C74.6932 43.8326 74.9567 44.1491 75.1456 44.5568H75.2251C75.4207 44.1624 75.714 43.8492 76.1051 43.6172C76.4962 43.3819 76.9652 43.2642 77.5121 43.2642C78.1948 43.2642 78.7533 43.478 79.1875 43.9055C79.6217 44.3298 79.8388 44.991 79.8388 45.8892V51H78.6655V45.8892C78.6655 45.3258 78.5114 44.9231 78.2031 44.6811C77.8949 44.4392 77.532 44.3182 77.1143 44.3182C76.5774 44.3182 76.1615 44.4806 75.8665 44.8054C75.5715 45.1269 75.424 45.5346 75.424 46.0284V51H74.2308V45.7699C74.2308 45.3357 74.09 44.986 73.8082 44.7209C73.5265 44.4524 73.1636 44.3182 72.7195 44.3182C72.4145 44.3182 72.1295 44.3994 71.8643 44.5618C71.6025 44.7242 71.3904 44.9496 71.228 45.2379C71.0689 45.523 70.9893 45.8527 70.9893 46.2273V51H69.8161ZM85.1857 51.1591C84.4499 51.1591 83.8152 50.9967 83.2816 50.6719C82.7513 50.3438 82.342 49.8864 82.0536 49.2997C81.7686 48.7098 81.6261 48.0237 81.6261 47.2415C81.6261 46.4593 81.7686 45.7699 82.0536 45.1733C82.342 44.5734 82.743 44.1061 83.2567 43.7713C83.7738 43.4332 84.377 43.2642 85.0664 43.2642C85.4641 43.2642 85.8569 43.3305 86.2447 43.4631C86.6325 43.5956 86.9854 43.8111 87.3036 44.1094C87.6218 44.4044 87.8754 44.7955 88.0643 45.2827C88.2532 45.7699 88.3477 46.3698 88.3477 47.0824V47.5795H82.4613V46.5653H87.1545C87.1545 46.1345 87.0683 45.75 86.896 45.4119C86.7269 45.0739 86.485 44.8071 86.1701 44.6115C85.8585 44.416 85.4906 44.3182 85.0664 44.3182C84.5991 44.3182 84.1947 44.4342 83.8533 44.6662C83.5153 44.8949 83.2551 45.1932 83.0728 45.5611C82.8905 45.929 82.7994 46.3234 82.7994 46.7443V47.4205C82.7994 47.9972 82.8988 48.486 83.0977 48.8871C83.2998 49.2848 83.5799 49.5881 83.9379 49.7969C84.2958 50.0024 84.7118 50.1051 85.1857 50.1051C85.494 50.1051 85.7724 50.062 86.021 49.9759C86.2728 49.8864 86.4899 49.7538 86.6722 49.5781C86.8545 49.3991 86.9954 49.1771 87.0948 48.9119L88.2283 49.2301C88.109 49.6146 87.9085 49.9527 87.6268 50.2443C87.3451 50.5327 86.997 50.758 86.5827 50.9205C86.1684 51.0795 85.7028 51.1591 85.1857 51.1591ZM90.1325 51V43.3636H91.266V44.517H91.3455C91.4847 44.1392 91.7366 43.8326 92.1012 43.5973C92.4658 43.362 92.8768 43.2443 93.3342 43.2443C93.4203 43.2443 93.5281 43.246 93.6573 43.2493C93.7866 43.2526 93.8844 43.2576 93.9506 43.2642V44.4574C93.9109 44.4474 93.8197 44.4325 93.6772 44.4126C93.538 44.3894 93.3905 44.3778 93.2347 44.3778C92.8635 44.3778 92.5321 44.4557 92.2404 44.6115C91.9521 44.764 91.7234 44.9761 91.5543 45.2479C91.3886 45.5163 91.3058 45.8229 91.3058 46.1676V51H90.1325ZM107.631 44H106.398C106.325 43.6454 106.198 43.3338 106.015 43.0653C105.836 42.7969 105.618 42.5715 105.359 42.3892C105.104 42.2036 104.821 42.0644 104.509 41.9716C104.198 41.8788 103.873 41.8324 103.535 41.8324C102.918 41.8324 102.36 41.9882 101.859 42.2997C101.362 42.6113 100.966 43.0703 100.671 43.6768C100.379 44.2834 100.233 45.0275 100.233 45.9091C100.233 46.7907 100.379 47.5348 100.671 48.1413C100.966 48.7479 101.362 49.2069 101.859 49.5185C102.36 49.83 102.918 49.9858 103.535 49.9858C103.873 49.9858 104.198 49.9394 104.509 49.8466C104.821 49.7538 105.104 49.6162 105.359 49.4339C105.618 49.2483 105.836 49.0213 106.015 48.7528C106.198 48.4811 106.325 48.1695 106.398 47.8182H107.631C107.538 48.3385 107.369 48.8042 107.124 49.2152C106.879 49.6262 106.574 49.9759 106.209 50.2642C105.845 50.5492 105.435 50.7663 104.981 50.9155C104.531 51.0646 104.048 51.1392 103.535 51.1392C102.666 51.1392 101.894 50.9271 101.218 50.5028C100.542 50.0786 100.01 49.4754 99.622 48.6932C99.2342 47.911 99.0403 46.983 99.0403 45.9091C99.0403 44.8352 99.2342 43.9072 99.622 43.125C100.01 42.3428 100.542 41.7396 101.218 41.3153C101.894 40.8911 102.666 40.679 103.535 40.679C104.048 40.679 104.531 40.7536 104.981 40.9027C105.435 41.0518 105.845 41.2706 106.209 41.5589C106.574 41.844 106.879 42.192 107.124 42.603C107.369 43.0107 107.538 43.4763 107.631 44ZM111.712 51.179C111.228 51.179 110.789 51.0878 110.394 50.9055C110 50.7199 109.687 50.4531 109.455 50.1051C109.223 49.7538 109.107 49.3295 109.107 48.8324C109.107 48.3949 109.193 48.0402 109.365 47.7685C109.537 47.4934 109.768 47.2779 110.056 47.1222C110.344 46.9664 110.663 46.8504 111.011 46.7741C111.362 46.6946 111.715 46.6316 112.07 46.5852C112.534 46.5256 112.91 46.4808 113.198 46.451C113.49 46.4179 113.702 46.3632 113.835 46.2869C113.97 46.2107 114.038 46.0781 114.038 45.8892V45.8494C114.038 45.3589 113.904 44.9777 113.636 44.706C113.371 44.4342 112.968 44.2983 112.428 44.2983C111.867 44.2983 111.428 44.4209 111.11 44.6662C110.792 44.9115 110.568 45.1733 110.439 45.4517L109.325 45.054C109.524 44.59 109.789 44.2287 110.121 43.9702C110.455 43.7083 110.82 43.526 111.214 43.4233C111.612 43.3172 112.003 43.2642 112.388 43.2642C112.633 43.2642 112.915 43.294 113.233 43.3537C113.554 43.41 113.864 43.5277 114.163 43.7067C114.464 43.8857 114.714 44.1558 114.913 44.517C115.112 44.8783 115.212 45.3622 115.212 45.9688V51H114.038V49.9659H113.979C113.899 50.1316 113.767 50.3089 113.581 50.4979C113.395 50.6868 113.148 50.8475 112.84 50.9801C112.532 51.1127 112.156 51.179 111.712 51.179ZM111.891 50.125C112.355 50.125 112.746 50.0339 113.064 49.8516C113.385 49.6693 113.627 49.4339 113.79 49.1456C113.955 48.8572 114.038 48.554 114.038 48.2358V47.1619C113.989 47.2216 113.879 47.2763 113.71 47.326C113.545 47.3724 113.352 47.4138 113.134 47.4503C112.918 47.4834 112.708 47.5133 112.502 47.5398C112.3 47.563 112.136 47.5829 112.01 47.5994C111.705 47.6392 111.42 47.7038 111.155 47.7933C110.893 47.8795 110.681 48.0104 110.518 48.1861C110.359 48.3584 110.28 48.5937 110.28 48.892C110.28 49.2997 110.431 49.608 110.732 49.8168C111.037 50.0223 111.423 50.125 111.891 50.125ZM117.353 51V43.3636H118.487V44.517H118.566C118.705 44.1392 118.957 43.8326 119.322 43.5973C119.686 43.362 120.097 43.2443 120.555 43.2443C120.641 43.2443 120.749 43.246 120.878 43.2493C121.007 43.2526 121.105 43.2576 121.171 43.2642V44.4574C121.132 44.4474 121.04 44.4325 120.898 44.4126C120.759 44.3894 120.611 44.3778 120.455 44.3778C120.084 44.3778 119.753 44.4557 119.461 44.6115C119.173 44.764 118.944 44.9761 118.775 45.2479C118.609 45.5163 118.526 45.8229 118.526 46.1676V51H117.353ZM125.531 51.1591C124.796 51.1591 124.161 50.9967 123.627 50.6719C123.097 50.3438 122.688 49.8864 122.399 49.2997C122.114 48.7098 121.972 48.0237 121.972 47.2415C121.972 46.4593 122.114 45.7699 122.399 45.1733C122.688 44.5734 123.089 44.1061 123.602 43.7713C124.119 43.4332 124.723 43.2642 125.412 43.2642C125.81 43.2642 126.203 43.3305 126.59 43.4631C126.978 43.5956 127.331 43.8111 127.649 44.1094C127.968 44.4044 128.221 44.7955 128.41 45.2827C128.599 45.7699 128.693 46.3698 128.693 47.0824V47.5795H122.807V46.5653H127.5C127.5 46.1345 127.414 45.75 127.242 45.4119C127.073 45.0739 126.831 44.8071 126.516 44.6115C126.204 44.416 125.836 44.3182 125.412 44.3182C124.945 44.3182 124.54 44.4342 124.199 44.6662C123.861 44.8949 123.601 45.1932 123.419 45.5611C123.236 45.929 123.145 46.3234 123.145 46.7443V47.4205C123.145 47.9972 123.244 48.486 123.443 48.8871C123.646 49.2848 123.926 49.5881 124.284 49.7969C124.642 50.0024 125.057 50.1051 125.531 50.1051C125.84 50.1051 126.118 50.062 126.367 49.9759C126.619 49.8864 126.836 49.7538 127.018 49.5781C127.2 49.3991 127.341 49.1771 127.441 48.9119L128.574 49.2301C128.455 49.6146 128.254 49.9527 127.972 50.2443C127.691 50.5327 127.343 50.758 126.928 50.9205C126.514 51.0795 126.048 51.1591 125.531 51.1591ZM135.808 40.8182V51H134.575V40.8182H135.808ZM139.294 46.4062V51H138.121V43.3636H139.254V44.5568H139.354C139.533 44.169 139.804 43.8575 140.169 43.6222C140.534 43.3835 141.004 43.2642 141.581 43.2642C142.098 43.2642 142.55 43.3703 142.938 43.5824C143.326 43.7912 143.628 44.1094 143.843 44.5369C144.058 44.9612 144.166 45.4981 144.166 46.1477V51H142.993V46.2273C142.993 45.6274 142.837 45.16 142.526 44.8253C142.214 44.4872 141.786 44.3182 141.243 44.3182C140.868 44.3182 140.534 44.3994 140.239 44.5618C139.947 44.7242 139.717 44.9612 139.548 45.2727C139.379 45.5843 139.294 45.9621 139.294 46.4062ZM149.711 43.3636V44.358H145.594V43.3636H149.711ZM146.827 51V42.3097C146.827 41.8722 146.93 41.5076 147.135 41.2159C147.341 40.9242 147.608 40.7055 147.936 40.5597C148.264 40.4138 148.61 40.3409 148.975 40.3409C149.263 40.3409 149.499 40.3641 149.681 40.4105C149.863 40.4569 149.999 40.5 150.089 40.5398L149.751 41.554C149.691 41.5341 149.608 41.5092 149.502 41.4794C149.399 41.4496 149.263 41.4347 149.094 41.4347C148.706 41.4347 148.426 41.5324 148.254 41.728C148.085 41.9235 148.001 42.2102 148.001 42.5881V51H146.827ZM154.143 51.1591C153.454 51.1591 152.849 50.995 152.328 50.6669C151.811 50.3388 151.407 49.8797 151.115 49.2898C150.827 48.6998 150.683 48.0104 150.683 47.2216C150.683 46.4261 150.827 45.7318 151.115 45.1385C151.407 44.5452 151.811 44.0845 152.328 43.7564C152.849 43.4283 153.454 43.2642 154.143 43.2642C154.832 43.2642 155.436 43.4283 155.953 43.7564C156.473 44.0845 156.877 44.5452 157.166 45.1385C157.457 45.7318 157.603 46.4261 157.603 47.2216C157.603 48.0104 157.457 48.6998 157.166 49.2898C156.877 49.8797 156.473 50.3388 155.953 50.6669C155.436 50.995 154.832 51.1591 154.143 51.1591ZM154.143 50.1051C154.667 50.1051 155.097 49.9709 155.436 49.7024C155.774 49.4339 156.024 49.081 156.186 48.6435C156.349 48.206 156.43 47.732 156.43 47.2216C156.43 46.7112 156.349 46.2356 156.186 45.7947C156.024 45.3539 155.774 44.9976 155.436 44.7259C155.097 44.4541 154.667 44.3182 154.143 44.3182C153.619 44.3182 153.188 44.4541 152.85 44.7259C152.512 44.9976 152.262 45.3539 152.1 45.7947C151.937 46.2356 151.856 46.7112 151.856 47.2216C151.856 47.732 151.937 48.206 152.1 48.6435C152.262 49.081 152.512 49.4339 152.85 49.7024C153.188 49.9709 153.619 50.1051 154.143 50.1051ZM163.491 51V40.8182H164.724V45.3523H170.153V40.8182H171.386V51H170.153V46.446H164.724V51H163.491ZM178.507 47.8778V43.3636H179.681V51H178.507V49.7074H178.428C178.249 50.0952 177.971 50.425 177.593 50.6967C177.215 50.9652 176.738 51.0994 176.161 51.0994C175.684 51.0994 175.259 50.995 174.888 50.7862C174.517 50.5741 174.225 50.2559 174.013 49.8317C173.801 49.4041 173.695 48.8655 173.695 48.2159V43.3636H174.868V48.1364C174.868 48.6932 175.024 49.1373 175.336 49.4688C175.65 49.8002 176.051 49.9659 176.539 49.9659C176.83 49.9659 177.127 49.8913 177.429 49.7422C177.734 49.593 177.989 49.3643 178.194 49.0561C178.403 48.7479 178.507 48.3551 178.507 47.8778ZM181.989 51V40.8182H183.162V44.5767H183.262C183.348 44.4441 183.467 44.2751 183.619 44.0696C183.775 43.8608 183.997 43.6752 184.286 43.5128C184.577 43.3471 184.972 43.2642 185.469 43.2642C186.112 43.2642 186.679 43.425 187.169 43.7464C187.66 44.0679 188.043 44.5237 188.318 45.1136C188.593 45.7036 188.73 46.3996 188.73 47.2017C188.73 48.0104 188.593 48.7114 188.318 49.3047C188.043 49.8946 187.661 50.352 187.174 50.6768C186.687 50.9983 186.125 51.1591 185.489 51.1591C184.998 51.1591 184.606 51.0779 184.311 50.9155C184.016 50.7498 183.789 50.5625 183.629 50.3537C183.47 50.1416 183.348 49.9659 183.262 49.8267H183.122V51H181.989ZM183.142 47.1818C183.142 47.7585 183.227 48.2673 183.396 48.7081C183.565 49.1456 183.812 49.4886 184.137 49.7372C184.461 49.9825 184.859 50.1051 185.33 50.1051C185.82 50.1051 186.23 49.9759 186.558 49.7173C186.889 49.4555 187.138 49.1042 187.303 48.6634C187.472 48.2192 187.557 47.7254 187.557 47.1818C187.557 46.6449 187.474 46.161 187.308 45.7301C187.146 45.2959 186.899 44.9529 186.568 44.701C186.24 44.4458 185.827 44.3182 185.33 44.3182C184.852 44.3182 184.451 44.4392 184.127 44.6811C183.802 44.9197 183.557 45.2545 183.391 45.6854C183.225 46.1129 183.142 46.6117 183.142 47.1818Z" fill="black"/>
</svg>
