<svg width="20" height="20" viewBox="0 0 20 20" fill="none" xmlns="http://www.w3.org/2000/svg">
<path d="M19.1592 15.102L17.2229 13.1633C16.8153 12.7551 16.2038 12.7551 15.7962 13.1633C15.3885 13.5714 15.3885 14.1837 15.7962 14.5918L17.7325 16.5306C18.0382 16.8367 18.0382 17.3469 17.7325 17.6531C17.4268 17.9592 16.9172 17.9592 16.6115 17.6531L13.5541 14.5918C13.758 14.3878 13.9618 14.2857 14.1656 14.0816C15.6943 12.551 16.6115 10.4082 16.6115 8.26531C16.6115 6.02041 15.7962 3.97959 14.1656 2.44898C10.9045 -0.816327 5.70701 -0.816327 2.44586 2.44898C-0.815287 5.71429 -0.815287 10.9184 2.44586 14.1837C3.97452 15.7143 6.11465 16.6327 8.25478 16.6327C9.47771 16.6327 10.7006 16.3265 11.7197 15.8163L15.0828 19.1837C15.5924 19.6939 16.4076 20 17.121 20C17.8344 20 18.5478 19.6939 19.1592 19.1837C20.2803 17.9592 20.2803 16.1224 19.1592 15.102ZM3.87261 12.551C1.42675 10.102 1.42675 6.12245 3.87261 3.77551C5.09554 2.55102 6.6242 1.93878 8.25478 1.93878C9.88535 1.93878 11.414 2.55102 12.6369 3.77551C13.8599 5 14.4713 6.53061 14.4713 8.16327C14.4713 9.79592 13.8599 11.4286 12.6369 12.551C11.414 13.6735 9.88535 14.3878 8.25478 14.3878C6.6242 14.3878 4.99363 13.7755 3.87261 12.551Z" fill="#A4AAA7"/>
</svg>
