<?xml version="1.0" encoding="utf-8"?>
<!-- Generator: Adobe Illustrator 24.0.0, SVG Export Plug-In . SVG Version: 6.00 Build 0)  -->
<svg version="1.1" id="Layer_1" xmlns="http://www.w3.org/2000/svg" xmlns:xlink="http://www.w3.org/1999/xlink" x="0px" y="0px"
	 viewBox="0 0 17.5 20" style="enable-background:new 0 0 17.5 20;" xml:space="preserve">
<style type="text/css">
	.st0{fill:none;stroke:#000000;stroke-width:0.75;stroke-linecap:round;stroke-linejoin:round;stroke-miterlimit:10;}
</style>
<g>
	<path id="Icon_simple-basecamp_1_" class="st0" d="M8.7,3.7c-2.6,0-4.6,2-5.8,4.1C2.4,8.7,2,9.7,1.7,10.7c-0.2,0.6-0.4,1.3-0.5,2
		c0,0.7,0.3,1.2,0.8,1.6c1,0.9,2.3,1.4,3.6,1.7c1,0.2,2.1,0.3,3.2,0.3c1.5,0,3-0.2,4.4-0.7c0.6-0.2,1.2-0.5,1.8-0.9
		c0.5-0.3,1.1-0.8,1.2-1.4c0.2-0.6-0.1-1.4-0.2-2c-0.2-0.7-0.4-1.3-0.6-1.9C14.8,8.1,14.1,7,13.2,6C12.1,4.7,10.5,3.7,8.7,3.7z
		 M8.8,15c-1.6,0-3.2-0.1-4.7-0.8c-0.6-0.3-1.2-0.7-1.6-1.3c-0.3-0.5,0-1,0.2-1.5c0.3-0.6,0.6-1.1,0.9-1.6C4,9.3,4.5,8.3,5.2,8.3
		c1,0,1.4,1.5,2.3,1.5s2.6-3.2,3.3-3.2c0.6,0,1.7,1.2,2.6,2.3c0.4,0.5,0.8,1.1,1.1,1.7c0.3,0.5,0.5,0.9,0.7,1.4
		c0.1,0.2,0.1,0.5,0,0.7c-0.1,0.2-0.2,0.4-0.4,0.6c-0.6,0.7-1.6,1.1-2.4,1.3C11.2,14.9,10,15,8.8,15z"/>
</g>
</svg>
