<?xml version="1.0" encoding="utf-8"?>
<!-- Generator: Adobe Illustrator 24.0.0, SVG Export Plug-In . SVG Version: 6.00 Build 0)  -->
<svg version="1.1" id="Layer_1" xmlns="http://www.w3.org/2000/svg" xmlns:xlink="http://www.w3.org/1999/xlink" x="0px" y="0px"
	 viewBox="0 0 17.5 20" style="enable-background:new 0 0 17.5 20;" xml:space="preserve">
<style type="text/css">
	.st0{fill:none;stroke:#000000;stroke-linecap:round;stroke-linejoin:round;stroke-miterlimit:10;}
</style>
<g>
	<g>
		<path id="Path_112_1_" class="st0" d="M14.9,7.4H7.3C6.6,7.4,6,8,6,8.7V14c0,0.7,0.6,1.3,1.3,1.3h4.3c0.1,0,0.2,0,0.3,0.1l2.2,2
			c0.1,0.1,0.3,0.1,0.3-0.1v-1.7c0-0.2,0.1-0.3,0.3-0.3h0c0.7,0,1.4-0.6,1.4-1.3V8.7C16.2,8,15.6,7.4,14.9,7.4
			C14.9,7.4,14.9,7.4,14.9,7.4z"/>
	</g>
	<g>
		<path id="Path_113_1_" class="st0" d="M5.6,5.9h6.1V3.7c0-0.6-0.5-1.1-1.1-1.1H2.4C1.8,2.5,1.3,3,1.3,3.7v5.6
			c0,0.6,0.5,1.1,1.1,1.1h2.1V7C4.5,6.4,5,5.9,5.6,5.9z"/>
	</g>
</g>
</svg>
