<?xml version="1.0" encoding="utf-8"?>
<!-- Generator: Adobe Illustrator 24.0.0, SVG Export Plug-In . SVG Version: 6.00 Build 0)  -->
<svg version="1.1" id="Layer_1" xmlns="http://www.w3.org/2000/svg" xmlns:xlink="http://www.w3.org/1999/xlink" x="0px" y="0px"
	 viewBox="0 0 17.5 20" style="enable-background:new 0 0 17.5 20;" xml:space="preserve">
<style type="text/css">
	.st0{fill:none;stroke:#000000;stroke-linecap:round;stroke-linejoin:round;stroke-miterlimit:10;}
</style>
<g>
	<g>
		<path id="Path_109_1_" class="st0" d="M15.5,5.3L9,2.3c-0.1-0.1-0.3-0.1-0.4,0L2.1,5.3C2,5.3,1.9,5.5,2,5.7C2,5.7,2,5.8,2.1,5.8
			l6.5,3.4c0.1,0.1,0.3,0.1,0.5,0l6.5-3.4c0.1-0.1,0.2-0.3,0.1-0.4C15.6,5.3,15.6,5.3,15.5,5.3z"/>
	</g>
	<g>
		<g>
			<path id="Path_111_1_" class="st0" d="M1.4,7.5v6.5c0,0.1,0,0.2,0.1,0.2l6.4,3.4c0.1,0.1,0.3,0,0.4-0.1c0,0,0-0.1,0-0.2v-6.6
				c0-0.1-0.1-0.2-0.1-0.3L1.7,7.3c-0.1-0.1-0.3,0-0.4,0.1C1.4,7.4,1.4,7.5,1.4,7.5z"/>
		</g>
		<g>
			<path id="Path_110_1_" class="st0" d="M9.9,17.5l6.3-3.3c0.1-0.1,0.1-0.1,0.1-0.2V7.5c0-0.1-0.1-0.3-0.2-0.3c0,0-0.1,0-0.1,0
				l-6.3,3.2c-0.1,0-0.1,0.1-0.1,0.2v6.5c0,0.1,0.1,0.3,0.3,0.3C9.8,17.6,9.9,17.6,9.9,17.5z"/>
		</g>
	</g>
</g>
</svg>
