<?xml version="1.0" encoding="utf-8"?>
<!-- Generator: Adobe Illustrator 24.0.0, SVG Export Plug-In . SVG Version: 6.00 Build 0)  -->
<svg version="1.1" id="Layer_1" xmlns="http://www.w3.org/2000/svg" xmlns:xlink="http://www.w3.org/1999/xlink" x="0px" y="0px"
	 viewBox="0 0 17.5 20" style="enable-background:new 0 0 17.5 20;" xml:space="preserve">
<style type="text/css">
	.st0{fill:none;stroke:#000000;stroke-linecap:round;stroke-linejoin:round;stroke-miterlimit:10;}
</style>
<g>
	<path id="Icon_awesome-cuttlefish_1_" class="st0" d="M13.2,11.7c-0.7,1.1-1.9,1.9-3.3,1.9c-2,0-3.5-1.7-3.5-3.6
		c0-1.9,1.6-3.5,3.5-3.5c1.3,0,2.6,0.7,3.3,1.9c0.4-1.7,1.5-3.2,3-4C13,0.8,7.6,0.6,4.1,3.7s-3.7,8.5-0.5,12s8.5,3.7,12,0.5
		c0.2-0.2,0.4-0.4,0.5-0.5C14.6,14.9,13.5,13.4,13.2,11.7z"/>
</g>
</svg>
