<svg id="Capa_1" data-name="Capa 1" xmlns="http://www.w3.org/2000/svg" viewBox="0 0 512 512"><title>dashboard2</title><path d="M435.14,129.36a20,20,0,0,0-25.4-2.39c-29.93,20.4-180,123-196.17,139.1a60,60,0,0,0,84.86,84.86c16.13-16.14,118.7-166.24,139.1-196.17A20,20,0,0,0,435.14,129.36Zm-165,193.28a20,20,0,0,1-28.29-28.28c6.27-6.19,48.89-36.59,101.32-73C306.73,273.76,276.33,316.38,270.14,322.64Z"/><path d="M92.23,401.52,67.54,413.57A215,215,0,0,1,54.06,231.82l28.29,13.57a20,20,0,0,0,17.3-36.07l-27.93-13.4A216.25,216.25,0,0,1,236,93.42V123.5a20,20,0,0,0,40,0V93.4a213.49,213.49,0,0,1,68.77,18.12,20,20,0,1,0,16.46-36.46A255.79,255.79,0,0,0,43.37,450.61a20,20,0,0,0,25.4,6.86l41-20a20,20,0,1,0-17.54-36Z"/><path d="M489.44,203.27A20,20,0,0,0,453,219.73a215.32,215.32,0,0,1-8.6,194L418.6,401.44a20,20,0,1,0-17.2,36.12l42,20a20,20,0,0,0,25.23-6.94,255.43,255.43,0,0,0,20.81-247.35Z"/></svg>