<?xml version="1.0" encoding="utf-8"?>
<!-- Generator: Adobe Illustrator 24.0.0, SVG Export Plug-In . SVG Version: 6.00 Build 0)  -->
<svg version="1.1" id="Layer_1" xmlns="http://www.w3.org/2000/svg" xmlns:xlink="http://www.w3.org/1999/xlink" x="0px" y="0px"
	 viewBox="0 0 17.5 20" style="enable-background:new 0 0 17.5 20;" xml:space="preserve">
<style type="text/css">
	.st0{fill:none;stroke:#000000;stroke-width:0.75;stroke-linecap:round;stroke-linejoin:round;stroke-miterlimit:10;}
</style>
<g>
	<path id="Icon_ionic-ios-help-buoy_1_" class="st0" d="M8.8,2C4.4,2,0.9,5.6,0.9,10s3.6,7.9,7.9,7.9s7.9-3.6,7.9-7.9
		C16.7,5.6,13.2,2,8.8,2C8.8,2,8.8,2,8.8,2z M10.9,3.4c2.1,0.7,3.8,2.3,4.5,4.5L12,8.1c-0.3-0.5-0.8-1-1.3-1.3L10.9,3.4z M3.9,5.1
		c0.8-0.8,1.7-1.4,2.8-1.7l0.2,3.4C6.4,7.1,6,7.6,5.6,8.1L2.2,7.9C2.6,6.8,3.2,5.9,3.9,5.1z M6.7,16.5c-2.1-0.7-3.8-2.3-4.5-4.5
		l3.4-0.2c0.3,0.5,0.8,1,1.3,1.3L6.7,16.5z M8.8,12.6c-1.4,0-2.6-1.2-2.6-2.6s1.2-2.6,2.6-2.6s2.6,1.2,2.6,2.6
		C11.4,11.4,10.2,12.6,8.8,12.6z M13.7,14.8c-0.8,0.8-1.7,1.4-2.8,1.7l-0.2-3.4c0.5-0.3,1-0.8,1.3-1.3l3.4,0.2
		C15,13.1,14.4,14,13.7,14.8L13.7,14.8z"/>
</g>
</svg>
