<?xml version="1.0" encoding="utf-8"?>
<!-- Generator: Adobe Illustrator 24.0.0, SVG Export Plug-In . SVG Version: 6.00 Build 0)  -->
<svg version="1.1" id="Layer_1" xmlns="http://www.w3.org/2000/svg" xmlns:xlink="http://www.w3.org/1999/xlink" x="0px" y="0px"
	 viewBox="0 0 17.5 20" style="enable-background:new 0 0 17.5 20;" xml:space="preserve">
<style type="text/css">
	.st0{fill:none;stroke:#000000;stroke-width:0.75;stroke-linecap:round;stroke-linejoin:round;stroke-miterlimit:10;}
	.st1{fill:none;stroke:#000000;stroke-width:0.5;stroke-linecap:round;stroke-linejoin:round;stroke-miterlimit:10;}
</style>
<path class="st0" d="M14.8,4h-12C2,4,1.3,4.7,1.3,5.5c0,0,0,0,0,0l0,9C1.3,15.3,2,16,2.8,16c0,0,0,0,0,0h12c0.8,0,1.5-0.7,1.5-1.5
	c0,0,0,0,0,0v-9C16.3,4.7,15.6,4,14.8,4C14.8,4,14.8,4,14.8,4L14.8,4z"/>
<polygon class="st1" points="6.2,12.2 5.3,12.2 3.4,9.6 3.4,12.2 2.5,12.2 2.5,7.8 3.4,7.8 5.3,10.4 5.3,7.8 6.2,7.8 "/>
<polygon class="st1" points="9.9,8.7 8.1,8.7 8.1,9.5 9.9,9.5 9.9,10.5 8.1,10.5 8.1,11.3 9.9,11.3 9.9,12.2 7,12.2 7,7.8 9.9,7.8 
	"/>
<path class="st1" d="M15.1,11.5c0,0.4-0.3,0.7-0.7,0.7h-2.9c-0.4,0-0.7-0.3-0.7-0.7V7.8h0.9v3.3h0.8V8.5h0.9v2.5h0.8V7.8h0.9
	L15.1,11.5L15.1,11.5z"/>
</svg>
