<?xml version="1.0" encoding="utf-8"?>
<!-- Generator: Adobe Illustrator 24.0.0, SVG Export Plug-In . SVG Version: 6.00 Build 0)  -->
<svg version="1.1" id="Layer_1" xmlns="http://www.w3.org/2000/svg" xmlns:xlink="http://www.w3.org/1999/xlink" x="0px" y="0px"
	 viewBox="0 0 17.5 20" style="enable-background:new 0 0 17.5 20;" xml:space="preserve">
<style type="text/css">
	.st0{fill:none;stroke:#000000;stroke-width:0.75;stroke-linecap:round;stroke-linejoin:round;stroke-miterlimit:10;}
</style>
<path id="Icon_awesome-chart-bar_1_" class="st0" d="M11,11.9h1.1c0.2,0,0.4-0.2,0.4-0.4V7.6c0-0.2-0.2-0.4-0.4-0.4H11
	c-0.2,0-0.4,0.2-0.4,0.4v3.9C10.6,11.7,10.8,11.8,11,11.9z M14.1,11.9h1.1c0.2,0,0.4-0.2,0.4-0.4V4.8c0-0.2-0.2-0.4-0.4-0.4h-1.1
	c-0.2,0-0.4,0.2-0.4,0.4v6.7C13.7,11.7,13.9,11.8,14.1,11.9z M4.7,11.9h1.1c0.2,0,0.4-0.2,0.4-0.4v-2c0-0.2-0.2-0.4-0.4-0.4H4.7
	c-0.2,0-0.4,0.2-0.4,0.4v2C4.4,11.7,4.5,11.8,4.7,11.9z M7.8,11.9h1.1c0.2,0,0.4-0.2,0.4-0.4V5.7c0-0.2-0.2-0.4-0.4-0.4H7.8
	c-0.2,0-0.4,0.2-0.4,0.4v5.7C7.5,11.7,7.6,11.8,7.8,11.9z M15.7,13.7H3.2V4.9c0-0.3-0.2-0.5-0.5-0.5H1.8c-0.3,0-0.5,0.2-0.5,0.5v9.7
	c0,0.5,0.4,0.9,0.9,0.9h13.4c0.3,0,0.5-0.2,0.5-0.5v-0.9C16.2,13.9,16,13.7,15.7,13.7z"/>
</svg>
