<?xml version="1.0" encoding="utf-8"?>
<!-- Generator: Adobe Illustrator 24.0.0, SVG Export Plug-In . SVG Version: 6.00 Build 0)  -->
<svg version="1.1" id="Layer_1" xmlns="http://www.w3.org/2000/svg" xmlns:xlink="http://www.w3.org/1999/xlink" x="0px" y="0px"
	 viewBox="0 0 17.5 20" style="enable-background:new 0 0 17.5 20;" xml:space="preserve">
<style type="text/css">
	.st0{fill:none;stroke:#000000;stroke-linecap:round;stroke-linejoin:round;stroke-miterlimit:10;}
</style>
<g>
	<path id="Icon_ionic-ios-settings_1_" class="st0" d="M15,10c0-0.8,0.5-1.5,1.2-1.8c-0.2-0.8-0.5-1.5-0.9-2.2
		c-0.2,0.1-0.5,0.2-0.8,0.2c-1.1,0-1.9-0.9-1.9-1.9c0-0.3,0.1-0.5,0.2-0.8c-0.7-0.4-1.4-0.7-2.2-0.9c-0.4,1-1.5,1.5-2.5,1.1
		C7.5,3.4,7.1,3,7,2.5C6.2,2.7,5.4,3,4.7,3.4c0.4,1,0,2.1-1,2.5C3.5,6.1,3.2,6.1,3,6.1C2.7,6.1,2.4,6.1,2.2,6
		C1.8,6.7,1.4,7.4,1.3,8.2c1,0.4,1.5,1.5,1.1,2.5c-0.2,0.5-0.6,0.9-1.1,1.1c0.2,0.8,0.5,1.5,0.9,2.2c1-0.4,2.1,0,2.5,1
		c0.2,0.5,0.2,1.1,0,1.6c0.7,0.4,1.4,0.7,2.2,0.9c0.4-1,1.5-1.5,2.5-1.1c0.5,0.2,0.9,0.6,1.1,1.1c0.8-0.2,1.5-0.5,2.2-0.9
		c-0.4-1,0-2.1,1-2.5c0.5-0.2,1.1-0.2,1.6,0c0.4-0.7,0.7-1.4,0.9-2.2C15.5,11.5,15,10.8,15,10z M8.8,13.1c-1.7,0-3.1-1.4-3.1-3.1
		s1.4-3.1,3.1-3.1s3.1,1.4,3.1,3.1c0,0,0,0,0,0C11.9,11.7,10.5,13.1,8.8,13.1z"/>
</g>
</svg>
