<?xml version="1.0" encoding="utf-8"?>
<!-- Generator: Adobe Illustrator 24.0.0, SVG Export Plug-In . SVG Version: 6.00 Build 0)  -->
<svg version="1.1" id="Layer_1" xmlns="http://www.w3.org/2000/svg" xmlns:xlink="http://www.w3.org/1999/xlink" x="0px" y="0px"
	 viewBox="0 0 17.5 20" style="enable-background:new 0 0 17.5 20;" xml:space="preserve">
<style type="text/css">
	.st0{fill:none;stroke:#000000;stroke-linecap:round;stroke-linejoin:round;stroke-miterlimit:10;}
</style>
<g>
	<path id="Icon_awesome-share-alt_1_" class="st0" d="M13,12.1c-0.7,0-1.4,0.2-2,0.7l-3.4-2.1c0.1-0.5,0.1-0.9,0-1.4L11,7.2
		c1.4,1.1,3.4,0.9,4.5-0.5s0.9-3.4-0.5-4.5s-3.4-0.9-4.5,0.5C9.9,3.5,9.7,4.4,9.9,5.4L6.5,7.5C5.1,6.4,3.1,6.6,2,8s-0.9,3.4,0.5,4.5
		c1.2,0.9,2.8,0.9,4,0l3.4,2.1c-0.4,1.7,0.7,3.4,2.4,3.8c1.7,0.4,3.4-0.7,3.8-2.4c0.4-1.7-0.7-3.4-2.4-3.8
		C13.5,12.1,13.2,12.1,13,12.1z"/>
</g>
</svg>
