<?xml version="1.0" encoding="utf-8"?>
<!-- Generator: Adobe Illustrator 24.0.0, SVG Export Plug-In . SVG Version: 6.00 Build 0)  -->
<svg version="1.1" id="Layer_1" xmlns="http://www.w3.org/2000/svg" xmlns:xlink="http://www.w3.org/1999/xlink" x="0px" y="0px"
	 viewBox="0 0 17.5 20" style="enable-background:new 0 0 17.5 20;" xml:space="preserve">
<style type="text/css">
	.st0{fill:none;stroke:#000000;stroke-width:0.75;stroke-linecap:round;stroke-linejoin:round;stroke-miterlimit:10;}
</style>
<g>
	<path id="Icon_awesome-skiing_1_" class="st0" d="M13.8,5.4c0.8,0,1.4-0.6,1.4-1.4s-0.6-1.4-1.4-1.4c-0.8,0-1.4,0.6-1.4,1.4
		S13,5.4,13.8,5.4z M15.9,15.6c-0.3-0.3-0.7-0.3-1,0c0,0,0,0,0,0c-0.3,0.3-0.9,0.4-1.3,0.3l-3.9-2l1.4-2.1c0.4-0.5,0.3-1.3-0.2-1.7
		L9.8,8.8L6.7,7.3C6.6,7.9,6.8,8.5,7.2,8.9L9.4,11l-1.3,2l-5.7-2.9c-0.3-0.2-0.8,0-0.9,0.3c-0.2,0.3,0,0.8,0.3,0.9l0,0L13,17.1
		c0.3,0.2,0.7,0.2,1.1,0.2c0.7,0,1.3-0.3,1.8-0.7C16.2,16.3,16.2,15.9,15.9,15.6C15.9,15.6,15.9,15.6,15.9,15.6z M4.8,5.3L4.5,5.9
		c0.4,0.2,0.9,0.1,1.2-0.1l1.4,0.7c0,0,0,0,0,0l3.3,1.6l0.9-0.4l0.2,0.5c0.1,0.3,0.4,0.6,0.7,0.8l1.7,0.8c0.5,0.2,1,0,1.2-0.4
		c0.2-0.4,0-1-0.4-1.2l-1.5-0.8L12.7,6c-0.3-1-1.4-1.5-2.3-1.2c0,0-0.1,0-0.1,0L7.9,5.8L6.1,4.9c0-0.4-0.2-0.8-0.6-1L5.2,4.6h0
		l-1-0.2c-0.1,0-0.1,0-0.1,0C4,4.5,4,4.5,4.1,4.6c0,0,0,0,0,0L4.8,5.3z"/>
</g>
</svg>
