<?xml version="1.0" encoding="utf-8"?>
<!-- Generator: Adobe Illustrator 24.0.0, SVG Export Plug-In . SVG Version: 6.00 Build 0)  -->
<svg version="1.1" id="Layer_1" xmlns="http://www.w3.org/2000/svg" xmlns:xlink="http://www.w3.org/1999/xlink" x="0px" y="0px"
	 viewBox="0 0 17.5 20" style="enable-background:new 0 0 17.5 20;" xml:space="preserve">
<style type="text/css">
	.st0{fill:none;stroke:#000000;stroke-linecap:round;stroke-linejoin:round;stroke-miterlimit:10;}
</style>
<g>
	<path id="Icon_awesome-toolbox_1_" class="st0" d="M15.9,8.8l-1.3-1.3c-0.2-0.2-0.4-0.3-0.7-0.3h-1.5V4.9c0-0.8-0.6-1.4-1.4-1.4
		H6.4c-0.8,0-1.4,0.6-1.4,1.4v2.3H3.6c-0.2,0-0.5,0.1-0.7,0.3L1.6,8.8C1.5,9,1.4,9.2,1.4,9.5v2.4h3.7v-0.5c0-0.3,0.2-0.5,0.5-0.5
		h0.9c0.3,0,0.5,0.2,0.5,0.5v0.5h3.7v-0.5c0-0.3,0.2-0.5,0.5-0.5H12c0.3,0,0.5,0.2,0.5,0.5v0.5h3.7V9.5C16.1,9.2,16,9,15.9,8.8z
		 M10.6,7.2H6.9V5.4h3.7V7.2z M12.4,13.2c0,0.3-0.2,0.5-0.5,0.5h-0.9c-0.3,0-0.5-0.2-0.5-0.5v-0.5H6.9v0.5c0,0.3-0.2,0.5-0.5,0.5
		H5.5c-0.3,0-0.5-0.2-0.5-0.5v-0.5H1.4v2.8c0,0.5,0.4,0.9,0.9,0.9h12.9c0.5,0,0.9-0.4,0.9-0.9v-2.8h-3.7V13.2z"/>
</g>
</svg>
