<?xml version="1.0" encoding="utf-8"?>
<!-- Generator: Adobe Illustrator 24.0.0, SVG Export Plug-In . SVG Version: 6.00 Build 0)  -->
<svg version="1.1" id="Layer_1" xmlns="http://www.w3.org/2000/svg" xmlns:xlink="http://www.w3.org/1999/xlink" x="0px" y="0px"
	 viewBox="0 0 17.5 20" style="enable-background:new 0 0 17.5 20;" xml:space="preserve">
<style type="text/css">
	.st0{fill:none;stroke:#000000;stroke-linecap:round;stroke-linejoin:round;stroke-miterlimit:10;}
</style>
<g>
	<path id="Icon_simple-crunchyroll_1_" class="st0" d="M3.2,10.8C3,7.3,5.6,4.2,9.2,3.9s6.7,2.4,7,5.9c0,0.2,0,0.4,0,0.5V9.9
		c0-4.1-3.3-7.4-7.4-7.4S1.4,5.9,1.4,9.9s3.3,7.4,7.4,7.4h0.5C5.9,17.1,3.3,14.2,3.2,10.8L3.2,10.8z M12.8,11.2
		c-1.1,0-2.1-0.9-2.1-2c0-0.9,0.5-1.6,1.4-1.9c-0.6-0.3-1.3-0.5-2.1-0.5c-2.5,0-4.5,2-4.5,4.5s2,4.5,4.5,4.5s4.5-2,4.5-4.5
		c0-0.3,0-0.6-0.1-0.9C14.1,10.9,13.5,11.2,12.8,11.2z"/>
</g>
</svg>
